<?xml version="1.0" encoding="utf-8" standalone="no"?>
<!DOCTYPE svg PUBLIC "-//W3C//DTD SVG 1.1//EN"
  "http://www.w3.org/Graphics/SVG/1.1/DTD/svg11.dtd">
<svg xmlns:xlink="http://www.w3.org/1999/xlink" width="376.240625pt" height="262.297813pt" viewBox="0 0 376.240625 262.297813" xmlns="http://www.w3.org/2000/svg" version="1.1">
 <metadata>
  <rdf:RDF xmlns:dc="http://purl.org/dc/elements/1.1/" xmlns:cc="http://creativecommons.org/ns#" xmlns:rdf="http://www.w3.org/1999/02/22-rdf-syntax-ns#">
   <cc:Work>
    <dc:type rdf:resource="http://purl.org/dc/dcmitype/StillImage"/>
    <dc:date>2022-12-01T17:22:46.552217</dc:date>
    <dc:format>image/svg+xml</dc:format>
    <dc:creator>
     <cc:Agent>
      <dc:title>Matplotlib v3.5.3, https://matplotlib.org/</dc:title>
     </cc:Agent>
    </dc:creator>
   </cc:Work>
  </rdf:RDF>
 </metadata>
 <defs>
  <style type="text/css">*{stroke-linejoin: round; stroke-linecap: butt}</style>
 </defs>
 <g id="figure_1">
  <g id="patch_1">
   <path d="M 0 262.297813 
L 376.240625 262.297813 
L 376.240625 0 
L 0 0 
L 0 262.297813 
z
" style="fill: none"/>
  </g>
  <g id="axes_1">
   <g id="patch_2">
    <path d="M 34.240625 224.64 
L 369.040625 224.64 
L 369.040625 7.2 
L 34.240625 7.2 
z
" style="fill: #ffffff"/>
   </g>
   <g id="patch_3">
    <path d="M 49.458807 224.64 
L 54.448375 224.64 
L 54.448375 222.663048 
L 49.458807 222.663048 
z
" clip-path="url(#pe9d992669c)" style="fill: #1f77b4; fill-opacity: 0.5; stroke: #000000; stroke-width: 0.498957; stroke-linejoin: miter"/>
   </g>
   <g id="patch_4">
    <path d="M 54.448375 224.64 
L 59.437942 224.64 
L 59.437942 224.145762 
L 54.448375 224.145762 
z
" clip-path="url(#pe9d992669c)" style="fill: #1f77b4; fill-opacity: 0.5; stroke: #000000; stroke-width: 0.498957; stroke-linejoin: miter"/>
   </g>
   <g id="patch_5">
    <path d="M 59.437942 224.64 
L 64.42751 224.64 
L 64.42751 222.663048 
L 59.437942 222.663048 
z
" clip-path="url(#pe9d992669c)" style="fill: #1f77b4; fill-opacity: 0.5; stroke: #000000; stroke-width: 0.498957; stroke-linejoin: miter"/>
   </g>
   <g id="patch_6">
    <path d="M 64.42751 224.64 
L 69.417078 224.64 
L 69.417078 222.663048 
L 64.42751 222.663048 
z
" clip-path="url(#pe9d992669c)" style="fill: #1f77b4; fill-opacity: 0.5; stroke: #000000; stroke-width: 0.498957; stroke-linejoin: miter"/>
   </g>
   <g id="patch_7">
    <path d="M 69.417078 224.64 
L 74.406646 224.64 
L 74.406646 197.456911 
L 69.417078 197.456911 
z
" clip-path="url(#pe9d992669c)" style="fill: #1f77b4; fill-opacity: 0.5; stroke: #000000; stroke-width: 0.498957; stroke-linejoin: miter"/>
   </g>
   <g id="patch_8">
    <path d="M 74.406646 224.64 
L 79.396214 224.64 
L 79.396214 219.69762 
L 74.406646 219.69762 
z
" clip-path="url(#pe9d992669c)" style="fill: #1f77b4; fill-opacity: 0.5; stroke: #000000; stroke-width: 0.498957; stroke-linejoin: miter"/>
   </g>
   <g id="patch_9">
    <path d="M 79.396214 224.64 
L 84.385781 224.64 
L 84.385781 211.789812 
L 79.396214 211.789812 
z
" clip-path="url(#pe9d992669c)" style="fill: #1f77b4; fill-opacity: 0.5; stroke: #000000; stroke-width: 0.498957; stroke-linejoin: miter"/>
   </g>
   <g id="patch_10">
    <path d="M 84.385781 224.64 
L 89.375349 224.64 
L 89.375349 186.583675 
L 84.385781 186.583675 
z
" clip-path="url(#pe9d992669c)" style="fill: #1f77b4; fill-opacity: 0.5; stroke: #000000; stroke-width: 0.498957; stroke-linejoin: miter"/>
   </g>
   <g id="patch_11">
    <path d="M 89.375349 224.64 
L 94.364917 224.64 
L 94.364917 200.422339 
L 89.375349 200.422339 
z
" clip-path="url(#pe9d992669c)" style="fill: #1f77b4; fill-opacity: 0.5; stroke: #000000; stroke-width: 0.498957; stroke-linejoin: miter"/>
   </g>
   <g id="patch_12">
    <path d="M 94.364917 224.64 
L 99.354485 224.64 
L 99.354485 114.42493 
L 94.364917 114.42493 
z
" clip-path="url(#pe9d992669c)" style="fill: #1f77b4; fill-opacity: 0.5; stroke: #000000; stroke-width: 0.498957; stroke-linejoin: miter"/>
   </g>
   <g id="patch_13">
    <path d="M 99.354485 224.64 
L 104.344053 224.64 
L 104.344053 170.76806 
L 99.354485 170.76806 
z
" clip-path="url(#pe9d992669c)" style="fill: #1f77b4; fill-opacity: 0.5; stroke: #000000; stroke-width: 0.498957; stroke-linejoin: miter"/>
   </g>
   <g id="patch_14">
    <path d="M 104.344053 224.64 
L 109.333621 224.64 
L 109.333621 48.197041 
L 104.344053 48.197041 
z
" clip-path="url(#pe9d992669c)" style="fill: #1f77b4; fill-opacity: 0.5; stroke: #000000; stroke-width: 0.498957; stroke-linejoin: miter"/>
   </g>
   <g id="patch_15">
    <path d="M 109.333621 224.64 
L 114.323188 224.64 
L 114.323188 120.355786 
L 109.333621 120.355786 
z
" clip-path="url(#pe9d992669c)" style="fill: #1f77b4; fill-opacity: 0.5; stroke: #000000; stroke-width: 0.498957; stroke-linejoin: miter"/>
   </g>
   <g id="patch_16">
    <path d="M 114.323188 224.64 
L 119.312756 224.64 
L 119.312756 110.471026 
L 114.323188 110.471026 
z
" clip-path="url(#pe9d992669c)" style="fill: #1f77b4; fill-opacity: 0.5; stroke: #000000; stroke-width: 0.498957; stroke-linejoin: miter"/>
   </g>
   <g id="patch_17">
    <path d="M 119.312756 224.64 
L 124.302324 224.64 
L 124.302324 30.404473 
L 119.312756 30.404473 
z
" clip-path="url(#pe9d992669c)" style="fill: #1f77b4; fill-opacity: 0.5; stroke: #000000; stroke-width: 0.498957; stroke-linejoin: miter"/>
   </g>
   <g id="patch_18">
    <path d="M 124.302324 224.64 
L 129.291892 224.64 
L 129.291892 115.907644 
L 124.302324 115.907644 
z
" clip-path="url(#pe9d992669c)" style="fill: #1f77b4; fill-opacity: 0.5; stroke: #000000; stroke-width: 0.498957; stroke-linejoin: miter"/>
   </g>
   <g id="patch_19">
    <path d="M 129.291892 224.64 
L 134.28146 224.64 
L 134.28146 61.047228 
L 129.291892 61.047228 
z
" clip-path="url(#pe9d992669c)" style="fill: #1f77b4; fill-opacity: 0.5; stroke: #000000; stroke-width: 0.498957; stroke-linejoin: miter"/>
   </g>
   <g id="patch_20">
    <path d="M 134.28146 224.64 
L 139.271027 224.64 
L 139.271027 84.770651 
L 134.28146 84.770651 
z
" clip-path="url(#pe9d992669c)" style="fill: #1f77b4; fill-opacity: 0.5; stroke: #000000; stroke-width: 0.498957; stroke-linejoin: miter"/>
   </g>
   <g id="patch_21">
    <path d="M 139.271027 224.64 
L 144.260595 224.64 
L 144.260595 117.390358 
L 139.271027 117.390358 
z
" clip-path="url(#pe9d992669c)" style="fill: #1f77b4; fill-opacity: 0.5; stroke: #000000; stroke-width: 0.498957; stroke-linejoin: miter"/>
   </g>
   <g id="patch_22">
    <path d="M 144.260595 224.64 
L 149.250163 224.64 
L 149.250163 17.554286 
L 144.260595 17.554286 
z
" clip-path="url(#pe9d992669c)" style="fill: #1f77b4; fill-opacity: 0.5; stroke: #000000; stroke-width: 0.498957; stroke-linejoin: miter"/>
   </g>
   <g id="patch_23">
    <path d="M 149.250163 224.64 
L 154.239731 224.64 
L 154.239731 129.25207 
L 149.250163 129.25207 
z
" clip-path="url(#pe9d992669c)" style="fill: #1f77b4; fill-opacity: 0.5; stroke: #000000; stroke-width: 0.498957; stroke-linejoin: miter"/>
   </g>
   <g id="patch_24">
    <path d="M 154.239731 224.64 
L 159.229299 224.64 
L 159.229299 81.310985 
L 154.239731 81.310985 
z
" clip-path="url(#pe9d992669c)" style="fill: #1f77b4; fill-opacity: 0.5; stroke: #000000; stroke-width: 0.498957; stroke-linejoin: miter"/>
   </g>
   <g id="patch_25">
    <path d="M 159.229299 224.64 
L 164.218866 224.64 
L 164.218866 87.241841 
L 159.229299 87.241841 
z
" clip-path="url(#pe9d992669c)" style="fill: #1f77b4; fill-opacity: 0.5; stroke: #000000; stroke-width: 0.498957; stroke-linejoin: miter"/>
   </g>
   <g id="patch_26">
    <path d="M 164.218866 224.64 
L 169.208434 224.64 
L 169.208434 146.550399 
L 164.218866 146.550399 
z
" clip-path="url(#pe9d992669c)" style="fill: #1f77b4; fill-opacity: 0.5; stroke: #000000; stroke-width: 0.498957; stroke-linejoin: miter"/>
   </g>
   <g id="patch_27">
    <path d="M 169.208434 224.64 
L 174.198002 224.64 
L 174.198002 101.080505 
L 169.208434 101.080505 
z
" clip-path="url(#pe9d992669c)" style="fill: #1f77b4; fill-opacity: 0.5; stroke: #000000; stroke-width: 0.498957; stroke-linejoin: miter"/>
   </g>
   <g id="patch_28">
    <path d="M 174.198002 224.64 
L 179.18757 224.64 
L 179.18757 151.987017 
L 174.198002 151.987017 
z
" clip-path="url(#pe9d992669c)" style="fill: #1f77b4; fill-opacity: 0.5; stroke: #000000; stroke-width: 0.498957; stroke-linejoin: miter"/>
   </g>
   <g id="patch_29">
    <path d="M 179.18757 224.64 
L 184.177138 224.64 
L 184.177138 149.021589 
L 179.18757 149.021589 
z
" clip-path="url(#pe9d992669c)" style="fill: #1f77b4; fill-opacity: 0.5; stroke: #000000; stroke-width: 0.498957; stroke-linejoin: miter"/>
   </g>
   <g id="patch_30">
    <path d="M 184.177138 224.64 
L 189.166705 224.64 
L 189.166705 144.573447 
L 184.177138 144.573447 
z
" clip-path="url(#pe9d992669c)" style="fill: #1f77b4; fill-opacity: 0.5; stroke: #000000; stroke-width: 0.498957; stroke-linejoin: miter"/>
   </g>
   <g id="patch_31">
    <path d="M 189.166705 224.64 
L 194.156273 224.64 
L 194.156273 186.089437 
L 189.166705 186.089437 
z
" clip-path="url(#pe9d992669c)" style="fill: #1f77b4; fill-opacity: 0.5; stroke: #000000; stroke-width: 0.498957; stroke-linejoin: miter"/>
   </g>
   <g id="patch_32">
    <path d="M 194.156273 224.64 
L 199.145841 224.64 
L 199.145841 157.917872 
L 194.156273 157.917872 
z
" clip-path="url(#pe9d992669c)" style="fill: #1f77b4; fill-opacity: 0.5; stroke: #000000; stroke-width: 0.498957; stroke-linejoin: miter"/>
   </g>
   <g id="patch_33">
    <path d="M 199.145841 224.64 
L 204.135409 224.64 
L 204.135409 182.629772 
L 199.145841 182.629772 
z
" clip-path="url(#pe9d992669c)" style="fill: #1f77b4; fill-opacity: 0.5; stroke: #000000; stroke-width: 0.498957; stroke-linejoin: miter"/>
   </g>
   <g id="patch_34">
    <path d="M 204.135409 224.64 
L 209.124977 224.64 
L 209.124977 194.985721 
L 204.135409 194.985721 
z
" clip-path="url(#pe9d992669c)" style="fill: #1f77b4; fill-opacity: 0.5; stroke: #000000; stroke-width: 0.498957; stroke-linejoin: miter"/>
   </g>
   <g id="patch_35">
    <path d="M 209.124977 224.64 
L 214.114545 224.64 
L 214.114545 186.089437 
L 209.124977 186.089437 
z
" clip-path="url(#pe9d992669c)" style="fill: #1f77b4; fill-opacity: 0.5; stroke: #000000; stroke-width: 0.498957; stroke-linejoin: miter"/>
   </g>
   <g id="patch_36">
    <path d="M 214.114545 224.64 
L 219.104112 224.64 
L 219.104112 205.858957 
L 214.114545 205.858957 
z
" clip-path="url(#pe9d992669c)" style="fill: #1f77b4; fill-opacity: 0.5; stroke: #000000; stroke-width: 0.498957; stroke-linejoin: miter"/>
   </g>
   <g id="patch_37">
    <path d="M 219.104112 224.64 
L 224.09368 224.64 
L 224.09368 195.974197 
L 219.104112 195.974197 
z
" clip-path="url(#pe9d992669c)" style="fill: #1f77b4; fill-opacity: 0.5; stroke: #000000; stroke-width: 0.498957; stroke-linejoin: miter"/>
   </g>
   <g id="patch_38">
    <path d="M 224.09368 224.64 
L 229.083248 224.64 
L 229.083248 199.928101 
L 224.09368 199.928101 
z
" clip-path="url(#pe9d992669c)" style="fill: #1f77b4; fill-opacity: 0.5; stroke: #000000; stroke-width: 0.498957; stroke-linejoin: miter"/>
   </g>
   <g id="patch_39">
    <path d="M 229.083248 224.64 
L 234.072816 224.64 
L 234.072816 207.341671 
L 229.083248 207.341671 
z
" clip-path="url(#pe9d992669c)" style="fill: #1f77b4; fill-opacity: 0.5; stroke: #000000; stroke-width: 0.498957; stroke-linejoin: miter"/>
   </g>
   <g id="patch_40">
    <path d="M 234.072816 224.64 
L 239.062384 224.64 
L 239.062384 209.318623 
L 234.072816 209.318623 
z
" clip-path="url(#pe9d992669c)" style="fill: #1f77b4; fill-opacity: 0.5; stroke: #000000; stroke-width: 0.498957; stroke-linejoin: miter"/>
   </g>
   <g id="patch_41">
    <path d="M 239.062384 224.64 
L 244.051951 224.64 
L 244.051951 215.743716 
L 239.062384 215.743716 
z
" clip-path="url(#pe9d992669c)" style="fill: #1f77b4; fill-opacity: 0.5; stroke: #000000; stroke-width: 0.498957; stroke-linejoin: miter"/>
   </g>
   <g id="patch_42">
    <path d="M 244.051951 224.64 
L 249.041519 224.64 
L 249.041519 214.261002 
L 244.051951 214.261002 
z
" clip-path="url(#pe9d992669c)" style="fill: #1f77b4; fill-opacity: 0.5; stroke: #000000; stroke-width: 0.498957; stroke-linejoin: miter"/>
   </g>
   <g id="patch_43">
    <path d="M 249.041519 224.64 
L 254.031087 224.64 
L 254.031087 218.709144 
L 249.041519 218.709144 
z
" clip-path="url(#pe9d992669c)" style="fill: #1f77b4; fill-opacity: 0.5; stroke: #000000; stroke-width: 0.498957; stroke-linejoin: miter"/>
   </g>
   <g id="patch_44">
    <path d="M 254.031087 224.64 
L 259.020655 224.64 
L 259.020655 219.69762 
L 254.031087 219.69762 
z
" clip-path="url(#pe9d992669c)" style="fill: #1f77b4; fill-opacity: 0.5; stroke: #000000; stroke-width: 0.498957; stroke-linejoin: miter"/>
   </g>
   <g id="patch_45">
    <path d="M 259.020655 224.64 
L 264.010223 224.64 
L 264.010223 218.709144 
L 259.020655 218.709144 
z
" clip-path="url(#pe9d992669c)" style="fill: #1f77b4; fill-opacity: 0.5; stroke: #000000; stroke-width: 0.498957; stroke-linejoin: miter"/>
   </g>
   <g id="patch_46">
    <path d="M 264.010223 224.64 
L 268.99979 224.64 
L 268.99979 218.709144 
L 264.010223 218.709144 
z
" clip-path="url(#pe9d992669c)" style="fill: #1f77b4; fill-opacity: 0.5; stroke: #000000; stroke-width: 0.498957; stroke-linejoin: miter"/>
   </g>
   <g id="patch_47">
    <path d="M 268.99979 224.64 
L 273.989358 224.64 
L 273.989358 221.180334 
L 268.99979 221.180334 
z
" clip-path="url(#pe9d992669c)" style="fill: #1f77b4; fill-opacity: 0.5; stroke: #000000; stroke-width: 0.498957; stroke-linejoin: miter"/>
   </g>
   <g id="patch_48">
    <path d="M 273.989358 224.64 
L 278.978926 224.64 
L 278.978926 222.663048 
L 273.989358 222.663048 
z
" clip-path="url(#pe9d992669c)" style="fill: #1f77b4; fill-opacity: 0.5; stroke: #000000; stroke-width: 0.498957; stroke-linejoin: miter"/>
   </g>
   <g id="patch_49">
    <path d="M 278.978926 224.64 
L 283.968494 224.64 
L 283.968494 223.157286 
L 278.978926 223.157286 
z
" clip-path="url(#pe9d992669c)" style="fill: #1f77b4; fill-opacity: 0.5; stroke: #000000; stroke-width: 0.498957; stroke-linejoin: miter"/>
   </g>
   <g id="patch_50">
    <path d="M 283.968494 224.64 
L 288.958062 224.64 
L 288.958062 222.663048 
L 283.968494 222.663048 
z
" clip-path="url(#pe9d992669c)" style="fill: #1f77b4; fill-opacity: 0.5; stroke: #000000; stroke-width: 0.498957; stroke-linejoin: miter"/>
   </g>
   <g id="patch_51">
    <path d="M 288.958062 224.64 
L 293.947629 224.64 
L 293.947629 221.674572 
L 288.958062 221.674572 
z
" clip-path="url(#pe9d992669c)" style="fill: #1f77b4; fill-opacity: 0.5; stroke: #000000; stroke-width: 0.498957; stroke-linejoin: miter"/>
   </g>
   <g id="patch_52">
    <path d="M 293.947629 224.64 
L 298.937197 224.64 
L 298.937197 223.157286 
L 293.947629 223.157286 
z
" clip-path="url(#pe9d992669c)" style="fill: #1f77b4; fill-opacity: 0.5; stroke: #000000; stroke-width: 0.498957; stroke-linejoin: miter"/>
   </g>
   <g id="patch_53">
    <path d="M 298.937197 224.64 
L 303.926765 224.64 
L 303.926765 221.674572 
L 298.937197 221.674572 
z
" clip-path="url(#pe9d992669c)" style="fill: #1f77b4; fill-opacity: 0.5; stroke: #000000; stroke-width: 0.498957; stroke-linejoin: miter"/>
   </g>
   <g id="patch_54">
    <path d="M 303.926765 224.64 
L 308.916333 224.64 
L 308.916333 223.157286 
L 303.926765 223.157286 
z
" clip-path="url(#pe9d992669c)" style="fill: #1f77b4; fill-opacity: 0.5; stroke: #000000; stroke-width: 0.498957; stroke-linejoin: miter"/>
   </g>
   <g id="patch_55">
    <path d="M 308.916333 224.64 
L 313.905901 224.64 
L 313.905901 223.651524 
L 308.916333 223.651524 
z
" clip-path="url(#pe9d992669c)" style="fill: #1f77b4; fill-opacity: 0.5; stroke: #000000; stroke-width: 0.498957; stroke-linejoin: miter"/>
   </g>
   <g id="patch_56">
    <path d="M 313.905901 224.64 
L 318.895469 224.64 
L 318.895469 224.145762 
L 313.905901 224.145762 
z
" clip-path="url(#pe9d992669c)" style="fill: #1f77b4; fill-opacity: 0.5; stroke: #000000; stroke-width: 0.498957; stroke-linejoin: miter"/>
   </g>
   <g id="patch_57">
    <path d="M 318.895469 224.64 
L 323.885036 224.64 
L 323.885036 224.64 
L 318.895469 224.64 
z
" clip-path="url(#pe9d992669c)" style="fill: #1f77b4; fill-opacity: 0.5; stroke: #000000; stroke-width: 0.498957; stroke-linejoin: miter"/>
   </g>
   <g id="patch_58">
    <path d="M 323.885036 224.64 
L 328.874604 224.64 
L 328.874604 224.64 
L 323.885036 224.64 
z
" clip-path="url(#pe9d992669c)" style="fill: #1f77b4; fill-opacity: 0.5; stroke: #000000; stroke-width: 0.498957; stroke-linejoin: miter"/>
   </g>
   <g id="patch_59">
    <path d="M 328.874604 224.64 
L 333.864172 224.64 
L 333.864172 224.64 
L 328.874604 224.64 
z
" clip-path="url(#pe9d992669c)" style="fill: #1f77b4; fill-opacity: 0.5; stroke: #000000; stroke-width: 0.498957; stroke-linejoin: miter"/>
   </g>
   <g id="patch_60">
    <path d="M 333.864172 224.64 
L 338.85374 224.64 
L 338.85374 224.64 
L 333.864172 224.64 
z
" clip-path="url(#pe9d992669c)" style="fill: #1f77b4; fill-opacity: 0.5; stroke: #000000; stroke-width: 0.498957; stroke-linejoin: miter"/>
   </g>
   <g id="patch_61">
    <path d="M 338.85374 224.64 
L 343.843308 224.64 
L 343.843308 224.64 
L 338.85374 224.64 
z
" clip-path="url(#pe9d992669c)" style="fill: #1f77b4; fill-opacity: 0.5; stroke: #000000; stroke-width: 0.498957; stroke-linejoin: miter"/>
   </g>
   <g id="patch_62">
    <path d="M 343.843308 224.64 
L 348.832875 224.64 
L 348.832875 224.64 
L 343.843308 224.64 
z
" clip-path="url(#pe9d992669c)" style="fill: #1f77b4; fill-opacity: 0.5; stroke: #000000; stroke-width: 0.498957; stroke-linejoin: miter"/>
   </g>
   <g id="patch_63">
    <path d="M 348.832875 224.64 
L 353.822443 224.64 
L 353.822443 224.145762 
L 348.832875 224.145762 
z
" clip-path="url(#pe9d992669c)" style="fill: #1f77b4; fill-opacity: 0.5; stroke: #000000; stroke-width: 0.498957; stroke-linejoin: miter"/>
   </g>
   <g id="matplotlib.axis_1">
    <g id="xtick_1">
     <g id="line2d_1">
      <defs>
       <path id="m740401480f" d="M 0 0 
L 0 3.5 
" style="stroke: #000000; stroke-width: 0.8"/>
      </defs>
      <g>
       <use xlink:href="#m740401480f" x="81.890998" y="224.64" style="stroke: #000000; stroke-width: 0.8"/>
      </g>
     </g>
     <g id="text_1">
      <!-- 0 -->
      <g transform="translate(78.709748 239.238438)scale(0.1 -0.1)">
       <defs>
        <path id="DejaVuSans-30" d="M 2034 4250 
Q 1547 4250 1301 3770 
Q 1056 3291 1056 2328 
Q 1056 1369 1301 889 
Q 1547 409 2034 409 
Q 2525 409 2770 889 
Q 3016 1369 3016 2328 
Q 3016 3291 2770 3770 
Q 2525 4250 2034 4250 
z
M 2034 4750 
Q 2819 4750 3233 4129 
Q 3647 3509 3647 2328 
Q 3647 1150 3233 529 
Q 2819 -91 2034 -91 
Q 1250 -91 836 529 
Q 422 1150 422 2328 
Q 422 3509 836 4129 
Q 1250 4750 2034 4750 
z
" transform="scale(0.015625)"/>
       </defs>
       <use xlink:href="#DejaVuSans-30"/>
      </g>
     </g>
    </g>
    <g id="xtick_2">
     <g id="line2d_2">
      <g>
       <use xlink:href="#m740401480f" x="131.786676" y="224.64" style="stroke: #000000; stroke-width: 0.8"/>
      </g>
     </g>
     <g id="text_2">
      <!-- 10 -->
      <g transform="translate(125.424176 239.238438)scale(0.1 -0.1)">
       <defs>
        <path id="DejaVuSans-31" d="M 794 531 
L 1825 531 
L 1825 4091 
L 703 3866 
L 703 4441 
L 1819 4666 
L 2450 4666 
L 2450 531 
L 3481 531 
L 3481 0 
L 794 0 
L 794 531 
z
" transform="scale(0.015625)"/>
       </defs>
       <use xlink:href="#DejaVuSans-31"/>
       <use xlink:href="#DejaVuSans-30" x="63.623047"/>
      </g>
     </g>
    </g>
    <g id="xtick_3">
     <g id="line2d_3">
      <g>
       <use xlink:href="#m740401480f" x="181.682354" y="224.64" style="stroke: #000000; stroke-width: 0.8"/>
      </g>
     </g>
     <g id="text_3">
      <!-- 20 -->
      <g transform="translate(175.319854 239.238438)scale(0.1 -0.1)">
       <defs>
        <path id="DejaVuSans-32" d="M 1228 531 
L 3431 531 
L 3431 0 
L 469 0 
L 469 531 
Q 828 903 1448 1529 
Q 2069 2156 2228 2338 
Q 2531 2678 2651 2914 
Q 2772 3150 2772 3378 
Q 2772 3750 2511 3984 
Q 2250 4219 1831 4219 
Q 1534 4219 1204 4116 
Q 875 4013 500 3803 
L 500 4441 
Q 881 4594 1212 4672 
Q 1544 4750 1819 4750 
Q 2544 4750 2975 4387 
Q 3406 4025 3406 3419 
Q 3406 3131 3298 2873 
Q 3191 2616 2906 2266 
Q 2828 2175 2409 1742 
Q 1991 1309 1228 531 
z
" transform="scale(0.015625)"/>
       </defs>
       <use xlink:href="#DejaVuSans-32"/>
       <use xlink:href="#DejaVuSans-30" x="63.623047"/>
      </g>
     </g>
    </g>
    <g id="xtick_4">
     <g id="line2d_4">
      <g>
       <use xlink:href="#m740401480f" x="231.578032" y="224.64" style="stroke: #000000; stroke-width: 0.8"/>
      </g>
     </g>
     <g id="text_4">
      <!-- 30 -->
      <g transform="translate(225.215532 239.238438)scale(0.1 -0.1)">
       <defs>
        <path id="DejaVuSans-33" d="M 2597 2516 
Q 3050 2419 3304 2112 
Q 3559 1806 3559 1356 
Q 3559 666 3084 287 
Q 2609 -91 1734 -91 
Q 1441 -91 1130 -33 
Q 819 25 488 141 
L 488 750 
Q 750 597 1062 519 
Q 1375 441 1716 441 
Q 2309 441 2620 675 
Q 2931 909 2931 1356 
Q 2931 1769 2642 2001 
Q 2353 2234 1838 2234 
L 1294 2234 
L 1294 2753 
L 1863 2753 
Q 2328 2753 2575 2939 
Q 2822 3125 2822 3475 
Q 2822 3834 2567 4026 
Q 2313 4219 1838 4219 
Q 1578 4219 1281 4162 
Q 984 4106 628 3988 
L 628 4550 
Q 988 4650 1302 4700 
Q 1616 4750 1894 4750 
Q 2613 4750 3031 4423 
Q 3450 4097 3450 3541 
Q 3450 3153 3228 2886 
Q 3006 2619 2597 2516 
z
" transform="scale(0.015625)"/>
       </defs>
       <use xlink:href="#DejaVuSans-33"/>
       <use xlink:href="#DejaVuSans-30" x="63.623047"/>
      </g>
     </g>
    </g>
    <g id="xtick_5">
     <g id="line2d_5">
      <g>
       <use xlink:href="#m740401480f" x="281.47371" y="224.64" style="stroke: #000000; stroke-width: 0.8"/>
      </g>
     </g>
     <g id="text_5">
      <!-- 40 -->
      <g transform="translate(275.11121 239.238438)scale(0.1 -0.1)">
       <defs>
        <path id="DejaVuSans-34" d="M 2419 4116 
L 825 1625 
L 2419 1625 
L 2419 4116 
z
M 2253 4666 
L 3047 4666 
L 3047 1625 
L 3713 1625 
L 3713 1100 
L 3047 1100 
L 3047 0 
L 2419 0 
L 2419 1100 
L 313 1100 
L 313 1709 
L 2253 4666 
z
" transform="scale(0.015625)"/>
       </defs>
       <use xlink:href="#DejaVuSans-34"/>
       <use xlink:href="#DejaVuSans-30" x="63.623047"/>
      </g>
     </g>
    </g>
    <g id="xtick_6">
     <g id="line2d_6">
      <g>
       <use xlink:href="#m740401480f" x="331.369388" y="224.64" style="stroke: #000000; stroke-width: 0.8"/>
      </g>
     </g>
     <g id="text_6">
      <!-- 50 -->
      <g transform="translate(325.006888 239.238438)scale(0.1 -0.1)">
       <defs>
        <path id="DejaVuSans-35" d="M 691 4666 
L 3169 4666 
L 3169 4134 
L 1269 4134 
L 1269 2991 
Q 1406 3038 1543 3061 
Q 1681 3084 1819 3084 
Q 2600 3084 3056 2656 
Q 3513 2228 3513 1497 
Q 3513 744 3044 326 
Q 2575 -91 1722 -91 
Q 1428 -91 1123 -41 
Q 819 9 494 109 
L 494 744 
Q 775 591 1075 516 
Q 1375 441 1709 441 
Q 2250 441 2565 725 
Q 2881 1009 2881 1497 
Q 2881 1984 2565 2268 
Q 2250 2553 1709 2553 
Q 1456 2553 1204 2497 
Q 953 2441 691 2322 
L 691 4666 
z
" transform="scale(0.015625)"/>
       </defs>
       <use xlink:href="#DejaVuSans-35"/>
       <use xlink:href="#DejaVuSans-30" x="63.623047"/>
      </g>
     </g>
    </g>
    <g id="text_7">
     <!-- P_TOT_PTS -->
     <g transform="translate(174.339063 252.74)scale(0.1 -0.1)">
      <defs>
       <path id="DejaVuSans-50" d="M 1259 4147 
L 1259 2394 
L 2053 2394 
Q 2494 2394 2734 2622 
Q 2975 2850 2975 3272 
Q 2975 3691 2734 3919 
Q 2494 4147 2053 4147 
L 1259 4147 
z
M 628 4666 
L 2053 4666 
Q 2838 4666 3239 4311 
Q 3641 3956 3641 3272 
Q 3641 2581 3239 2228 
Q 2838 1875 2053 1875 
L 1259 1875 
L 1259 0 
L 628 0 
L 628 4666 
z
" transform="scale(0.015625)"/>
       <path id="DejaVuSans-5f" d="M 3263 -1063 
L 3263 -1509 
L -63 -1509 
L -63 -1063 
L 3263 -1063 
z
" transform="scale(0.015625)"/>
       <path id="DejaVuSans-54" d="M -19 4666 
L 3928 4666 
L 3928 4134 
L 2272 4134 
L 2272 0 
L 1638 0 
L 1638 4134 
L -19 4134 
L -19 4666 
z
" transform="scale(0.015625)"/>
       <path id="DejaVuSans-4f" d="M 2522 4238 
Q 1834 4238 1429 3725 
Q 1025 3213 1025 2328 
Q 1025 1447 1429 934 
Q 1834 422 2522 422 
Q 3209 422 3611 934 
Q 4013 1447 4013 2328 
Q 4013 3213 3611 3725 
Q 3209 4238 2522 4238 
z
M 2522 4750 
Q 3503 4750 4090 4092 
Q 4678 3434 4678 2328 
Q 4678 1225 4090 567 
Q 3503 -91 2522 -91 
Q 1538 -91 948 565 
Q 359 1222 359 2328 
Q 359 3434 948 4092 
Q 1538 4750 2522 4750 
z
" transform="scale(0.015625)"/>
       <path id="DejaVuSans-53" d="M 3425 4513 
L 3425 3897 
Q 3066 4069 2747 4153 
Q 2428 4238 2131 4238 
Q 1616 4238 1336 4038 
Q 1056 3838 1056 3469 
Q 1056 3159 1242 3001 
Q 1428 2844 1947 2747 
L 2328 2669 
Q 3034 2534 3370 2195 
Q 3706 1856 3706 1288 
Q 3706 609 3251 259 
Q 2797 -91 1919 -91 
Q 1588 -91 1214 -16 
Q 841 59 441 206 
L 441 856 
Q 825 641 1194 531 
Q 1563 422 1919 422 
Q 2459 422 2753 634 
Q 3047 847 3047 1241 
Q 3047 1584 2836 1778 
Q 2625 1972 2144 2069 
L 1759 2144 
Q 1053 2284 737 2584 
Q 422 2884 422 3419 
Q 422 4038 858 4394 
Q 1294 4750 2059 4750 
Q 2388 4750 2728 4690 
Q 3069 4631 3425 4513 
z
" transform="scale(0.015625)"/>
      </defs>
      <use xlink:href="#DejaVuSans-50"/>
      <use xlink:href="#DejaVuSans-5f" x="60.302734"/>
      <use xlink:href="#DejaVuSans-54" x="110.302734"/>
      <use xlink:href="#DejaVuSans-4f" x="171.386719"/>
      <use xlink:href="#DejaVuSans-54" x="250.097656"/>
      <use xlink:href="#DejaVuSans-5f" x="311.181641"/>
      <use xlink:href="#DejaVuSans-50" x="361.181641"/>
      <use xlink:href="#DejaVuSans-54" x="421.484375"/>
      <use xlink:href="#DejaVuSans-53" x="482.568359"/>
     </g>
    </g>
   </g>
   <g id="matplotlib.axis_2">
    <g id="ytick_1">
     <g id="line2d_7">
      <defs>
       <path id="mccfaa85f43" d="M 0 0 
L -3.5 0 
" style="stroke: #000000; stroke-width: 0.8"/>
      </defs>
      <g>
       <use xlink:href="#mccfaa85f43" x="34.240625" y="224.64" style="stroke: #000000; stroke-width: 0.8"/>
      </g>
     </g>
     <g id="text_8">
      <!-- 0 -->
      <g transform="translate(20.878125 228.439219)scale(0.1 -0.1)">
       <use xlink:href="#DejaVuSans-30"/>
      </g>
     </g>
    </g>
    <g id="ytick_2">
     <g id="line2d_8">
      <g>
       <use xlink:href="#mccfaa85f43" x="34.240625" y="196.824286" style="stroke: #000000; stroke-width: 0.8"/>
      </g>
     </g>
     <g id="text_9">
      <!-- 1 -->
      <g transform="translate(20.878125 200.623505)scale(0.1 -0.1)">
       <use xlink:href="#DejaVuSans-31"/>
      </g>
     </g>
    </g>
    <g id="ytick_3">
     <g id="line2d_9">
      <g>
       <use xlink:href="#mccfaa85f43" x="34.240625" y="169.008573" style="stroke: #000000; stroke-width: 0.8"/>
      </g>
     </g>
     <g id="text_10">
      <!-- 2 -->
      <g transform="translate(20.878125 172.807792)scale(0.1 -0.1)">
       <use xlink:href="#DejaVuSans-32"/>
      </g>
     </g>
    </g>
    <g id="ytick_4">
     <g id="line2d_10">
      <g>
       <use xlink:href="#mccfaa85f43" x="34.240625" y="141.192859" style="stroke: #000000; stroke-width: 0.8"/>
      </g>
     </g>
     <g id="text_11">
      <!-- 3 -->
      <g transform="translate(20.878125 144.992078)scale(0.1 -0.1)">
       <use xlink:href="#DejaVuSans-33"/>
      </g>
     </g>
    </g>
    <g id="ytick_5">
     <g id="line2d_11">
      <g>
       <use xlink:href="#mccfaa85f43" x="34.240625" y="113.377146" style="stroke: #000000; stroke-width: 0.8"/>
      </g>
     </g>
     <g id="text_12">
      <!-- 4 -->
      <g transform="translate(20.878125 117.176364)scale(0.1 -0.1)">
       <use xlink:href="#DejaVuSans-34"/>
      </g>
     </g>
    </g>
    <g id="ytick_6">
     <g id="line2d_12">
      <g>
       <use xlink:href="#mccfaa85f43" x="34.240625" y="85.561432" style="stroke: #000000; stroke-width: 0.8"/>
      </g>
     </g>
     <g id="text_13">
      <!-- 5 -->
      <g transform="translate(20.878125 89.360651)scale(0.1 -0.1)">
       <use xlink:href="#DejaVuSans-35"/>
      </g>
     </g>
    </g>
    <g id="ytick_7">
     <g id="line2d_13">
      <g>
       <use xlink:href="#mccfaa85f43" x="34.240625" y="57.745718" style="stroke: #000000; stroke-width: 0.8"/>
      </g>
     </g>
     <g id="text_14">
      <!-- 6 -->
      <g transform="translate(20.878125 61.544937)scale(0.1 -0.1)">
       <defs>
        <path id="DejaVuSans-36" d="M 2113 2584 
Q 1688 2584 1439 2293 
Q 1191 2003 1191 1497 
Q 1191 994 1439 701 
Q 1688 409 2113 409 
Q 2538 409 2786 701 
Q 3034 994 3034 1497 
Q 3034 2003 2786 2293 
Q 2538 2584 2113 2584 
z
M 3366 4563 
L 3366 3988 
Q 3128 4100 2886 4159 
Q 2644 4219 2406 4219 
Q 1781 4219 1451 3797 
Q 1122 3375 1075 2522 
Q 1259 2794 1537 2939 
Q 1816 3084 2150 3084 
Q 2853 3084 3261 2657 
Q 3669 2231 3669 1497 
Q 3669 778 3244 343 
Q 2819 -91 2113 -91 
Q 1303 -91 875 529 
Q 447 1150 447 2328 
Q 447 3434 972 4092 
Q 1497 4750 2381 4750 
Q 2619 4750 2861 4703 
Q 3103 4656 3366 4563 
z
" transform="scale(0.015625)"/>
       </defs>
       <use xlink:href="#DejaVuSans-36"/>
      </g>
     </g>
    </g>
    <g id="ytick_8">
     <g id="line2d_14">
      <g>
       <use xlink:href="#mccfaa85f43" x="34.240625" y="29.930005" style="stroke: #000000; stroke-width: 0.8"/>
      </g>
     </g>
     <g id="text_15">
      <!-- 7 -->
      <g transform="translate(20.878125 33.729224)scale(0.1 -0.1)">
       <defs>
        <path id="DejaVuSans-37" d="M 525 4666 
L 3525 4666 
L 3525 4397 
L 1831 0 
L 1172 0 
L 2766 4134 
L 525 4134 
L 525 4666 
z
" transform="scale(0.015625)"/>
       </defs>
       <use xlink:href="#DejaVuSans-37"/>
      </g>
     </g>
    </g>
    <g id="text_16">
     <!-- Percent -->
     <g transform="translate(14.798437 134.727813)rotate(-90)scale(0.1 -0.1)">
      <defs>
       <path id="DejaVuSans-65" d="M 3597 1894 
L 3597 1613 
L 953 1613 
Q 991 1019 1311 708 
Q 1631 397 2203 397 
Q 2534 397 2845 478 
Q 3156 559 3463 722 
L 3463 178 
Q 3153 47 2828 -22 
Q 2503 -91 2169 -91 
Q 1331 -91 842 396 
Q 353 884 353 1716 
Q 353 2575 817 3079 
Q 1281 3584 2069 3584 
Q 2775 3584 3186 3129 
Q 3597 2675 3597 1894 
z
M 3022 2063 
Q 3016 2534 2758 2815 
Q 2500 3097 2075 3097 
Q 1594 3097 1305 2825 
Q 1016 2553 972 2059 
L 3022 2063 
z
" transform="scale(0.015625)"/>
       <path id="DejaVuSans-72" d="M 2631 2963 
Q 2534 3019 2420 3045 
Q 2306 3072 2169 3072 
Q 1681 3072 1420 2755 
Q 1159 2438 1159 1844 
L 1159 0 
L 581 0 
L 581 3500 
L 1159 3500 
L 1159 2956 
Q 1341 3275 1631 3429 
Q 1922 3584 2338 3584 
Q 2397 3584 2469 3576 
Q 2541 3569 2628 3553 
L 2631 2963 
z
" transform="scale(0.015625)"/>
       <path id="DejaVuSans-63" d="M 3122 3366 
L 3122 2828 
Q 2878 2963 2633 3030 
Q 2388 3097 2138 3097 
Q 1578 3097 1268 2742 
Q 959 2388 959 1747 
Q 959 1106 1268 751 
Q 1578 397 2138 397 
Q 2388 397 2633 464 
Q 2878 531 3122 666 
L 3122 134 
Q 2881 22 2623 -34 
Q 2366 -91 2075 -91 
Q 1284 -91 818 406 
Q 353 903 353 1747 
Q 353 2603 823 3093 
Q 1294 3584 2113 3584 
Q 2378 3584 2631 3529 
Q 2884 3475 3122 3366 
z
" transform="scale(0.015625)"/>
       <path id="DejaVuSans-6e" d="M 3513 2113 
L 3513 0 
L 2938 0 
L 2938 2094 
Q 2938 2591 2744 2837 
Q 2550 3084 2163 3084 
Q 1697 3084 1428 2787 
Q 1159 2491 1159 1978 
L 1159 0 
L 581 0 
L 581 3500 
L 1159 3500 
L 1159 2956 
Q 1366 3272 1645 3428 
Q 1925 3584 2291 3584 
Q 2894 3584 3203 3211 
Q 3513 2838 3513 2113 
z
" transform="scale(0.015625)"/>
       <path id="DejaVuSans-74" d="M 1172 4494 
L 1172 3500 
L 2356 3500 
L 2356 3053 
L 1172 3053 
L 1172 1153 
Q 1172 725 1289 603 
Q 1406 481 1766 481 
L 2356 481 
L 2356 0 
L 1766 0 
Q 1100 0 847 248 
Q 594 497 594 1153 
L 594 3053 
L 172 3053 
L 172 3500 
L 594 3500 
L 594 4494 
L 1172 4494 
z
" transform="scale(0.015625)"/>
      </defs>
      <use xlink:href="#DejaVuSans-50"/>
      <use xlink:href="#DejaVuSans-65" x="56.677734"/>
      <use xlink:href="#DejaVuSans-72" x="118.201172"/>
      <use xlink:href="#DejaVuSans-63" x="157.064453"/>
      <use xlink:href="#DejaVuSans-65" x="212.044922"/>
      <use xlink:href="#DejaVuSans-6e" x="273.568359"/>
      <use xlink:href="#DejaVuSans-74" x="336.947266"/>
     </g>
    </g>
   </g>
   <g id="line2d_15">
    <path d="M 51.953591 223.580351 
L 54.962375 223.112973 
L 56.466768 222.766633 
L 57.97116 222.304298 
L 59.475552 221.696218 
L 60.979945 220.92151 
L 62.484337 219.975537 
L 65.493121 217.661434 
L 70.006298 213.932436 
L 73.015083 211.795803 
L 76.023868 209.713761 
L 77.52826 208.453688 
L 79.032652 206.890796 
L 80.537045 204.918898 
L 82.041437 202.45425 
L 83.545829 199.438548 
L 85.050221 195.837166 
L 86.554614 191.636556 
L 88.059006 186.843802 
L 89.563398 181.488648 
L 92.572183 169.332482 
L 95.580968 155.848421 
L 101.598537 128.370549 
L 103.102929 122.132339 
L 104.607321 116.435711 
L 106.111714 111.394232 
L 107.616106 107.054293 
L 109.120498 103.373115 
L 110.624891 100.222467 
L 113.633675 94.793901 
L 118.146852 87.208402 
L 119.651244 84.978702 
L 121.155637 83.123352 
L 122.660029 81.750379 
L 124.164421 80.897068 
L 125.668814 80.525834 
L 127.173206 80.544314 
L 128.677598 80.836258 
L 134.695167 82.673702 
L 136.19956 82.887229 
L 137.703952 82.879962 
L 139.208344 82.64653 
L 143.721521 81.499805 
L 145.225914 81.517162 
L 146.730306 82.000841 
L 148.234698 83.016324 
L 149.739091 84.538635 
L 151.243483 86.472105 
L 154.252267 91.093221 
L 157.261052 96.258346 
L 160.269837 102.019337 
L 163.278621 108.479218 
L 170.800583 125.161108 
L 178.322544 140.951032 
L 182.835721 149.839775 
L 187.348898 158.168863 
L 190.357683 163.326255 
L 193.366467 168.018137 
L 205.401606 185.522924 
L 208.41039 189.371187 
L 211.419175 192.594643 
L 214.42796 195.209523 
L 217.436744 197.283781 
L 220.445529 198.963061 
L 224.958706 201.361994 
L 227.96749 203.268529 
L 230.976275 205.47614 
L 236.993844 210.074917 
L 240.002629 212.097159 
L 243.011413 213.825746 
L 246.020198 215.278455 
L 249.028983 216.493399 
L 252.037767 217.479164 
L 255.046552 218.220668 
L 258.055336 218.735995 
L 267.08169 219.985487 
L 279.116829 222.244609 
L 282.125613 222.46565 
L 286.63879 222.51617 
L 297.169536 222.480519 
L 301.682713 222.666365 
L 307.700282 223.170987 
L 318.231029 224.179676 
L 324.248598 224.49469 
L 331.770559 224.620862 
L 343.805698 224.561174 
L 351.327659 224.498 
L 351.327659 224.498 
" clip-path="url(#pe9d992669c)" style="fill: none; stroke: #1f77b4; stroke-width: 1.5; stroke-linecap: square"/>
   </g>
   <g id="line2d_16">
    <path d="M 147.844077 224.64 
L 147.844077 7.2 
" clip-path="url(#pe9d992669c)" style="fill: none; stroke: #ff0000; stroke-width: 1.5; stroke-linecap: square"/>
   </g>
   <g id="patch_64">
    <path d="M 34.240625 224.64 
L 34.240625 7.2 
" style="fill: none; stroke: #000000; stroke-width: 0.8; stroke-linejoin: miter; stroke-linecap: square"/>
   </g>
   <g id="patch_65">
    <path d="M 369.040625 224.64 
L 369.040625 7.2 
" style="fill: none; stroke: #000000; stroke-width: 0.8; stroke-linejoin: miter; stroke-linecap: square"/>
   </g>
   <g id="patch_66">
    <path d="M 34.240625 224.64 
L 369.040625 224.64 
" style="fill: none; stroke: #000000; stroke-width: 0.8; stroke-linejoin: miter; stroke-linecap: square"/>
   </g>
   <g id="patch_67">
    <path d="M 34.240625 7.2 
L 369.040625 7.2 
" style="fill: none; stroke: #000000; stroke-width: 0.8; stroke-linejoin: miter; stroke-linecap: square"/>
   </g>
  </g>
 </g>
 <defs>
  <clipPath id="pe9d992669c">
   <rect x="34.240625" y="7.2" width="334.8" height="217.44"/>
  </clipPath>
 </defs>
</svg>
