<?xml version="1.0" encoding="utf-8" standalone="no"?>
<!DOCTYPE svg PUBLIC "-//W3C//DTD SVG 1.1//EN"
  "http://www.w3.org/Graphics/SVG/1.1/DTD/svg11.dtd">
<svg xmlns:xlink="http://www.w3.org/1999/xlink" width="1395.170625pt" height="624.622187pt" viewBox="0 0 1395.170625 624.622187" xmlns="http://www.w3.org/2000/svg" version="1.1">
 <metadata>
  <rdf:RDF xmlns:dc="http://purl.org/dc/elements/1.1/" xmlns:cc="http://creativecommons.org/ns#" xmlns:rdf="http://www.w3.org/1999/02/22-rdf-syntax-ns#">
   <cc:Work>
    <dc:type rdf:resource="http://purl.org/dc/dcmitype/StillImage"/>
    <dc:date>2022-12-05T19:20:32.174391</dc:date>
    <dc:format>image/svg+xml</dc:format>
    <dc:creator>
     <cc:Agent>
      <dc:title>Matplotlib v3.5.3, https://matplotlib.org/</dc:title>
     </cc:Agent>
    </dc:creator>
   </cc:Work>
  </rdf:RDF>
 </metadata>
 <defs>
  <style type="text/css">*{stroke-linejoin: round; stroke-linecap: butt}</style>
 </defs>
 <g id="figure_1">
  <g id="patch_1">
   <path d="M -0 624.622187 
L 1395.170625 624.622187 
L 1395.170625 0 
L -0 0 
L -0 624.622187 
z
" style="fill: none"/>
  </g>
  <g id="axes_1">
   <g id="patch_2">
    <path d="M 71.245625 573.516562 
L 1187.245625 573.516562 
L 1187.245625 29.916562 
L 71.245625 29.916562 
z
" style="fill: #ffffff"/>
   </g>
   <g id="matplotlib.axis_1">
    <g id="xtick_1">
     <g id="line2d_1">
      <defs>
       <path id="m7de330dcfe" d="M 0 0 
L 0 3.5 
" style="stroke: #000000; stroke-width: 0.8"/>
      </defs>
      <g>
       <use xlink:href="#m7de330dcfe" x="121.972898" y="573.516562" style="stroke: #000000; stroke-width: 0.8"/>
      </g>
     </g>
     <g id="text_1">
      <!-- 0 -->
      <g transform="translate(116.882898 592.674062)scale(0.16 -0.16)">
       <defs>
        <path id="DejaVuSans-30" d="M 2034 4250 
Q 1547 4250 1301 3770 
Q 1056 3291 1056 2328 
Q 1056 1369 1301 889 
Q 1547 409 2034 409 
Q 2525 409 2770 889 
Q 3016 1369 3016 2328 
Q 3016 3291 2770 3770 
Q 2525 4250 2034 4250 
z
M 2034 4750 
Q 2819 4750 3233 4129 
Q 3647 3509 3647 2328 
Q 3647 1150 3233 529 
Q 2819 -91 2034 -91 
Q 1250 -91 836 529 
Q 422 1150 422 2328 
Q 422 3509 836 4129 
Q 1250 4750 2034 4750 
z
" transform="scale(0.015625)"/>
       </defs>
       <use xlink:href="#DejaVuSans-30"/>
      </g>
     </g>
    </g>
    <g id="xtick_2">
     <g id="line2d_2">
      <g>
       <use xlink:href="#m7de330dcfe" x="320.514083" y="573.516562" style="stroke: #000000; stroke-width: 0.8"/>
      </g>
     </g>
     <g id="text_2">
      <!-- 100 -->
      <g transform="translate(305.244083 592.674062)scale(0.16 -0.16)">
       <defs>
        <path id="DejaVuSans-31" d="M 794 531 
L 1825 531 
L 1825 4091 
L 703 3866 
L 703 4441 
L 1819 4666 
L 2450 4666 
L 2450 531 
L 3481 531 
L 3481 0 
L 794 0 
L 794 531 
z
" transform="scale(0.015625)"/>
       </defs>
       <use xlink:href="#DejaVuSans-31"/>
       <use xlink:href="#DejaVuSans-30" x="63.623047"/>
       <use xlink:href="#DejaVuSans-30" x="127.246094"/>
      </g>
     </g>
    </g>
    <g id="xtick_3">
     <g id="line2d_3">
      <g>
       <use xlink:href="#m7de330dcfe" x="519.055267" y="573.516562" style="stroke: #000000; stroke-width: 0.8"/>
      </g>
     </g>
     <g id="text_3">
      <!-- 200 -->
      <g transform="translate(503.785267 592.674062)scale(0.16 -0.16)">
       <defs>
        <path id="DejaVuSans-32" d="M 1228 531 
L 3431 531 
L 3431 0 
L 469 0 
L 469 531 
Q 828 903 1448 1529 
Q 2069 2156 2228 2338 
Q 2531 2678 2651 2914 
Q 2772 3150 2772 3378 
Q 2772 3750 2511 3984 
Q 2250 4219 1831 4219 
Q 1534 4219 1204 4116 
Q 875 4013 500 3803 
L 500 4441 
Q 881 4594 1212 4672 
Q 1544 4750 1819 4750 
Q 2544 4750 2975 4387 
Q 3406 4025 3406 3419 
Q 3406 3131 3298 2873 
Q 3191 2616 2906 2266 
Q 2828 2175 2409 1742 
Q 1991 1309 1228 531 
z
" transform="scale(0.015625)"/>
       </defs>
       <use xlink:href="#DejaVuSans-32"/>
       <use xlink:href="#DejaVuSans-30" x="63.623047"/>
       <use xlink:href="#DejaVuSans-30" x="127.246094"/>
      </g>
     </g>
    </g>
    <g id="xtick_4">
     <g id="line2d_4">
      <g>
       <use xlink:href="#m7de330dcfe" x="717.596452" y="573.516562" style="stroke: #000000; stroke-width: 0.8"/>
      </g>
     </g>
     <g id="text_4">
      <!-- 300 -->
      <g transform="translate(702.326452 592.674062)scale(0.16 -0.16)">
       <defs>
        <path id="DejaVuSans-33" d="M 2597 2516 
Q 3050 2419 3304 2112 
Q 3559 1806 3559 1356 
Q 3559 666 3084 287 
Q 2609 -91 1734 -91 
Q 1441 -91 1130 -33 
Q 819 25 488 141 
L 488 750 
Q 750 597 1062 519 
Q 1375 441 1716 441 
Q 2309 441 2620 675 
Q 2931 909 2931 1356 
Q 2931 1769 2642 2001 
Q 2353 2234 1838 2234 
L 1294 2234 
L 1294 2753 
L 1863 2753 
Q 2328 2753 2575 2939 
Q 2822 3125 2822 3475 
Q 2822 3834 2567 4026 
Q 2313 4219 1838 4219 
Q 1578 4219 1281 4162 
Q 984 4106 628 3988 
L 628 4550 
Q 988 4650 1302 4700 
Q 1616 4750 1894 4750 
Q 2613 4750 3031 4423 
Q 3450 4097 3450 3541 
Q 3450 3153 3228 2886 
Q 3006 2619 2597 2516 
z
" transform="scale(0.015625)"/>
       </defs>
       <use xlink:href="#DejaVuSans-33"/>
       <use xlink:href="#DejaVuSans-30" x="63.623047"/>
       <use xlink:href="#DejaVuSans-30" x="127.246094"/>
      </g>
     </g>
    </g>
    <g id="xtick_5">
     <g id="line2d_5">
      <g>
       <use xlink:href="#m7de330dcfe" x="916.137637" y="573.516562" style="stroke: #000000; stroke-width: 0.8"/>
      </g>
     </g>
     <g id="text_5">
      <!-- 400 -->
      <g transform="translate(900.867637 592.674062)scale(0.16 -0.16)">
       <defs>
        <path id="DejaVuSans-34" d="M 2419 4116 
L 825 1625 
L 2419 1625 
L 2419 4116 
z
M 2253 4666 
L 3047 4666 
L 3047 1625 
L 3713 1625 
L 3713 1100 
L 3047 1100 
L 3047 0 
L 2419 0 
L 2419 1100 
L 313 1100 
L 313 1709 
L 2253 4666 
z
" transform="scale(0.015625)"/>
       </defs>
       <use xlink:href="#DejaVuSans-34"/>
       <use xlink:href="#DejaVuSans-30" x="63.623047"/>
       <use xlink:href="#DejaVuSans-30" x="127.246094"/>
      </g>
     </g>
    </g>
    <g id="xtick_6">
     <g id="line2d_6">
      <g>
       <use xlink:href="#m7de330dcfe" x="1114.678822" y="573.516562" style="stroke: #000000; stroke-width: 0.8"/>
      </g>
     </g>
     <g id="text_6">
      <!-- 500 -->
      <g transform="translate(1099.408822 592.674062)scale(0.16 -0.16)">
       <defs>
        <path id="DejaVuSans-35" d="M 691 4666 
L 3169 4666 
L 3169 4134 
L 1269 4134 
L 1269 2991 
Q 1406 3038 1543 3061 
Q 1681 3084 1819 3084 
Q 2600 3084 3056 2656 
Q 3513 2228 3513 1497 
Q 3513 744 3044 326 
Q 2575 -91 1722 -91 
Q 1428 -91 1123 -41 
Q 819 9 494 109 
L 494 744 
Q 775 591 1075 516 
Q 1375 441 1709 441 
Q 2250 441 2565 725 
Q 2881 1009 2881 1497 
Q 2881 1984 2565 2268 
Q 2250 2553 1709 2553 
Q 1456 2553 1204 2497 
Q 953 2441 691 2322 
L 691 4666 
z
" transform="scale(0.015625)"/>
       </defs>
       <use xlink:href="#DejaVuSans-35"/>
       <use xlink:href="#DejaVuSans-30" x="63.623047"/>
       <use xlink:href="#DejaVuSans-30" x="127.246094"/>
      </g>
     </g>
    </g>
    <g id="text_7">
     <!-- Games -->
     <g transform="translate(597.763906 613.67875)scale(0.18 -0.18)">
      <defs>
       <path id="DejaVuSans-47" d="M 3809 666 
L 3809 1919 
L 2778 1919 
L 2778 2438 
L 4434 2438 
L 4434 434 
Q 4069 175 3628 42 
Q 3188 -91 2688 -91 
Q 1594 -91 976 548 
Q 359 1188 359 2328 
Q 359 3472 976 4111 
Q 1594 4750 2688 4750 
Q 3144 4750 3555 4637 
Q 3966 4525 4313 4306 
L 4313 3634 
Q 3963 3931 3569 4081 
Q 3175 4231 2741 4231 
Q 1884 4231 1454 3753 
Q 1025 3275 1025 2328 
Q 1025 1384 1454 906 
Q 1884 428 2741 428 
Q 3075 428 3337 486 
Q 3600 544 3809 666 
z
" transform="scale(0.015625)"/>
       <path id="DejaVuSans-61" d="M 2194 1759 
Q 1497 1759 1228 1600 
Q 959 1441 959 1056 
Q 959 750 1161 570 
Q 1363 391 1709 391 
Q 2188 391 2477 730 
Q 2766 1069 2766 1631 
L 2766 1759 
L 2194 1759 
z
M 3341 1997 
L 3341 0 
L 2766 0 
L 2766 531 
Q 2569 213 2275 61 
Q 1981 -91 1556 -91 
Q 1019 -91 701 211 
Q 384 513 384 1019 
Q 384 1609 779 1909 
Q 1175 2209 1959 2209 
L 2766 2209 
L 2766 2266 
Q 2766 2663 2505 2880 
Q 2244 3097 1772 3097 
Q 1472 3097 1187 3025 
Q 903 2953 641 2809 
L 641 3341 
Q 956 3463 1253 3523 
Q 1550 3584 1831 3584 
Q 2591 3584 2966 3190 
Q 3341 2797 3341 1997 
z
" transform="scale(0.015625)"/>
       <path id="DejaVuSans-6d" d="M 3328 2828 
Q 3544 3216 3844 3400 
Q 4144 3584 4550 3584 
Q 5097 3584 5394 3201 
Q 5691 2819 5691 2113 
L 5691 0 
L 5113 0 
L 5113 2094 
Q 5113 2597 4934 2840 
Q 4756 3084 4391 3084 
Q 3944 3084 3684 2787 
Q 3425 2491 3425 1978 
L 3425 0 
L 2847 0 
L 2847 2094 
Q 2847 2600 2669 2842 
Q 2491 3084 2119 3084 
Q 1678 3084 1418 2786 
Q 1159 2488 1159 1978 
L 1159 0 
L 581 0 
L 581 3500 
L 1159 3500 
L 1159 2956 
Q 1356 3278 1631 3431 
Q 1906 3584 2284 3584 
Q 2666 3584 2933 3390 
Q 3200 3197 3328 2828 
z
" transform="scale(0.015625)"/>
       <path id="DejaVuSans-65" d="M 3597 1894 
L 3597 1613 
L 953 1613 
Q 991 1019 1311 708 
Q 1631 397 2203 397 
Q 2534 397 2845 478 
Q 3156 559 3463 722 
L 3463 178 
Q 3153 47 2828 -22 
Q 2503 -91 2169 -91 
Q 1331 -91 842 396 
Q 353 884 353 1716 
Q 353 2575 817 3079 
Q 1281 3584 2069 3584 
Q 2775 3584 3186 3129 
Q 3597 2675 3597 1894 
z
M 3022 2063 
Q 3016 2534 2758 2815 
Q 2500 3097 2075 3097 
Q 1594 3097 1305 2825 
Q 1016 2553 972 2059 
L 3022 2063 
z
" transform="scale(0.015625)"/>
       <path id="DejaVuSans-73" d="M 2834 3397 
L 2834 2853 
Q 2591 2978 2328 3040 
Q 2066 3103 1784 3103 
Q 1356 3103 1142 2972 
Q 928 2841 928 2578 
Q 928 2378 1081 2264 
Q 1234 2150 1697 2047 
L 1894 2003 
Q 2506 1872 2764 1633 
Q 3022 1394 3022 966 
Q 3022 478 2636 193 
Q 2250 -91 1575 -91 
Q 1294 -91 989 -36 
Q 684 19 347 128 
L 347 722 
Q 666 556 975 473 
Q 1284 391 1588 391 
Q 1994 391 2212 530 
Q 2431 669 2431 922 
Q 2431 1156 2273 1281 
Q 2116 1406 1581 1522 
L 1381 1569 
Q 847 1681 609 1914 
Q 372 2147 372 2553 
Q 372 3047 722 3315 
Q 1072 3584 1716 3584 
Q 2034 3584 2315 3537 
Q 2597 3491 2834 3397 
z
" transform="scale(0.015625)"/>
      </defs>
      <use xlink:href="#DejaVuSans-47"/>
      <use xlink:href="#DejaVuSans-61" x="77.490234"/>
      <use xlink:href="#DejaVuSans-6d" x="138.769531"/>
      <use xlink:href="#DejaVuSans-65" x="236.181641"/>
      <use xlink:href="#DejaVuSans-73" x="297.705078"/>
     </g>
    </g>
   </g>
   <g id="matplotlib.axis_2">
    <g id="ytick_1">
     <g id="line2d_7">
      <defs>
       <path id="md42d901f2a" d="M 0 0 
L -3.5 0 
" style="stroke: #000000; stroke-width: 0.8"/>
      </defs>
      <g>
       <use xlink:href="#md42d901f2a" x="71.245625" y="496.234938" style="stroke: #000000; stroke-width: 0.8"/>
      </g>
     </g>
     <g id="text_8">
      <!-- 0.0 -->
      <g transform="translate(38.800625 502.313688)scale(0.16 -0.16)">
       <defs>
        <path id="DejaVuSans-2e" d="M 684 794 
L 1344 794 
L 1344 0 
L 684 0 
L 684 794 
z
" transform="scale(0.015625)"/>
       </defs>
       <use xlink:href="#DejaVuSans-30"/>
       <use xlink:href="#DejaVuSans-2e" x="63.623047"/>
       <use xlink:href="#DejaVuSans-30" x="95.410156"/>
      </g>
     </g>
    </g>
    <g id="ytick_2">
     <g id="line2d_8">
      <g>
       <use xlink:href="#md42d901f2a" x="71.245625" y="391.08987" style="stroke: #000000; stroke-width: 0.8"/>
      </g>
     </g>
     <g id="text_9">
      <!-- 10.0 -->
      <g transform="translate(28.620625 397.16862)scale(0.16 -0.16)">
       <use xlink:href="#DejaVuSans-31"/>
       <use xlink:href="#DejaVuSans-30" x="63.623047"/>
       <use xlink:href="#DejaVuSans-2e" x="127.246094"/>
       <use xlink:href="#DejaVuSans-30" x="159.033203"/>
      </g>
     </g>
    </g>
    <g id="ytick_3">
     <g id="line2d_9">
      <g>
       <use xlink:href="#md42d901f2a" x="71.245625" y="285.944802" style="stroke: #000000; stroke-width: 0.8"/>
      </g>
     </g>
     <g id="text_10">
      <!-- 20.0 -->
      <g transform="translate(28.620625 292.023552)scale(0.16 -0.16)">
       <use xlink:href="#DejaVuSans-32"/>
       <use xlink:href="#DejaVuSans-30" x="63.623047"/>
       <use xlink:href="#DejaVuSans-2e" x="127.246094"/>
       <use xlink:href="#DejaVuSans-30" x="159.033203"/>
      </g>
     </g>
    </g>
    <g id="ytick_4">
     <g id="line2d_10">
      <g>
       <use xlink:href="#md42d901f2a" x="71.245625" y="180.799735" style="stroke: #000000; stroke-width: 0.8"/>
      </g>
     </g>
     <g id="text_11">
      <!-- 30.0 -->
      <g transform="translate(28.620625 186.878485)scale(0.16 -0.16)">
       <use xlink:href="#DejaVuSans-33"/>
       <use xlink:href="#DejaVuSans-30" x="63.623047"/>
       <use xlink:href="#DejaVuSans-2e" x="127.246094"/>
       <use xlink:href="#DejaVuSans-30" x="159.033203"/>
      </g>
     </g>
    </g>
    <g id="ytick_5">
     <g id="line2d_11">
      <g>
       <use xlink:href="#md42d901f2a" x="71.245625" y="75.654667" style="stroke: #000000; stroke-width: 0.8"/>
      </g>
     </g>
     <g id="text_12">
      <!-- 40.0 -->
      <g transform="translate(28.620625 81.733417)scale(0.16 -0.16)">
       <use xlink:href="#DejaVuSans-34"/>
       <use xlink:href="#DejaVuSans-30" x="63.623047"/>
       <use xlink:href="#DejaVuSans-2e" x="127.246094"/>
       <use xlink:href="#DejaVuSans-30" x="159.033203"/>
      </g>
     </g>
    </g>
    <g id="text_13">
     <!-- Fantasy points -->
     <g transform="translate(20.877188 366.85125)rotate(-90)scale(0.18 -0.18)">
      <defs>
       <path id="DejaVuSans-46" d="M 628 4666 
L 3309 4666 
L 3309 4134 
L 1259 4134 
L 1259 2759 
L 3109 2759 
L 3109 2228 
L 1259 2228 
L 1259 0 
L 628 0 
L 628 4666 
z
" transform="scale(0.015625)"/>
       <path id="DejaVuSans-6e" d="M 3513 2113 
L 3513 0 
L 2938 0 
L 2938 2094 
Q 2938 2591 2744 2837 
Q 2550 3084 2163 3084 
Q 1697 3084 1428 2787 
Q 1159 2491 1159 1978 
L 1159 0 
L 581 0 
L 581 3500 
L 1159 3500 
L 1159 2956 
Q 1366 3272 1645 3428 
Q 1925 3584 2291 3584 
Q 2894 3584 3203 3211 
Q 3513 2838 3513 2113 
z
" transform="scale(0.015625)"/>
       <path id="DejaVuSans-74" d="M 1172 4494 
L 1172 3500 
L 2356 3500 
L 2356 3053 
L 1172 3053 
L 1172 1153 
Q 1172 725 1289 603 
Q 1406 481 1766 481 
L 2356 481 
L 2356 0 
L 1766 0 
Q 1100 0 847 248 
Q 594 497 594 1153 
L 594 3053 
L 172 3053 
L 172 3500 
L 594 3500 
L 594 4494 
L 1172 4494 
z
" transform="scale(0.015625)"/>
       <path id="DejaVuSans-79" d="M 2059 -325 
Q 1816 -950 1584 -1140 
Q 1353 -1331 966 -1331 
L 506 -1331 
L 506 -850 
L 844 -850 
Q 1081 -850 1212 -737 
Q 1344 -625 1503 -206 
L 1606 56 
L 191 3500 
L 800 3500 
L 1894 763 
L 2988 3500 
L 3597 3500 
L 2059 -325 
z
" transform="scale(0.015625)"/>
       <path id="DejaVuSans-20" transform="scale(0.015625)"/>
       <path id="DejaVuSans-70" d="M 1159 525 
L 1159 -1331 
L 581 -1331 
L 581 3500 
L 1159 3500 
L 1159 2969 
Q 1341 3281 1617 3432 
Q 1894 3584 2278 3584 
Q 2916 3584 3314 3078 
Q 3713 2572 3713 1747 
Q 3713 922 3314 415 
Q 2916 -91 2278 -91 
Q 1894 -91 1617 61 
Q 1341 213 1159 525 
z
M 3116 1747 
Q 3116 2381 2855 2742 
Q 2594 3103 2138 3103 
Q 1681 3103 1420 2742 
Q 1159 2381 1159 1747 
Q 1159 1113 1420 752 
Q 1681 391 2138 391 
Q 2594 391 2855 752 
Q 3116 1113 3116 1747 
z
" transform="scale(0.015625)"/>
       <path id="DejaVuSans-6f" d="M 1959 3097 
Q 1497 3097 1228 2736 
Q 959 2375 959 1747 
Q 959 1119 1226 758 
Q 1494 397 1959 397 
Q 2419 397 2687 759 
Q 2956 1122 2956 1747 
Q 2956 2369 2687 2733 
Q 2419 3097 1959 3097 
z
M 1959 3584 
Q 2709 3584 3137 3096 
Q 3566 2609 3566 1747 
Q 3566 888 3137 398 
Q 2709 -91 1959 -91 
Q 1206 -91 779 398 
Q 353 888 353 1747 
Q 353 2609 779 3096 
Q 1206 3584 1959 3584 
z
" transform="scale(0.015625)"/>
       <path id="DejaVuSans-69" d="M 603 3500 
L 1178 3500 
L 1178 0 
L 603 0 
L 603 3500 
z
M 603 4863 
L 1178 4863 
L 1178 4134 
L 603 4134 
L 603 4863 
z
" transform="scale(0.015625)"/>
      </defs>
      <use xlink:href="#DejaVuSans-46"/>
      <use xlink:href="#DejaVuSans-61" x="48.394531"/>
      <use xlink:href="#DejaVuSans-6e" x="109.673828"/>
      <use xlink:href="#DejaVuSans-74" x="173.052734"/>
      <use xlink:href="#DejaVuSans-61" x="212.261719"/>
      <use xlink:href="#DejaVuSans-73" x="273.541016"/>
      <use xlink:href="#DejaVuSans-79" x="325.640625"/>
      <use xlink:href="#DejaVuSans-20" x="384.820312"/>
      <use xlink:href="#DejaVuSans-70" x="416.607422"/>
      <use xlink:href="#DejaVuSans-6f" x="480.083984"/>
      <use xlink:href="#DejaVuSans-69" x="541.265625"/>
      <use xlink:href="#DejaVuSans-6e" x="569.048828"/>
      <use xlink:href="#DejaVuSans-74" x="632.427734"/>
      <use xlink:href="#DejaVuSans-73" x="671.636719"/>
     </g>
    </g>
   </g>
   <g id="line2d_12">
    <path d="M 121.972898 380.575363 
L 123.95831 380.575363 
L 125.943721 412.118884 
L 127.929133 338.517336 
L 129.914545 475.205924 
L 131.899957 107.198187 
L 133.885369 349.031843 
L 135.870781 317.488323 
L 137.856193 359.54635 
L 139.841604 380.575363 
L 143.812428 254.401282 
L 145.79784 222.857762 
L 147.783252 170.285228 
L 149.768664 422.63339 
L 151.754075 306.973816 
L 153.739487 485.720431 
L 155.724899 359.54635 
L 157.710311 422.63339 
L 159.695723 538.292965 
L 161.681135 359.54635 
L 163.666547 527.778458 
L 165.651958 306.973816 
L 167.63737 254.401282 
L 169.622782 391.08987 
L 171.608194 317.488323 
L 173.593606 412.118884 
L 175.579018 412.118884 
L 177.564429 212.343255 
L 179.549841 222.857762 
L 181.535253 370.060857 
L 183.520665 412.118884 
L 185.506077 338.517336 
L 187.491489 296.459309 
L 189.476901 412.118884 
L 191.462312 306.973816 
L 193.447724 391.08987 
L 195.433136 338.517336 
L 197.418548 233.372268 
L 199.40396 443.662404 
L 201.389372 422.63339 
L 203.374784 243.886775 
L 205.360195 433.147897 
L 207.345607 359.54635 
L 209.331019 359.54635 
L 211.316431 191.314241 
L 213.301843 401.604377 
L 215.287255 380.575363 
L 217.272666 306.973816 
L 219.258078 443.662404 
L 221.24349 391.08987 
L 223.228902 296.459309 
L 225.214314 328.002829 
L 227.199726 296.459309 
L 229.185138 443.662404 
L 231.170549 233.372268 
L 233.155961 433.147897 
L 235.141373 296.459309 
L 237.126785 338.517336 
L 239.112197 401.604377 
L 241.097609 370.060857 
L 243.08302 401.604377 
L 245.068432 254.401282 
L 247.053844 328.002829 
L 249.039256 391.08987 
L 251.024668 443.662404 
L 253.01008 349.031843 
L 254.995492 485.720431 
L 256.980903 349.031843 
L 258.966315 359.54635 
L 260.951727 464.691417 
L 262.937139 443.662404 
L 264.922551 359.54635 
L 266.907963 328.002829 
L 268.893375 412.118884 
L 270.878786 222.857762 
L 272.864198 422.63339 
L 274.84961 338.517336 
L 276.835022 306.973816 
L 278.820434 285.944802 
L 280.805846 349.031843 
L 282.791257 370.060857 
L 284.776669 412.118884 
L 286.762081 306.973816 
L 288.747493 191.314241 
L 290.732905 412.118884 
L 292.718317 412.118884 
L 294.703729 401.604377 
L 296.68914 75.654667 
L 298.674552 275.430296 
L 300.659964 306.973816 
L 302.645376 359.54635 
L 304.630788 464.691417 
L 306.6162 412.118884 
L 308.601611 380.575363 
L 310.587023 254.401282 
L 312.572435 338.517336 
L 314.557847 275.430296 
L 316.543259 412.118884 
L 318.528671 454.176911 
L 320.514083 243.886775 
L 322.499494 433.147897 
L 324.484906 412.118884 
L 326.470318 370.060857 
L 328.45573 191.314241 
L 330.441142 296.459309 
L 332.426554 454.176911 
L 334.411966 412.118884 
L 336.397377 359.54635 
L 338.382789 517.263951 
L 340.368201 328.002829 
L 342.353613 212.343255 
L 344.339025 359.54635 
L 346.324437 391.08987 
L 348.309848 338.517336 
L 350.29526 254.401282 
L 352.280672 412.118884 
L 354.266084 306.973816 
L 356.251496 359.54635 
L 358.236908 264.915789 
L 360.22232 380.575363 
L 362.207731 454.176911 
L 364.193143 412.118884 
L 366.178555 180.799735 
L 368.163967 296.459309 
L 370.149379 275.430296 
L 372.134791 433.147897 
L 374.120202 422.63339 
L 376.105614 380.575363 
L 378.091026 517.263951 
L 380.076438 443.662404 
L 382.06185 317.488323 
L 384.047262 317.488323 
L 386.032674 412.118884 
L 388.018085 296.459309 
L 390.003497 433.147897 
L 391.988909 285.944802 
L 393.974321 338.517336 
L 395.959733 464.691417 
L 397.945145 222.857762 
L 399.930557 433.147897 
L 401.915968 338.517336 
L 403.90138 359.54635 
L 405.886792 349.031843 
L 407.872204 275.430296 
L 409.857616 254.401282 
L 411.843028 391.08987 
L 413.828439 275.430296 
L 415.813851 443.662404 
L 417.799263 412.118884 
L 419.784675 338.517336 
L 421.770087 180.799735 
L 423.755499 349.031843 
L 425.740911 201.828748 
L 427.726322 391.08987 
L 429.711734 317.488323 
L 431.697146 380.575363 
L 433.682558 380.575363 
L 435.66797 359.54635 
L 437.653382 296.459309 
L 439.638793 391.08987 
L 441.624205 180.799735 
L 443.609617 359.54635 
L 445.595029 412.118884 
L 447.580441 285.944802 
L 449.565853 391.08987 
L 451.551265 359.54635 
L 453.536676 517.263951 
L 455.522088 338.517336 
L 457.5075 117.712694 
L 459.492912 391.08987 
L 461.478324 475.205924 
L 463.463736 380.575363 
L 465.449148 380.575363 
L 467.434559 401.604377 
L 469.419971 233.372268 
L 471.405383 527.778458 
L 473.390795 433.147897 
L 475.376207 370.060857 
L 477.361619 475.205924 
L 479.34703 359.54635 
L 481.332442 54.625653 
L 483.317854 180.799735 
L 485.303266 317.488323 
L 487.288678 548.807472 
L 489.27409 454.176911 
L 491.259502 412.118884 
L 493.244913 433.147897 
L 495.230325 380.575363 
L 497.215737 296.459309 
L 499.201149 170.285228 
L 501.186561 306.973816 
L 503.171973 433.147897 
L 505.157384 306.973816 
L 507.142796 412.118884 
L 509.128208 264.915789 
L 511.11362 401.604377 
L 513.099032 433.147897 
L 515.084444 328.002829 
L 517.069856 464.691417 
L 519.055267 275.430296 
L 521.040679 422.63339 
L 523.026091 285.944802 
L 525.011503 306.973816 
L 526.996915 527.778458 
L 528.982327 370.060857 
L 530.967739 391.08987 
L 532.95315 338.517336 
L 534.938562 349.031843 
L 536.923974 422.63339 
L 538.909386 380.575363 
L 540.894798 443.662404 
L 542.88021 370.060857 
L 544.865621 422.63339 
L 546.851033 359.54635 
L 548.836445 264.915789 
L 550.821857 201.828748 
L 552.807269 328.002829 
L 554.792681 391.08987 
L 556.778093 412.118884 
L 558.763504 54.625653 
L 560.748916 359.54635 
L 562.734328 485.720431 
L 564.71974 254.401282 
L 566.705152 359.54635 
L 568.690564 412.118884 
L 570.675975 328.002829 
L 572.661387 443.662404 
L 574.646799 422.63339 
L 576.632211 370.060857 
L 580.603035 328.002829 
L 582.588447 412.118884 
L 584.573858 328.002829 
L 586.55927 412.118884 
L 588.544682 485.720431 
L 590.530094 464.691417 
L 592.515506 349.031843 
L 594.500918 243.886775 
L 596.48633 391.08987 
L 598.471741 338.517336 
L 600.457153 517.263951 
L 602.442565 243.886775 
L 604.427977 338.517336 
L 606.413389 412.118884 
L 608.398801 422.63339 
L 610.384212 412.118884 
L 612.369624 412.118884 
L 614.355036 464.691417 
L 616.340448 422.63339 
L 618.32586 349.031843 
L 620.311272 443.662404 
L 622.296684 359.54635 
L 624.282095 338.517336 
L 626.267507 338.517336 
L 628.252919 391.08987 
L 630.238331 412.118884 
L 632.223743 254.401282 
L 634.209155 412.118884 
L 636.194566 243.886775 
L 638.179978 201.828748 
L 640.16539 412.118884 
L 642.150802 464.691417 
L 644.136214 201.828748 
L 646.121626 443.662404 
L 648.107038 391.08987 
L 650.092449 264.915789 
L 652.077861 443.662404 
L 654.063273 433.147897 
L 656.048685 391.08987 
L 658.034097 391.08987 
L 660.019509 254.401282 
L 662.00492 422.63339 
L 663.990332 380.575363 
L 665.975744 517.263951 
L 667.961156 443.662404 
L 669.946568 254.401282 
L 671.93198 391.08987 
L 673.917392 454.176911 
L 675.902803 338.517336 
L 677.888215 233.372268 
L 679.873627 243.886775 
L 681.859039 517.263951 
L 683.844451 233.372268 
L 685.829863 454.176911 
L 687.815275 401.604377 
L 689.800686 306.973816 
L 691.786098 243.886775 
L 693.77151 370.060857 
L 695.756922 443.662404 
L 697.742334 349.031843 
L 699.727746 317.488323 
L 701.713157 359.54635 
L 705.683981 317.488323 
L 707.669393 454.176911 
L 711.640217 370.060857 
L 713.625629 380.575363 
L 715.61104 443.662404 
L 717.596452 285.944802 
L 719.581864 359.54635 
L 721.567276 306.973816 
L 723.552688 475.205924 
L 725.5381 212.343255 
L 727.523511 412.118884 
L 729.508923 412.118884 
L 731.494335 254.401282 
L 733.479747 517.263951 
L 735.465159 212.343255 
L 737.450571 433.147897 
L 739.435983 517.263951 
L 741.421394 433.147897 
L 743.406806 254.401282 
L 745.392218 107.198187 
L 747.37763 443.662404 
L 749.363042 107.198187 
L 751.348454 328.002829 
L 753.333866 370.060857 
L 755.319277 422.63339 
L 757.304689 454.176911 
L 759.290101 306.973816 
L 761.275513 296.459309 
L 763.260925 359.54635 
L 765.246337 412.118884 
L 769.21716 433.147897 
L 771.202572 464.691417 
L 773.187984 538.292965 
L 775.173396 464.691417 
L 777.158808 306.973816 
L 779.14422 349.031843 
L 781.129631 359.54635 
L 783.115043 359.54635 
L 785.100455 485.720431 
L 787.085867 370.060857 
L 791.056691 306.973816 
L 793.042102 317.488323 
L 795.027514 359.54635 
L 797.012926 485.720431 
L 798.998338 422.63339 
L 800.98375 296.459309 
L 802.969162 117.712694 
L 804.954574 243.886775 
L 806.939985 443.662404 
L 808.925397 222.857762 
L 810.910809 275.430296 
L 812.896221 443.662404 
L 814.881633 201.828748 
L 816.867045 306.973816 
L 818.852457 338.517336 
L 820.837868 338.517336 
L 822.82328 328.002829 
L 824.808692 443.662404 
L 826.794104 306.973816 
L 828.779516 328.002829 
L 830.764928 464.691417 
L 832.750339 306.973816 
L 834.735751 443.662404 
L 836.721163 317.488323 
L 838.706575 443.662404 
L 840.691987 128.227201 
L 842.677399 433.147897 
L 844.662811 328.002829 
L 846.648222 317.488323 
L 848.633634 180.799735 
L 852.604458 433.147897 
L 854.58987 359.54635 
L 856.575282 243.886775 
L 858.560693 359.54635 
L 860.546105 443.662404 
L 862.531517 370.060857 
L 864.516929 496.234938 
L 866.502341 317.488323 
L 868.487753 328.002829 
L 870.473165 412.118884 
L 872.458576 443.662404 
L 874.443988 443.662404 
L 876.4294 391.08987 
L 878.414812 222.857762 
L 880.400224 370.060857 
L 882.385636 349.031843 
L 884.371048 349.031843 
L 886.356459 412.118884 
L 888.341871 380.575363 
L 890.327283 359.54635 
L 892.312695 380.575363 
L 894.298107 464.691417 
L 896.283519 222.857762 
L 898.26893 443.662404 
L 900.254342 433.147897 
L 902.239754 380.575363 
L 904.225166 254.401282 
L 906.210578 275.430296 
L 908.19599 338.517336 
L 910.181402 443.662404 
L 912.166813 538.292965 
L 914.152225 401.604377 
L 916.137637 391.08987 
L 918.123049 412.118884 
L 920.108461 443.662404 
L 922.093873 401.604377 
L 924.079284 285.944802 
L 926.064696 254.401282 
L 928.050108 422.63339 
L 930.03552 391.08987 
L 932.020932 422.63339 
L 934.006344 285.944802 
L 935.991756 443.662404 
L 937.977167 422.63339 
L 939.962579 191.314241 
L 941.947991 422.63339 
L 943.933403 359.54635 
L 945.918815 338.517336 
L 947.904227 338.517336 
L 949.889639 380.575363 
L 951.87505 306.973816 
L 953.860462 412.118884 
L 955.845874 454.176911 
L 957.831286 359.54635 
L 959.816698 422.63339 
L 961.80211 464.691417 
L 963.787521 338.517336 
L 965.772933 443.662404 
L 967.758345 328.002829 
L 969.743757 338.517336 
L 971.729169 422.63339 
L 973.714581 380.575363 
L 975.699993 285.944802 
L 977.685404 296.459309 
L 979.670816 412.118884 
L 981.656228 243.886775 
L 983.64164 338.517336 
L 985.627052 328.002829 
L 987.612464 517.263951 
L 989.597875 275.430296 
L 991.583287 443.662404 
L 993.568699 443.662404 
L 995.554111 496.234938 
L 997.539523 285.944802 
L 999.524935 306.973816 
L 1001.510347 275.430296 
L 1003.495758 296.459309 
L 1005.48117 275.430296 
L 1007.466582 285.944802 
L 1009.451994 359.54635 
L 1011.437406 296.459309 
L 1013.422818 338.517336 
L 1015.40823 359.54635 
L 1017.393641 317.488323 
L 1019.379053 306.973816 
L 1021.364465 422.63339 
L 1023.349877 443.662404 
L 1025.335289 359.54635 
L 1027.320701 254.401282 
L 1029.306112 306.973816 
L 1031.291524 412.118884 
L 1033.276936 412.118884 
L 1035.262348 391.08987 
L 1037.24776 443.662404 
L 1039.233172 243.886775 
L 1041.218584 243.886775 
L 1043.203995 222.857762 
L 1045.189407 433.147897 
L 1047.174819 296.459309 
L 1049.160231 359.54635 
L 1051.145643 328.002829 
L 1053.131055 412.118884 
L 1055.116466 222.857762 
L 1057.101878 180.799735 
L 1059.08729 285.944802 
L 1061.072702 370.060857 
L 1063.058114 422.63339 
L 1065.043526 328.002829 
L 1069.014349 349.031843 
L 1070.999761 380.575363 
L 1072.985173 275.430296 
L 1074.970585 359.54635 
L 1076.955997 296.459309 
L 1078.941409 412.118884 
L 1080.926821 464.691417 
L 1082.912232 359.54635 
L 1084.897644 443.662404 
L 1086.883056 412.118884 
L 1090.85388 285.944802 
L 1092.839292 338.517336 
L 1094.824703 306.973816 
L 1096.810115 412.118884 
L 1098.795527 433.147897 
L 1100.780939 380.575363 
L 1102.766351 349.031843 
L 1104.751763 296.459309 
L 1106.737175 264.915789 
L 1108.722586 306.973816 
L 1110.707998 370.060857 
L 1112.69341 317.488323 
L 1114.678822 317.488323 
L 1116.664234 359.54635 
L 1118.649646 296.459309 
L 1120.635057 285.944802 
L 1122.620469 349.031843 
L 1124.605881 349.031843 
L 1126.591293 359.54635 
L 1128.576705 422.63339 
L 1130.562117 285.944802 
L 1132.547529 285.944802 
L 1134.53294 496.234938 
L 1136.518352 433.147897 
L 1136.518352 433.147897 
" clip-path="url(#p1a532ee55e)" style="fill: none; stroke: #1f77b4; stroke-opacity: 0.5; stroke-width: 1.5; stroke-linecap: square"/>
   </g>
   <g id="line2d_13">
    <path d="M 121.972898 386.411347 
L 123.95831 372.327133 
L 125.943721 440.339993 
L 127.929133 392.95738 
L 129.914545 354.611938 
L 131.899957 356.76421 
L 133.885369 337.246766 
L 135.870781 384.781267 
L 137.856193 333.389462 
L 139.841604 333.953451 
L 141.827016 337.31619 
L 143.812428 351.380917 
L 145.79784 303.235825 
L 147.783252 349.421565 
L 149.768664 370.221398 
L 151.754075 353.97154 
L 153.739487 361.496849 
L 155.724899 383.035267 
L 157.710311 389.544951 
L 159.695723 370.050084 
L 161.681135 346.459809 
L 163.666547 353.386428 
L 165.651958 424.990023 
L 167.63737 353.74995 
L 169.622782 369.61999 
L 171.608194 343.132289 
L 173.593606 361.746978 
L 175.579018 369.874491 
L 177.564429 348.884697 
L 179.549841 385.784496 
L 181.535253 382.408896 
L 183.520665 323.758691 
L 185.506077 377.91384 
L 187.491489 389.310225 
L 189.476901 387.107788 
L 191.462312 376.058318 
L 193.447724 300.817491 
L 195.433136 335.158531 
L 197.418548 373.160291 
L 199.40396 382.084885 
L 201.389372 411.1232 
L 203.374784 338.265388 
L 205.360195 327.805556 
L 207.345607 371.704906 
L 209.331019 378.400839 
L 211.316431 357.822979 
L 213.301843 385.217101 
L 215.287255 399.535567 
L 217.272666 373.642559 
L 219.258078 401.897226 
L 221.24349 352.217572 
L 223.228902 306.063921 
L 225.214314 343.958592 
L 227.199726 373.320975 
L 229.185138 380.502565 
L 231.170549 326.015145 
L 233.155961 371.06351 
L 235.141373 390.636874 
L 237.126785 365.038957 
L 239.112197 385.142355 
L 241.097609 383.797806 
L 243.08302 411.170279 
L 245.068432 347.481157 
L 247.053844 350.414396 
L 249.039256 378.795217 
L 251.024668 385.049297 
L 253.01008 456.671526 
L 254.995492 390.2496 
L 256.980903 337.458075 
L 258.966315 338.761306 
L 260.951727 363.658038 
L 262.937139 342.577195 
L 264.922551 388.822623 
L 266.907963 353.343845 
L 268.893375 306.099193 
L 270.878786 329.001186 
L 272.864198 346.259467 
L 274.84961 347.172325 
L 276.835022 379.126258 
L 278.820434 392.156414 
L 280.805846 343.189132 
L 282.791257 376.464022 
L 284.776669 413.87133 
L 286.762081 358.729324 
L 288.747493 351.895603 
L 290.732905 373.362748 
L 292.718317 343.919199 
L 294.703729 378.117206 
L 296.68914 356.885231 
L 298.674552 332.464856 
L 300.659964 353.782686 
L 302.645376 335.930078 
L 304.630788 386.048023 
L 306.6162 384.745318 
L 308.601611 326.755709 
L 310.587023 392.362665 
L 312.572435 352.672835 
L 314.557847 352.049895 
L 316.543259 357.717376 
L 318.528671 369.092301 
L 320.514083 430.941446 
L 322.499494 406.331589 
L 324.484906 410.809913 
L 326.470318 352.330251 
L 328.45573 358.162616 
L 330.441142 325.51852 
L 332.426554 382.522767 
L 334.411966 353.973994 
L 336.397377 372.461089 
L 338.382789 420.793761 
L 340.368201 336.015663 
L 342.353613 324.429005 
L 344.339025 346.165176 
L 346.324437 363.416856 
L 348.309848 349.832394 
L 350.29526 367.20219 
L 352.280672 342.271506 
L 354.266084 348.410766 
L 356.251496 340.464087 
L 358.236908 372.057561 
L 360.22232 341.639703 
L 362.207731 351.459073 
L 364.193143 359.493845 
L 366.178555 408.661197 
L 368.163967 389.404603 
L 370.149379 355.215865 
L 372.134791 347.028111 
L 374.120202 345.4382 
L 376.105614 389.501786 
L 378.091026 404.591456 
L 380.076438 425.138017 
L 382.06185 392.442336 
L 384.047262 356.693615 
L 386.032674 380.73513 
L 388.018085 323.882798 
L 391.988909 405.042034 
L 393.974321 393.123331 
L 395.959733 336.192495 
L 397.945145 381.610233 
L 399.930557 381.827995 
L 401.915968 360.900714 
L 403.90138 407.551504 
L 405.886792 364.792909 
L 407.872204 372.912482 
L 409.857616 338.846435 
L 411.843028 357.94054 
L 413.828439 348.294659 
L 415.813851 346.245479 
L 417.799263 359.329474 
L 419.784675 390.380868 
L 421.770087 325.740951 
L 423.755499 339.623436 
L 425.740911 338.385786 
L 427.726322 318.353955 
L 429.711734 377.421364 
L 431.697146 379.228683 
L 433.682558 376.372401 
L 435.66797 347.481157 
L 437.653382 350.414396 
L 439.638793 428.489871 
L 441.624205 378.402443 
L 443.609617 358.061651 
L 445.595029 327.60191 
L 447.580441 319.161146 
L 449.565853 348.347614 
L 451.551265 374.8564 
L 453.536676 408.44618 
L 455.522088 353.075126 
L 457.5075 341.187433 
L 459.492912 393.235731 
L 461.478324 352.823321 
L 463.463736 314.698909 
L 467.434559 406.861544 
L 469.419971 347.403542 
L 471.405383 364.561288 
L 473.390795 377.533099 
L 475.376207 388.666846 
L 477.361619 375.068755 
L 479.34703 325.06884 
L 481.332442 352.812503 
L 483.317854 362.721605 
L 485.303266 360.001654 
L 487.288678 347.656737 
L 489.27409 369.457721 
L 491.259502 402.304032 
L 493.244913 411.826408 
L 495.230325 379.382852 
L 497.215737 393.614158 
L 499.201149 353.124532 
L 501.186561 352.606279 
L 503.171973 387.278103 
L 505.157384 347.630246 
L 507.142796 374.440768 
L 509.128208 385.557859 
L 511.11362 367.202938 
L 513.099032 404.002555 
L 515.084444 374.418099 
L 517.069856 363.197489 
L 519.055267 342.780006 
L 521.040679 325.079113 
L 523.026091 356.885231 
L 525.011503 332.464856 
L 526.996915 344.009671 
L 528.982327 329.505576 
L 530.967739 358.961279 
L 532.95315 355.122133 
L 534.938562 389.4312 
L 536.923974 365.146508 
L 538.909386 409.556263 
L 540.894798 371.255314 
L 542.88021 377.950101 
L 544.865621 336.20458 
L 546.851033 386.229956 
L 548.836445 374.665632 
L 550.821857 339.053995 
L 552.807269 376.126455 
L 554.792681 365.410568 
L 556.778093 397.117058 
L 558.763504 331.921034 
L 560.748916 327.727022 
L 562.734328 399.118382 
L 564.71974 358.867832 
L 566.705152 325.731705 
L 568.690564 424.72171 
L 570.675975 357.095542 
L 572.661387 354.912009 
L 574.646799 357.727281 
L 576.632211 341.210338 
L 578.617623 328.181424 
L 580.603035 372.023618 
L 582.588447 376.451773 
L 584.573858 379.709794 
L 586.55927 335.922128 
L 588.544682 374.394484 
L 590.530094 385.495826 
L 592.515506 398.708021 
L 594.500918 348.095713 
L 596.48633 342.27382 
L 598.471741 356.17636 
L 600.457153 355.679774 
L 602.442565 311.48765 
L 604.427977 351.77152 
L 606.413389 343.743451 
L 608.398801 360.730776 
L 610.384212 424.990023 
L 612.369624 353.74995 
L 614.355036 346.341574 
L 618.32586 359.109925 
L 620.311272 375.865435 
L 622.296684 378.400839 
L 624.282095 357.822979 
L 626.267507 350.979209 
L 628.252919 358.352452 
L 632.223743 370.679087 
L 634.209155 388.065702 
L 636.194566 404.293105 
L 638.179978 341.249248 
L 640.16539 338.852686 
L 642.150802 377.895852 
L 644.136214 392.408165 
L 646.121626 359.432945 
L 648.107038 382.161628 
L 650.092449 330.694545 
L 652.077861 360.859442 
L 654.063273 408.093783 
L 656.048685 354.720407 
L 658.034097 342.209502 
L 660.019509 385.707138 
L 662.00492 390.528662 
L 663.990332 379.843406 
L 665.975744 428.489871 
L 667.961156 378.402443 
L 669.946568 405.21073 
L 671.93198 378.582366 
L 673.917392 329.98099 
L 675.902803 352.904389 
L 677.888215 329.297094 
L 679.873627 335.583532 
L 681.859039 357.111892 
L 683.844451 405.885829 
L 685.829863 388.484199 
L 687.815275 379.518824 
L 689.800686 361.82722 
L 691.786098 322.759721 
L 693.77151 362.991313 
L 695.756922 345.167108 
L 697.742334 407.256224 
L 699.727746 338.36595 
L 701.713157 334.349041 
L 703.698569 364.232663 
L 705.683981 405.913443 
L 709.654805 377.895852 
L 711.640217 392.408165 
L 713.625629 353.697469 
L 715.61104 382.991726 
L 717.596452 374.418099 
L 719.581864 363.197489 
L 721.567276 312.355331 
L 723.552688 363.855865 
L 725.5381 344.082781 
L 727.523511 373.927243 
L 729.508923 386.68334 
L 731.494335 355.042132 
L 733.479747 342.535651 
L 735.465159 318.513028 
L 737.450571 410.498023 
L 739.435983 425.887036 
L 741.421394 381.154466 
L 743.406806 345.487336 
L 745.392218 380.225838 
L 747.37763 431.161361 
L 749.363042 344.949262 
L 751.348454 358.42476 
L 753.333866 318.353952 
L 755.319277 377.421367 
L 757.304689 360.156289 
L 759.290101 315.370618 
L 761.275513 389.77534 
L 763.260925 391.627454 
L 765.246337 392.233691 
L 767.231748 388.776982 
L 769.21716 359.707582 
L 771.202572 325.540862 
L 773.187984 368.528152 
L 775.173396 346.144308 
L 777.158808 347.949257 
L 779.14422 343.838576 
L 781.129631 369.324524 
L 783.115043 340.827043 
L 785.100455 396.546027 
L 787.085867 374.971725 
L 789.071279 379.382852 
L 791.056691 393.614158 
L 793.042102 326.755689 
L 795.027514 392.362692 
L 797.012926 389.03396 
L 798.998338 361.777824 
L 800.98375 336.212847 
L 802.969162 357.927383 
L 804.954574 334.757395 
L 806.939985 338.054512 
L 808.925397 357.717376 
L 810.910809 369.092301 
L 812.896221 360.71702 
L 814.881633 355.143429 
L 816.867045 370.076463 
L 818.852457 398.842558 
L 820.837868 362.407647 
L 822.82328 393.526884 
L 824.808692 329.297094 
L 826.794104 335.583532 
L 828.779516 389.77534 
L 830.764928 391.627454 
L 832.750339 382.051913 
L 834.735751 341.74059 
L 836.721163 336.192495 
L 838.706575 381.610233 
L 840.691987 336.562244 
L 842.677399 363.422856 
L 844.662811 329.944709 
L 846.648222 370.347307 
L 848.633634 361.321103 
L 850.619046 385.988158 
L 852.604458 390.528662 
L 854.58987 379.843406 
L 856.575282 329.222967 
L 858.560693 372.242755 
L 860.546105 385.217101 
L 862.531517 399.535567 
L 864.516929 351.257771 
L 866.502341 369.096229 
L 868.487753 419.059133 
L 870.473165 401.518982 
L 872.458576 337.780424 
L 874.443988 377.436421 
L 876.4294 327.805556 
L 878.414812 371.704906 
L 880.400224 385.170057 
L 882.385636 339.299501 
L 884.371048 405.199013 
L 886.356459 398.539092 
L 888.341871 353.697469 
L 890.327283 382.991726 
L 892.312695 373.689062 
L 894.298107 389.659822 
L 896.283519 325.868189 
L 898.26893 389.707855 
L 900.254342 360.052394 
L 902.239754 335.104516 
L 904.225166 342.780006 
L 906.210578 325.079113 
L 908.19599 335.878718 
L 910.181402 382.067294 
L 912.166813 328.059027 
L 914.152225 400.376969 
L 916.137637 352.184585 
L 918.123049 399.992318 
L 920.108461 341.249248 
L 922.093873 338.852686 
L 924.079284 343.582078 
L 926.064696 378.835959 
L 928.050108 346.175921 
L 930.03552 340.835747 
L 932.020932 357.94054 
L 934.006344 348.294659 
L 935.991756 370.108368 
L 937.977167 386.617144 
L 939.962579 333.849442 
L 941.947991 363.744267 
L 943.933403 378.767962 
L 945.918815 313.791095 
L 947.904227 407.109573 
L 949.889639 424.955857 
L 951.87505 369.995453 
L 953.860462 366.514372 
L 955.845874 303.235825 
L 957.831286 349.421565 
L 959.816698 349.729578 
L 961.80211 364.503277 
L 963.787521 387.278103 
L 965.772933 347.630246 
L 967.758345 357.182599 
L 969.743757 381.999977 
L 971.729169 364.792092 
L 973.714581 341.596061 
L 975.699993 353.588154 
L 979.670816 396.850596 
L 981.656228 366.648407 
L 983.64164 368.168197 
L 985.627052 359.769065 
L 987.612464 391.654287 
L 989.597875 351.04661 
L 991.583287 326.47452 
L 993.568699 388.983535 
L 995.554111 370.393881 
L 997.539523 401.161178 
L 999.524935 382.408884 
L 1001.510347 323.758693 
L 1003.495758 335.730594 
L 1005.48117 358.298266 
L 1007.466582 326.75831 
L 1009.451994 364.766809 
L 1011.437406 340.464087 
L 1013.422818 372.057561 
L 1015.40823 430.941446 
L 1017.393641 406.331589 
L 1019.379053 346.165176 
L 1021.364465 363.416856 
L 1023.349877 348.955867 
L 1025.335289 353.22903 
L 1027.320701 354.997301 
L 1029.306112 353.335667 
L 1031.291524 389.4312 
L 1033.276936 365.146508 
L 1035.262348 330.723018 
L 1037.24776 330.081632 
L 1039.233172 352.217572 
L 1041.218584 306.063921 
L 1043.203995 353.918052 
L 1045.189407 385.398111 
L 1047.174819 367.579081 
L 1049.160231 375.480991 
L 1051.145643 385.324402 
L 1053.131055 361.172725 
L 1055.116466 388.666846 
L 1057.101878 375.068755 
L 1059.08729 315.684104 
L 1061.072702 377.047283 
L 1063.058114 389.404603 
L 1065.043526 355.215865 
L 1067.028938 388.484199 
L 1069.014349 379.518824 
L 1070.999761 348.264063 
L 1072.985173 324.379074 
L 1074.970585 336.562244 
L 1076.955997 363.422856 
L 1078.941409 370.076447 
L 1080.926821 398.842557 
L 1082.912232 336.015663 
L 1084.897644 324.429005 
L 1086.883056 373.689062 
L 1088.868468 389.659822 
L 1090.85388 319.161146 
L 1092.839292 348.347614 
L 1094.824703 381.154466 
L 1096.810115 345.487336 
L 1098.795527 380.225838 
L 1100.780939 431.161361 
L 1102.766351 343.958592 
L 1104.751763 373.320975 
L 1106.737175 359.707582 
L 1108.722586 325.540862 
L 1110.707998 354.611938 
L 1112.69341 356.76421 
L 1114.678822 333.389462 
L 1116.664234 333.953451 
L 1118.649646 343.582078 
L 1120.635057 378.835959 
L 1122.620469 425.138017 
L 1124.605881 392.442336 
L 1126.591293 405.913443 
L 1128.576705 391.885094 
L 1130.562117 357.182599 
L 1132.547529 381.999977 
L 1134.53294 411.123201 
L 1136.518352 338.265356 
L 1136.518352 338.265356 
" clip-path="url(#p1a532ee55e)" style="fill: none; stroke: #ff7f0e; stroke-width: 1.5; stroke-linecap: square"/>
   </g>
   <g id="patch_3">
    <path d="M 71.245625 573.516562 
L 71.245625 29.916563 
" style="fill: none; stroke: #000000; stroke-width: 0.8; stroke-linejoin: miter; stroke-linecap: square"/>
   </g>
   <g id="patch_4">
    <path d="M 1187.245625 573.516562 
L 1187.245625 29.916563 
" style="fill: none; stroke: #000000; stroke-width: 0.8; stroke-linejoin: miter; stroke-linecap: square"/>
   </g>
   <g id="patch_5">
    <path d="M 71.245625 573.516562 
L 1187.245625 573.516562 
" style="fill: none; stroke: #000000; stroke-width: 0.8; stroke-linejoin: miter; stroke-linecap: square"/>
   </g>
   <g id="patch_6">
    <path d="M 71.245625 29.916562 
L 1187.245625 29.916562 
" style="fill: none; stroke: #000000; stroke-width: 0.8; stroke-linejoin: miter; stroke-linecap: square"/>
   </g>
   <g id="text_14">
    <!-- Predictions for punter fantasy points over 2019 season -->
    <g transform="translate(326.888281 23.916562)scale(0.22 -0.22)">
     <defs>
      <path id="DejaVuSans-50" d="M 1259 4147 
L 1259 2394 
L 2053 2394 
Q 2494 2394 2734 2622 
Q 2975 2850 2975 3272 
Q 2975 3691 2734 3919 
Q 2494 4147 2053 4147 
L 1259 4147 
z
M 628 4666 
L 2053 4666 
Q 2838 4666 3239 4311 
Q 3641 3956 3641 3272 
Q 3641 2581 3239 2228 
Q 2838 1875 2053 1875 
L 1259 1875 
L 1259 0 
L 628 0 
L 628 4666 
z
" transform="scale(0.015625)"/>
      <path id="DejaVuSans-72" d="M 2631 2963 
Q 2534 3019 2420 3045 
Q 2306 3072 2169 3072 
Q 1681 3072 1420 2755 
Q 1159 2438 1159 1844 
L 1159 0 
L 581 0 
L 581 3500 
L 1159 3500 
L 1159 2956 
Q 1341 3275 1631 3429 
Q 1922 3584 2338 3584 
Q 2397 3584 2469 3576 
Q 2541 3569 2628 3553 
L 2631 2963 
z
" transform="scale(0.015625)"/>
      <path id="DejaVuSans-64" d="M 2906 2969 
L 2906 4863 
L 3481 4863 
L 3481 0 
L 2906 0 
L 2906 525 
Q 2725 213 2448 61 
Q 2172 -91 1784 -91 
Q 1150 -91 751 415 
Q 353 922 353 1747 
Q 353 2572 751 3078 
Q 1150 3584 1784 3584 
Q 2172 3584 2448 3432 
Q 2725 3281 2906 2969 
z
M 947 1747 
Q 947 1113 1208 752 
Q 1469 391 1925 391 
Q 2381 391 2643 752 
Q 2906 1113 2906 1747 
Q 2906 2381 2643 2742 
Q 2381 3103 1925 3103 
Q 1469 3103 1208 2742 
Q 947 2381 947 1747 
z
" transform="scale(0.015625)"/>
      <path id="DejaVuSans-63" d="M 3122 3366 
L 3122 2828 
Q 2878 2963 2633 3030 
Q 2388 3097 2138 3097 
Q 1578 3097 1268 2742 
Q 959 2388 959 1747 
Q 959 1106 1268 751 
Q 1578 397 2138 397 
Q 2388 397 2633 464 
Q 2878 531 3122 666 
L 3122 134 
Q 2881 22 2623 -34 
Q 2366 -91 2075 -91 
Q 1284 -91 818 406 
Q 353 903 353 1747 
Q 353 2603 823 3093 
Q 1294 3584 2113 3584 
Q 2378 3584 2631 3529 
Q 2884 3475 3122 3366 
z
" transform="scale(0.015625)"/>
      <path id="DejaVuSans-66" d="M 2375 4863 
L 2375 4384 
L 1825 4384 
Q 1516 4384 1395 4259 
Q 1275 4134 1275 3809 
L 1275 3500 
L 2222 3500 
L 2222 3053 
L 1275 3053 
L 1275 0 
L 697 0 
L 697 3053 
L 147 3053 
L 147 3500 
L 697 3500 
L 697 3744 
Q 697 4328 969 4595 
Q 1241 4863 1831 4863 
L 2375 4863 
z
" transform="scale(0.015625)"/>
      <path id="DejaVuSans-75" d="M 544 1381 
L 544 3500 
L 1119 3500 
L 1119 1403 
Q 1119 906 1312 657 
Q 1506 409 1894 409 
Q 2359 409 2629 706 
Q 2900 1003 2900 1516 
L 2900 3500 
L 3475 3500 
L 3475 0 
L 2900 0 
L 2900 538 
Q 2691 219 2414 64 
Q 2138 -91 1772 -91 
Q 1169 -91 856 284 
Q 544 659 544 1381 
z
M 1991 3584 
L 1991 3584 
z
" transform="scale(0.015625)"/>
      <path id="DejaVuSans-76" d="M 191 3500 
L 800 3500 
L 1894 563 
L 2988 3500 
L 3597 3500 
L 2284 0 
L 1503 0 
L 191 3500 
z
" transform="scale(0.015625)"/>
      <path id="DejaVuSans-39" d="M 703 97 
L 703 672 
Q 941 559 1184 500 
Q 1428 441 1663 441 
Q 2288 441 2617 861 
Q 2947 1281 2994 2138 
Q 2813 1869 2534 1725 
Q 2256 1581 1919 1581 
Q 1219 1581 811 2004 
Q 403 2428 403 3163 
Q 403 3881 828 4315 
Q 1253 4750 1959 4750 
Q 2769 4750 3195 4129 
Q 3622 3509 3622 2328 
Q 3622 1225 3098 567 
Q 2575 -91 1691 -91 
Q 1453 -91 1209 -44 
Q 966 3 703 97 
z
M 1959 2075 
Q 2384 2075 2632 2365 
Q 2881 2656 2881 3163 
Q 2881 3666 2632 3958 
Q 2384 4250 1959 4250 
Q 1534 4250 1286 3958 
Q 1038 3666 1038 3163 
Q 1038 2656 1286 2365 
Q 1534 2075 1959 2075 
z
" transform="scale(0.015625)"/>
     </defs>
     <use xlink:href="#DejaVuSans-50"/>
     <use xlink:href="#DejaVuSans-72" x="58.552734"/>
     <use xlink:href="#DejaVuSans-65" x="97.416016"/>
     <use xlink:href="#DejaVuSans-64" x="158.939453"/>
     <use xlink:href="#DejaVuSans-69" x="222.416016"/>
     <use xlink:href="#DejaVuSans-63" x="250.199219"/>
     <use xlink:href="#DejaVuSans-74" x="305.179688"/>
     <use xlink:href="#DejaVuSans-69" x="344.388672"/>
     <use xlink:href="#DejaVuSans-6f" x="372.171875"/>
     <use xlink:href="#DejaVuSans-6e" x="433.353516"/>
     <use xlink:href="#DejaVuSans-73" x="496.732422"/>
     <use xlink:href="#DejaVuSans-20" x="548.832031"/>
     <use xlink:href="#DejaVuSans-66" x="580.619141"/>
     <use xlink:href="#DejaVuSans-6f" x="615.824219"/>
     <use xlink:href="#DejaVuSans-72" x="677.005859"/>
     <use xlink:href="#DejaVuSans-20" x="718.119141"/>
     <use xlink:href="#DejaVuSans-70" x="749.90625"/>
     <use xlink:href="#DejaVuSans-75" x="813.382812"/>
     <use xlink:href="#DejaVuSans-6e" x="876.761719"/>
     <use xlink:href="#DejaVuSans-74" x="940.140625"/>
     <use xlink:href="#DejaVuSans-65" x="979.349609"/>
     <use xlink:href="#DejaVuSans-72" x="1040.873047"/>
     <use xlink:href="#DejaVuSans-20" x="1081.986328"/>
     <use xlink:href="#DejaVuSans-66" x="1113.773438"/>
     <use xlink:href="#DejaVuSans-61" x="1148.978516"/>
     <use xlink:href="#DejaVuSans-6e" x="1210.257812"/>
     <use xlink:href="#DejaVuSans-74" x="1273.636719"/>
     <use xlink:href="#DejaVuSans-61" x="1312.845703"/>
     <use xlink:href="#DejaVuSans-73" x="1374.125"/>
     <use xlink:href="#DejaVuSans-79" x="1426.224609"/>
     <use xlink:href="#DejaVuSans-20" x="1485.404297"/>
     <use xlink:href="#DejaVuSans-70" x="1517.191406"/>
     <use xlink:href="#DejaVuSans-6f" x="1580.667969"/>
     <use xlink:href="#DejaVuSans-69" x="1641.849609"/>
     <use xlink:href="#DejaVuSans-6e" x="1669.632812"/>
     <use xlink:href="#DejaVuSans-74" x="1733.011719"/>
     <use xlink:href="#DejaVuSans-73" x="1772.220703"/>
     <use xlink:href="#DejaVuSans-20" x="1824.320312"/>
     <use xlink:href="#DejaVuSans-6f" x="1856.107422"/>
     <use xlink:href="#DejaVuSans-76" x="1917.289062"/>
     <use xlink:href="#DejaVuSans-65" x="1976.46875"/>
     <use xlink:href="#DejaVuSans-72" x="2037.992188"/>
     <use xlink:href="#DejaVuSans-20" x="2079.105469"/>
     <use xlink:href="#DejaVuSans-32" x="2110.892578"/>
     <use xlink:href="#DejaVuSans-30" x="2174.515625"/>
     <use xlink:href="#DejaVuSans-31" x="2238.138672"/>
     <use xlink:href="#DejaVuSans-39" x="2301.761719"/>
     <use xlink:href="#DejaVuSans-20" x="2365.384766"/>
     <use xlink:href="#DejaVuSans-73" x="2397.171875"/>
     <use xlink:href="#DejaVuSans-65" x="2449.271484"/>
     <use xlink:href="#DejaVuSans-61" x="2510.794922"/>
     <use xlink:href="#DejaVuSans-73" x="2572.074219"/>
     <use xlink:href="#DejaVuSans-6f" x="2624.173828"/>
     <use xlink:href="#DejaVuSans-6e" x="2685.355469"/>
    </g>
   </g>
   <g id="legend_1">
    <g id="patch_7">
     <path d="M 1209.605625 327.601562 
L 1384.770625 327.601562 
Q 1387.970625 327.601562 1387.970625 324.401563 
L 1387.970625 279.031563 
Q 1387.970625 275.831563 1384.770625 275.831563 
L 1209.605625 275.831563 
Q 1206.405625 275.831563 1206.405625 279.031563 
L 1206.405625 324.401563 
Q 1206.405625 327.601562 1209.605625 327.601562 
z
" style="fill: #ffffff; opacity: 0.8; stroke: #cccccc; stroke-linejoin: miter"/>
    </g>
    <g id="line2d_14">
     <path d="M 1212.805625 288.789062 
L 1228.805625 288.789062 
L 1244.805625 288.789062 
" style="fill: none; stroke: #1f77b4; stroke-opacity: 0.5; stroke-width: 1.5; stroke-linecap: square"/>
    </g>
    <g id="text_15">
     <!-- real scores -->
     <g transform="translate(1257.605625 294.389063)scale(0.16 -0.16)">
      <defs>
       <path id="DejaVuSans-6c" d="M 603 4863 
L 1178 4863 
L 1178 0 
L 603 0 
L 603 4863 
z
" transform="scale(0.015625)"/>
      </defs>
      <use xlink:href="#DejaVuSans-72"/>
      <use xlink:href="#DejaVuSans-65" x="38.863281"/>
      <use xlink:href="#DejaVuSans-61" x="100.386719"/>
      <use xlink:href="#DejaVuSans-6c" x="161.666016"/>
      <use xlink:href="#DejaVuSans-20" x="189.449219"/>
      <use xlink:href="#DejaVuSans-73" x="221.236328"/>
      <use xlink:href="#DejaVuSans-63" x="273.335938"/>
      <use xlink:href="#DejaVuSans-6f" x="328.316406"/>
      <use xlink:href="#DejaVuSans-72" x="389.498047"/>
      <use xlink:href="#DejaVuSans-65" x="428.361328"/>
      <use xlink:href="#DejaVuSans-73" x="489.884766"/>
     </g>
    </g>
    <g id="line2d_15">
     <path d="M 1212.805625 312.274063 
L 1228.805625 312.274063 
L 1244.805625 312.274063 
" style="fill: none; stroke: #ff7f0e; stroke-width: 1.5; stroke-linecap: square"/>
    </g>
    <g id="text_16">
     <!-- predicted score -->
     <g transform="translate(1257.605625 317.874063)scale(0.16 -0.16)">
      <use xlink:href="#DejaVuSans-70"/>
      <use xlink:href="#DejaVuSans-72" x="63.476562"/>
      <use xlink:href="#DejaVuSans-65" x="102.339844"/>
      <use xlink:href="#DejaVuSans-64" x="163.863281"/>
      <use xlink:href="#DejaVuSans-69" x="227.339844"/>
      <use xlink:href="#DejaVuSans-63" x="255.123047"/>
      <use xlink:href="#DejaVuSans-74" x="310.103516"/>
      <use xlink:href="#DejaVuSans-65" x="349.3125"/>
      <use xlink:href="#DejaVuSans-64" x="410.835938"/>
      <use xlink:href="#DejaVuSans-20" x="474.3125"/>
      <use xlink:href="#DejaVuSans-73" x="506.099609"/>
      <use xlink:href="#DejaVuSans-63" x="558.199219"/>
      <use xlink:href="#DejaVuSans-6f" x="613.179688"/>
      <use xlink:href="#DejaVuSans-72" x="674.361328"/>
      <use xlink:href="#DejaVuSans-65" x="713.224609"/>
     </g>
    </g>
   </g>
  </g>
 </g>
 <defs>
  <clipPath id="p1a532ee55e">
   <rect x="71.245625" y="29.916562" width="1116" height="543.6"/>
  </clipPath>
 </defs>
</svg>
