<?xml version="1.0" encoding="utf-8" standalone="no"?>
<!DOCTYPE svg PUBLIC "-//W3C//DTD SVG 1.1//EN"
  "http://www.w3.org/Graphics/SVG/1.1/DTD/svg11.dtd">
<svg xmlns:xlink="http://www.w3.org/1999/xlink" width="772.446875pt" height="263.63625pt" viewBox="0 0 772.446875 263.63625" xmlns="http://www.w3.org/2000/svg" version="1.1">
 <metadata>
  <rdf:RDF xmlns:dc="http://purl.org/dc/elements/1.1/" xmlns:cc="http://creativecommons.org/ns#" xmlns:rdf="http://www.w3.org/1999/02/22-rdf-syntax-ns#">
   <cc:Work>
    <dc:type rdf:resource="http://purl.org/dc/dcmitype/StillImage"/>
    <dc:date>2022-12-02T10:22:52.289289</dc:date>
    <dc:format>image/svg+xml</dc:format>
    <dc:creator>
     <cc:Agent>
      <dc:title>Matplotlib v3.5.3, https://matplotlib.org/</dc:title>
     </cc:Agent>
    </dc:creator>
   </cc:Work>
  </rdf:RDF>
 </metadata>
 <defs>
  <style type="text/css">*{stroke-linejoin: round; stroke-linecap: butt}</style>
 </defs>
 <g id="figure_1">
  <g id="patch_1">
   <path d="M 0 263.63625 
L 772.446875 263.63625 
L 772.446875 0 
L 0 0 
L 0 263.63625 
z
" style="fill: none"/>
  </g>
  <g id="axes_1">
   <g id="patch_2">
    <path d="M 30.103125 239.758125 
L 364.903125 239.758125 
L 364.903125 22.318125 
L 30.103125 22.318125 
z
" style="fill: #ffffff"/>
   </g>
   <g id="matplotlib.axis_1">
    <g id="xtick_1">
     <g id="line2d_1">
      <defs>
       <path id="m00c5951173" d="M 0 0 
L 0 3.5 
" style="stroke: #000000; stroke-width: 0.8"/>
      </defs>
      <g>
       <use xlink:href="#m00c5951173" x="65.612216" y="239.758125" style="stroke: #000000; stroke-width: 0.8"/>
      </g>
     </g>
     <g id="text_1">
      <!-- 2 -->
      <g transform="translate(62.430966 254.356563)scale(0.1 -0.1)">
       <defs>
        <path id="DejaVuSans-32" d="M 1228 531 
L 3431 531 
L 3431 0 
L 469 0 
L 469 531 
Q 828 903 1448 1529 
Q 2069 2156 2228 2338 
Q 2531 2678 2651 2914 
Q 2772 3150 2772 3378 
Q 2772 3750 2511 3984 
Q 2250 4219 1831 4219 
Q 1534 4219 1204 4116 
Q 875 4013 500 3803 
L 500 4441 
Q 881 4594 1212 4672 
Q 1544 4750 1819 4750 
Q 2544 4750 2975 4387 
Q 3406 4025 3406 3419 
Q 3406 3131 3298 2873 
Q 3191 2616 2906 2266 
Q 2828 2175 2409 1742 
Q 1991 1309 1228 531 
z
" transform="scale(0.015625)"/>
       </defs>
       <use xlink:href="#DejaVuSans-32"/>
      </g>
     </g>
    </g>
    <g id="xtick_2">
     <g id="line2d_2">
      <g>
       <use xlink:href="#m00c5951173" x="106.194034" y="239.758125" style="stroke: #000000; stroke-width: 0.8"/>
      </g>
     </g>
     <g id="text_2">
      <!-- 4 -->
      <g transform="translate(103.012784 254.356563)scale(0.1 -0.1)">
       <defs>
        <path id="DejaVuSans-34" d="M 2419 4116 
L 825 1625 
L 2419 1625 
L 2419 4116 
z
M 2253 4666 
L 3047 4666 
L 3047 1625 
L 3713 1625 
L 3713 1100 
L 3047 1100 
L 3047 0 
L 2419 0 
L 2419 1100 
L 313 1100 
L 313 1709 
L 2253 4666 
z
" transform="scale(0.015625)"/>
       </defs>
       <use xlink:href="#DejaVuSans-34"/>
      </g>
     </g>
    </g>
    <g id="xtick_3">
     <g id="line2d_3">
      <g>
       <use xlink:href="#m00c5951173" x="146.775852" y="239.758125" style="stroke: #000000; stroke-width: 0.8"/>
      </g>
     </g>
     <g id="text_3">
      <!-- 6 -->
      <g transform="translate(143.594602 254.356563)scale(0.1 -0.1)">
       <defs>
        <path id="DejaVuSans-36" d="M 2113 2584 
Q 1688 2584 1439 2293 
Q 1191 2003 1191 1497 
Q 1191 994 1439 701 
Q 1688 409 2113 409 
Q 2538 409 2786 701 
Q 3034 994 3034 1497 
Q 3034 2003 2786 2293 
Q 2538 2584 2113 2584 
z
M 3366 4563 
L 3366 3988 
Q 3128 4100 2886 4159 
Q 2644 4219 2406 4219 
Q 1781 4219 1451 3797 
Q 1122 3375 1075 2522 
Q 1259 2794 1537 2939 
Q 1816 3084 2150 3084 
Q 2853 3084 3261 2657 
Q 3669 2231 3669 1497 
Q 3669 778 3244 343 
Q 2819 -91 2113 -91 
Q 1303 -91 875 529 
Q 447 1150 447 2328 
Q 447 3434 972 4092 
Q 1497 4750 2381 4750 
Q 2619 4750 2861 4703 
Q 3103 4656 3366 4563 
z
" transform="scale(0.015625)"/>
       </defs>
       <use xlink:href="#DejaVuSans-36"/>
      </g>
     </g>
    </g>
    <g id="xtick_4">
     <g id="line2d_4">
      <g>
       <use xlink:href="#m00c5951173" x="187.35767" y="239.758125" style="stroke: #000000; stroke-width: 0.8"/>
      </g>
     </g>
     <g id="text_4">
      <!-- 8 -->
      <g transform="translate(184.17642 254.356563)scale(0.1 -0.1)">
       <defs>
        <path id="DejaVuSans-38" d="M 2034 2216 
Q 1584 2216 1326 1975 
Q 1069 1734 1069 1313 
Q 1069 891 1326 650 
Q 1584 409 2034 409 
Q 2484 409 2743 651 
Q 3003 894 3003 1313 
Q 3003 1734 2745 1975 
Q 2488 2216 2034 2216 
z
M 1403 2484 
Q 997 2584 770 2862 
Q 544 3141 544 3541 
Q 544 4100 942 4425 
Q 1341 4750 2034 4750 
Q 2731 4750 3128 4425 
Q 3525 4100 3525 3541 
Q 3525 3141 3298 2862 
Q 3072 2584 2669 2484 
Q 3125 2378 3379 2068 
Q 3634 1759 3634 1313 
Q 3634 634 3220 271 
Q 2806 -91 2034 -91 
Q 1263 -91 848 271 
Q 434 634 434 1313 
Q 434 1759 690 2068 
Q 947 2378 1403 2484 
z
M 1172 3481 
Q 1172 3119 1398 2916 
Q 1625 2713 2034 2713 
Q 2441 2713 2670 2916 
Q 2900 3119 2900 3481 
Q 2900 3844 2670 4047 
Q 2441 4250 2034 4250 
Q 1625 4250 1398 4047 
Q 1172 3844 1172 3481 
z
" transform="scale(0.015625)"/>
       </defs>
       <use xlink:href="#DejaVuSans-38"/>
      </g>
     </g>
    </g>
    <g id="xtick_5">
     <g id="line2d_5">
      <g>
       <use xlink:href="#m00c5951173" x="227.939489" y="239.758125" style="stroke: #000000; stroke-width: 0.8"/>
      </g>
     </g>
     <g id="text_5">
      <!-- 10 -->
      <g transform="translate(221.576989 254.356563)scale(0.1 -0.1)">
       <defs>
        <path id="DejaVuSans-31" d="M 794 531 
L 1825 531 
L 1825 4091 
L 703 3866 
L 703 4441 
L 1819 4666 
L 2450 4666 
L 2450 531 
L 3481 531 
L 3481 0 
L 794 0 
L 794 531 
z
" transform="scale(0.015625)"/>
        <path id="DejaVuSans-30" d="M 2034 4250 
Q 1547 4250 1301 3770 
Q 1056 3291 1056 2328 
Q 1056 1369 1301 889 
Q 1547 409 2034 409 
Q 2525 409 2770 889 
Q 3016 1369 3016 2328 
Q 3016 3291 2770 3770 
Q 2525 4250 2034 4250 
z
M 2034 4750 
Q 2819 4750 3233 4129 
Q 3647 3509 3647 2328 
Q 3647 1150 3233 529 
Q 2819 -91 2034 -91 
Q 1250 -91 836 529 
Q 422 1150 422 2328 
Q 422 3509 836 4129 
Q 1250 4750 2034 4750 
z
" transform="scale(0.015625)"/>
       </defs>
       <use xlink:href="#DejaVuSans-31"/>
       <use xlink:href="#DejaVuSans-30" x="63.623047"/>
      </g>
     </g>
    </g>
    <g id="xtick_6">
     <g id="line2d_6">
      <g>
       <use xlink:href="#m00c5951173" x="268.521307" y="239.758125" style="stroke: #000000; stroke-width: 0.8"/>
      </g>
     </g>
     <g id="text_6">
      <!-- 12 -->
      <g transform="translate(262.158807 254.356563)scale(0.1 -0.1)">
       <use xlink:href="#DejaVuSans-31"/>
       <use xlink:href="#DejaVuSans-32" x="63.623047"/>
      </g>
     </g>
    </g>
    <g id="xtick_7">
     <g id="line2d_7">
      <g>
       <use xlink:href="#m00c5951173" x="309.103125" y="239.758125" style="stroke: #000000; stroke-width: 0.8"/>
      </g>
     </g>
     <g id="text_7">
      <!-- 14 -->
      <g transform="translate(302.740625 254.356563)scale(0.1 -0.1)">
       <use xlink:href="#DejaVuSans-31"/>
       <use xlink:href="#DejaVuSans-34" x="63.623047"/>
      </g>
     </g>
    </g>
    <g id="xtick_8">
     <g id="line2d_8">
      <g>
       <use xlink:href="#m00c5951173" x="349.684943" y="239.758125" style="stroke: #000000; stroke-width: 0.8"/>
      </g>
     </g>
     <g id="text_8">
      <!-- 16 -->
      <g transform="translate(343.322443 254.356563)scale(0.1 -0.1)">
       <use xlink:href="#DejaVuSans-31"/>
       <use xlink:href="#DejaVuSans-36" x="63.623047"/>
      </g>
     </g>
    </g>
   </g>
   <g id="matplotlib.axis_2">
    <g id="ytick_1">
     <g id="line2d_9">
      <defs>
       <path id="m129aab3bad" d="M 0 0 
L -3.5 0 
" style="stroke: #000000; stroke-width: 0.8"/>
      </defs>
      <g>
       <use xlink:href="#m129aab3bad" x="30.103125" y="229.874489" style="stroke: #000000; stroke-width: 0.8"/>
      </g>
     </g>
     <g id="text_9">
      <!-- 0.0 -->
      <g transform="translate(7.2 233.673707)scale(0.1 -0.1)">
       <defs>
        <path id="DejaVuSans-2e" d="M 684 794 
L 1344 794 
L 1344 0 
L 684 0 
L 684 794 
z
" transform="scale(0.015625)"/>
       </defs>
       <use xlink:href="#DejaVuSans-30"/>
       <use xlink:href="#DejaVuSans-2e" x="63.623047"/>
       <use xlink:href="#DejaVuSans-30" x="95.410156"/>
      </g>
     </g>
    </g>
    <g id="ytick_2">
     <g id="line2d_10">
      <g>
       <use xlink:href="#m129aab3bad" x="30.103125" y="190.339943" style="stroke: #000000; stroke-width: 0.8"/>
      </g>
     </g>
     <g id="text_10">
      <!-- 0.2 -->
      <g transform="translate(7.2 194.139162)scale(0.1 -0.1)">
       <use xlink:href="#DejaVuSans-30"/>
       <use xlink:href="#DejaVuSans-2e" x="63.623047"/>
       <use xlink:href="#DejaVuSans-32" x="95.410156"/>
      </g>
     </g>
    </g>
    <g id="ytick_3">
     <g id="line2d_11">
      <g>
       <use xlink:href="#m129aab3bad" x="30.103125" y="150.805398" style="stroke: #000000; stroke-width: 0.8"/>
      </g>
     </g>
     <g id="text_11">
      <!-- 0.4 -->
      <g transform="translate(7.2 154.604616)scale(0.1 -0.1)">
       <use xlink:href="#DejaVuSans-30"/>
       <use xlink:href="#DejaVuSans-2e" x="63.623047"/>
       <use xlink:href="#DejaVuSans-34" x="95.410156"/>
      </g>
     </g>
    </g>
    <g id="ytick_4">
     <g id="line2d_12">
      <g>
       <use xlink:href="#m129aab3bad" x="30.103125" y="111.270852" style="stroke: #000000; stroke-width: 0.8"/>
      </g>
     </g>
     <g id="text_12">
      <!-- 0.6 -->
      <g transform="translate(7.2 115.070071)scale(0.1 -0.1)">
       <use xlink:href="#DejaVuSans-30"/>
       <use xlink:href="#DejaVuSans-2e" x="63.623047"/>
       <use xlink:href="#DejaVuSans-36" x="95.410156"/>
      </g>
     </g>
    </g>
    <g id="ytick_5">
     <g id="line2d_13">
      <g>
       <use xlink:href="#m129aab3bad" x="30.103125" y="71.736307" style="stroke: #000000; stroke-width: 0.8"/>
      </g>
     </g>
     <g id="text_13">
      <!-- 0.8 -->
      <g transform="translate(7.2 75.535526)scale(0.1 -0.1)">
       <use xlink:href="#DejaVuSans-30"/>
       <use xlink:href="#DejaVuSans-2e" x="63.623047"/>
       <use xlink:href="#DejaVuSans-38" x="95.410156"/>
      </g>
     </g>
    </g>
    <g id="ytick_6">
     <g id="line2d_14">
      <g>
       <use xlink:href="#m129aab3bad" x="30.103125" y="32.201761" style="stroke: #000000; stroke-width: 0.8"/>
      </g>
     </g>
     <g id="text_14">
      <!-- 1.0 -->
      <g transform="translate(7.2 36.00098)scale(0.1 -0.1)">
       <use xlink:href="#DejaVuSans-31"/>
       <use xlink:href="#DejaVuSans-2e" x="63.623047"/>
       <use xlink:href="#DejaVuSans-30" x="95.410156"/>
      </g>
     </g>
    </g>
   </g>
   <g id="line2d_15">
    <path d="M 45.321307 116.918644 
L 65.612216 108.575315 
L 85.903125 102.485398 
L 106.194034 151.919047 
L 126.484943 158.712307 
L 146.775852 194.991066 
L 167.066761 168.376307 
L 187.35767 190.751761 
L 207.64858 178.47958 
L 227.939489 161.118757 
L 248.230398 140.83272 
L 268.521307 163.44349 
L 288.812216 168.937783 
L 309.103125 172.274489 
L 329.394034 173.396567 
L 349.684943 180.456307 
" clip-path="url(#peac4019a36)" style="fill: none; stroke: #1f77b4; stroke-width: 1.5; stroke-linecap: square"/>
   </g>
   <g id="line2d_16">
    <path d="M 45.321307 53.380982 
L 65.612216 122.053001 
L 85.903125 146.41267 
L 106.194034 154.70317 
L 126.484943 142.898489 
L 146.775852 160.107644 
L 167.066761 172.769034 
L 187.35767 161.924489 
L 207.64858 95.457034 
L 227.939489 92.363026 
L 248.230398 82.065152 
L 268.521307 98.63276 
L 288.812216 122.863689 
L 309.103125 138.238125 
L 329.394034 140.023249 
L 349.684943 148.334489 
" clip-path="url(#peac4019a36)" style="fill: none; stroke: #ff7f0e; stroke-width: 1.5; stroke-linecap: square"/>
   </g>
   <g id="line2d_17">
    <path d="M 45.321307 102.799164 
L 65.612216 108.575315 
L 85.903125 89.307216 
L 106.194034 143.566678 
L 126.484943 129.720307 
L 146.775852 150.805398 
L 167.066761 135.430852 
L 187.35767 137.215398 
L 207.64858 144.875216 
L 227.939489 133.616465 
L 248.230398 135.490213 
L 268.521307 144.000271 
L 288.812216 127.322472 
L 309.103125 122.529034 
L 329.394034 114.351466 
L 349.684943 119.919034 
" clip-path="url(#peac4019a36)" style="fill: none; stroke: #2ca02c; stroke-width: 1.5; stroke-linecap: square"/>
   </g>
   <g id="line2d_18">
    <path d="M 45.321307 229.874489 
L 65.612216 189.441431 
L 85.903125 181.554489 
L 106.194034 199.249137 
L 126.484943 208.789398 
L 146.775852 194.991066 
L 167.066761 188.14358 
L 187.35767 219.579034 
L 207.64858 194.293398 
L 227.939489 178.30769 
L 248.230398 188.915275 
L 268.521307 197.469124 
L 288.812216 192.717961 
L 309.103125 173.58358 
L 329.394034 157.993497 
L 349.684943 156.98267 
" clip-path="url(#peac4019a36)" style="fill: none; stroke: #d62728; stroke-width: 1.5; stroke-linecap: square"/>
   </g>
   <g id="line2d_19">
    <path d="M 45.321307 173.396567 
L 65.612216 184.948869 
L 85.903125 163.98358 
L 106.194034 168.623784 
L 126.484943 179.797398 
L 146.775852 199.642189 
L 167.066761 201.321761 
L 187.35767 203.106307 
L 207.64858 194.293398 
L 227.939489 197.215516 
L 248.230398 194.257781 
L 268.521307 221.773147 
L 288.812216 210.553094 
L 309.103125 199.765398 
L 329.394034 193.933993 
L 349.684943 196.517216 
" clip-path="url(#peac4019a36)" style="fill: none; stroke: #9467bd; stroke-width: 1.5; stroke-linecap: square"/>
   </g>
   <g id="line2d_20">
    <path d="M 45.321307 173.396567 
L 65.612216 144.515811 
L 85.903125 93.699943 
L 106.194034 137.998432 
L 126.484943 127.08467 
L 146.775852 127.549783 
L 167.066761 98.09267 
L 187.35767 112.506307 
L 207.64858 105.34067 
L 227.939489 114.708639 
L 248.230398 117.68186 
L 268.521307 132.658393 
L 288.812216 143.671344 
L 309.103125 143.474489 
L 329.394034 132.321714 
L 349.684943 140.921761 
" clip-path="url(#peac4019a36)" style="fill: none; stroke: #8c564b; stroke-width: 1.5; stroke-linecap: square"/>
   </g>
   <g id="line2d_21">
    <path d="M 45.321307 95.739424 
L 65.612216 157.993497 
L 85.903125 159.590852 
L 106.194034 213.169751 
L 126.484943 229.874489 
L 146.775852 227.548927 
L 167.066761 192.536307 
L 187.35767 190.751761 
L 207.64858 180.456307 
L 227.939489 176.588797 
L 248.230398 153.298567 
L 268.521307 174.785368 
L 288.812216 180.827872 
L 309.103125 167.038125 
L 329.394034 156.709908 
L 349.684943 164.395398 
" clip-path="url(#peac4019a36)" style="fill: none; stroke: #e377c2; stroke-width: 1.5; stroke-linecap: square"/>
   </g>
   <g id="line2d_22">
    <path d="M 45.321307 67.500463 
L 65.612216 122.053001 
L 85.903125 146.41267 
L 106.194034 168.623784 
L 126.484943 190.339943 
L 146.775852 190.339943 
L 167.066761 179.358125 
L 187.35767 178.397216 
L 207.64858 162.665761 
L 227.939489 149.086504 
L 248.230398 147.956061 
L 268.521307 163.44349 
L 288.812216 171.910305 
L 309.103125 165.729034 
L 329.394034 155.426319 
L 349.684943 144.628125 
" clip-path="url(#peac4019a36)" style="fill: none; stroke: #7f7f7f; stroke-width: 1.5; stroke-linecap: square"/>
   </g>
   <g id="line2d_23">
    <path d="M 45.321307 180.456307 
L 65.612216 171.471183 
L 85.903125 155.198125 
L 106.194034 168.623784 
L 126.484943 185.06867 
L 146.775852 176.386574 
L 167.066761 155.198125 
L 187.35767 194.869943 
L 207.64858 186.386489 
L 227.939489 152.524291 
L 248.230398 124.805201 
L 268.521307 155.342149 
L 288.812216 152.588911 
L 309.103125 150.019943 
L 329.394034 145.157606 
L 349.684943 140.921761 
" clip-path="url(#peac4019a36)" style="fill: none; stroke: #bcbd22; stroke-width: 1.5; stroke-linecap: square"/>
   </g>
   <g id="line2d_24">
    <path d="M 45.321307 109.858904 
L 65.612216 63.649695 
L 85.903125 102.485398 
L 106.194034 151.919047 
L 126.484943 158.712307 
L 146.775852 162.433205 
L 167.066761 153.001761 
L 187.35767 182.515398 
L 207.64858 180.456307 
L 227.939489 185.183263 
L 248.230398 180.011098 
L 268.521307 189.367782 
L 288.812216 183.800394 
L 309.103125 178.819943 
L 329.394034 182.381691 
L 349.684943 180.456307 
" clip-path="url(#peac4019a36)" style="fill: none; stroke: #17becf; stroke-width: 1.5; stroke-linecap: square"/>
   </g>
   <g id="line2d_25">
    <path d="M 45.321307 32.201761 
L 65.612216 32.201761 
L 85.903125 32.201761 
L 106.194034 104.588957 
L 126.484943 111.270852 
L 146.775852 106.619729 
L 167.066761 82.718125 
L 187.35767 104.269943 
L 207.64858 105.34067 
L 227.939489 109.551959 
L 248.230398 117.68186 
L 268.521307 134.278662 
L 288.812216 145.157606 
L 309.103125 146.09267 
L 329.394034 145.157606 
L 349.684943 148.334489 
" clip-path="url(#peac4019a36)" style="fill: none; stroke: #1f77b4; stroke-width: 1.5; stroke-linecap: square"/>
   </g>
   <g id="line2d_26">
    <path d="M 45.321307 152.217346 
L 65.612216 166.978621 
L 85.903125 199.125398 
L 106.194034 165.839661 
L 126.484943 174.526125 
L 146.775852 197.316628 
L 167.066761 190.339943 
L 187.35767 221.638125 
L 207.64858 229.874489 
L 227.939489 219.561129 
L 248.230398 219.189476 
L 268.521307 213.671806 
L 288.812216 215.011878 
L 309.103125 222.019943 
L 329.394034 215.755008 
L 349.684943 223.697216 
" clip-path="url(#peac4019a36)" style="fill: none; stroke: #ff7f0e; stroke-width: 1.5; stroke-linecap: square"/>
   </g>
   <g id="line2d_27">
    <path d="M 45.321307 60.440722 
L 65.612216 77.127381 
L 85.903125 71.736307 
L 106.194034 129.646064 
L 126.484943 129.720307 
L 146.775852 157.782082 
L 167.066761 170.57267 
L 187.35767 153.688125 
L 207.64858 148.82867 
L 227.939489 131.897572 
L 248.230398 121.24353 
L 268.521307 152.101612 
L 288.812216 154.075172 
L 309.103125 165.729034 
L 329.394034 165.695032 
L 349.684943 180.456307 
" clip-path="url(#peac4019a36)" style="fill: none; stroke: #2ca02c; stroke-width: 1.5; stroke-linecap: square"/>
   </g>
   <g id="line2d_28">
    <path d="M 45.321307 145.157606 
L 65.612216 117.560439 
L 85.903125 120.056307 
L 106.194034 68.395359 
L 126.484943 71.736307 
L 146.775852 78.712991 
L 167.066761 62.950852 
L 187.35767 87.797216 
L 207.64858 71.736307 
L 227.939489 70.017414 
L 248.230398 44.667609 
L 268.521307 69.467931 
L 288.812216 79.762117 
L 309.103125 89.801761 
L 329.394034 79.694559 
L 349.684943 74.207216 
" clip-path="url(#peac4019a36)" style="fill: none; stroke: #d62728; stroke-width: 1.5; stroke-linecap: square"/>
   </g>
   <g id="line2d_29">
    <path d="M 45.321307 166.336826 
L 65.612216 171.471183 
L 85.903125 181.554489 
L 106.194034 182.544399 
L 126.484943 129.720307 
L 146.775852 141.503152 
L 167.066761 128.841761 
L 187.35767 151.629034 
L 207.64858 131.038125 
L 227.939489 133.616465 
L 248.230398 123.024366 
L 268.521307 135.89893 
L 288.812216 146.643867 
L 309.103125 159.18358 
L 329.394034 154.142729 
L 349.684943 145.86358 
" clip-path="url(#peac4019a36)" style="fill: none; stroke: #9467bd; stroke-width: 1.5; stroke-linecap: square"/>
   </g>
   <g id="line2d_30">
    <path d="M 45.321307 81.619943 
L 65.612216 135.530687 
L 85.903125 115.66358 
L 106.194034 132.430186 
L 126.484943 137.627216 
L 146.775852 113.596414 
L 167.066761 131.038125 
L 187.35767 110.447216 
L 207.64858 101.387216 
L 227.939489 116.427532 
L 248.230398 69.599304 
L 268.521307 97.012492 
L 288.812216 82.734639 
L 309.103125 83.256307 
L 329.394034 61.724312 
L 349.684943 68.029943 
" clip-path="url(#peac4019a36)" style="fill: none; stroke: #8c564b; stroke-width: 1.5; stroke-linecap: square"/>
   </g>
   <g id="line2d_31">
    <path d="M 45.321307 88.679683 
L 65.612216 81.619943 
L 85.903125 62.950852 
L 106.194034 90.668343 
L 126.484943 116.542125 
L 146.775852 125.224221 
L 167.066761 80.521761 
L 187.35767 112.506307 
L 207.64858 97.433761 
L 227.939489 52.828481 
L 248.230398 50.010115 
L 268.521307 32.201761 
L 288.812216 32.201761 
L 309.103125 32.201761 
L 329.394034 32.201761 
L 349.684943 37.14358 
" clip-path="url(#peac4019a36)" style="fill: none; stroke: #e377c2; stroke-width: 1.5; stroke-linecap: square"/>
   </g>
   <g id="line2d_32">
    <path d="M 45.321307 102.799164 
L 65.612216 90.605067 
L 85.903125 106.878125 
L 106.194034 160.271416 
L 126.484943 166.619216 
L 146.775852 167.084328 
L 167.066761 185.947216 
L 187.35767 221.638125 
L 207.64858 229.874489 
L 227.939489 229.874489 
L 248.230398 229.874489 
L 268.521307 228.25422 
L 288.812216 219.470661 
L 309.103125 220.710852 
L 329.394034 208.053473 
L 349.684943 203.929943 
" clip-path="url(#peac4019a36)" style="fill: none; stroke: #7f7f7f; stroke-width: 1.5; stroke-linecap: square"/>
   </g>
   <g id="line2d_33">
    <path d="M 45.321307 81.619943 
L 65.612216 95.097629 
L 85.903125 120.056307 
L 106.194034 115.725449 
L 126.484943 98.09267 
L 146.775852 104.294168 
L 167.066761 69.539943 
L 187.35767 56.910852 
L 207.64858 32.201761 
L 227.939489 32.201761 
L 248.230398 32.201761 
L 268.521307 32.201761 
L 288.812216 36.660545 
L 309.103125 55.765398 
L 329.394034 38.619707 
L 349.684943 32.201761 
" clip-path="url(#peac4019a36)" style="fill: none; stroke: #bcbd22; stroke-width: 1.5; stroke-linecap: square"/>
   </g>
   <g id="line2d_34">
    <path d="M 45.321307 173.396567 
L 65.612216 175.963745 
L 85.903125 172.769034 
L 106.194034 190.896768 
L 126.484943 206.153761 
L 146.775852 204.293312 
L 167.066761 205.714489 
L 187.35767 227.815398 
L 207.64858 200.22358 
L 227.939489 197.215516 
L 248.230398 169.326086 
L 268.521307 197.469124 
L 288.812216 164.479 
L 309.103125 155.256307 
L 329.394034 152.85914 
L 349.684943 143.39267 
" clip-path="url(#peac4019a36)" style="fill: none; stroke: #17becf; stroke-width: 1.5; stroke-linecap: square"/>
   </g>
   <g id="line2d_35">
    <path d="M 45.321307 123.978385 
L 65.612216 166.978621 
L 85.903125 155.198125 
L 106.194034 176.976153 
L 126.484943 203.518125 
L 146.775852 229.874489 
L 167.066761 207.910852 
L 187.35767 219.579034 
L 207.64858 219.990852 
L 227.939489 209.247769 
L 248.230398 192.476946 
L 268.521307 215.292074 
L 288.812216 197.176744 
L 309.103125 194.529034 
L 329.394034 192.650404 
L 349.684943 195.281761 
" clip-path="url(#peac4019a36)" style="fill: none; stroke: #1f77b4; stroke-width: 1.5; stroke-linecap: square"/>
   </g>
   <g id="line2d_36">
    <path d="M 45.321307 222.814748 
L 65.612216 140.023249 
L 85.903125 84.914489 
L 106.194034 121.293695 
L 126.484943 127.08467 
L 146.775852 134.526467 
L 167.066761 137.627216 
L 187.35767 172.219943 
L 207.64858 146.851943 
L 227.939489 142.210931 
L 248.230398 119.462695 
L 268.521307 108.354369 
L 288.812216 105.028556 
L 309.103125 119.910852 
L 329.394034 111.784288 
L 349.684943 129.80267 
" clip-path="url(#peac4019a36)" style="fill: none; stroke: #ff7f0e; stroke-width: 1.5; stroke-linecap: square"/>
   </g>
   <g id="line2d_37">
    <path d="M 45.321307 116.918644 
L 65.612216 131.038125 
L 85.903125 137.627216 
L 106.194034 179.760276 
L 126.484943 169.254852 
L 146.775852 178.712136 
L 167.066761 170.57267 
L 187.35767 186.63358 
L 207.64858 196.270125 
L 227.939489 197.215516 
L 248.230398 176.449427 
L 268.521307 166.684027 
L 288.812216 162.992739 
L 309.103125 163.110852 
L 329.394034 164.411443 
L 349.684943 174.279034 
" clip-path="url(#peac4019a36)" style="fill: none; stroke: #2ca02c; stroke-width: 1.5; stroke-linecap: square"/>
   </g>
   <g id="line2d_38">
    <path d="M 45.321307 67.500463 
L 65.612216 90.605067 
L 85.903125 93.699943 
L 106.194034 115.725449 
L 126.484943 98.09267 
L 146.775852 101.968606 
L 167.066761 111.270852 
L 187.35767 102.210852 
L 207.64858 95.457034 
L 227.939489 107.833066 
L 248.230398 106.996847 
L 268.521307 116.455711 
L 288.812216 90.165945 
L 309.103125 102.89267 
L 329.394034 84.828916 
L 349.684943 87.797216 
" clip-path="url(#peac4019a36)" style="fill: none; stroke: #d62728; stroke-width: 1.5; stroke-linecap: square"/>
   </g>
   <g id="line2d_39">
    <path d="M 45.321307 208.695268 
L 65.612216 193.933993 
L 85.903125 137.627216 
L 106.194034 168.623784 
L 126.484943 124.449034 
L 146.775852 160.107644 
L 167.066761 161.787216 
L 187.35767 186.63358 
L 207.64858 190.339943 
L 227.939489 171.432117 
L 248.230398 172.887756 
L 268.521307 182.886709 
L 288.812216 179.341611 
L 309.103125 155.256307 
L 329.394034 152.85914 
L 349.684943 154.511761 
" clip-path="url(#peac4019a36)" style="fill: none; stroke: #9467bd; stroke-width: 1.5; stroke-linecap: square"/>
   </g>
   <g id="line2d_40">
    <path d="M 45.321307 194.575787 
L 65.612216 153.500935 
L 85.903125 159.590852 
L 106.194034 176.976153 
L 126.484943 211.425034 
L 146.775852 225.223366 
L 167.066761 203.518125 
L 187.35767 190.751761 
L 207.64858 178.47958 
L 227.939489 173.15101 
L 248.230398 165.764415 
L 268.521307 153.721881 
L 288.812216 140.698822 
L 309.103125 138.238125 
L 329.394034 128.470947 
L 349.684943 127.331761 
" clip-path="url(#peac4019a36)" style="fill: none; stroke: #8c564b; stroke-width: 1.5; stroke-linecap: square"/>
   </g>
   <g id="line2d_41">
    <path d="M 45.321307 131.038125 
L 65.612216 68.142257 
L 85.903125 76.129034 
L 106.194034 32.201761 
L 126.484943 48.01558 
L 146.775852 55.457376 
L 167.066761 71.736307 
L 187.35767 114.565398 
L 207.64858 97.433761 
L 227.939489 102.676386 
L 248.230398 96.311835 
L 268.521307 116.455711 
L 288.812216 127.322472 
L 309.103125 131.69267 
L 329.394034 123.33659 
L 349.684943 122.389943 
" clip-path="url(#peac4019a36)" style="fill: none; stroke: #e377c2; stroke-width: 1.5; stroke-linecap: square"/>
   </g>
   <g id="line2d_42">
    <path d="M 45.321307 102.799164 
L 65.612216 140.023249 
L 85.903125 172.769034 
L 106.194034 171.407907 
L 126.484943 177.161761 
L 146.775852 181.037697 
L 167.066761 157.394489 
L 187.35767 168.101761 
L 207.64858 166.619216 
L 227.939489 159.399864 
L 248.230398 144.39439 
L 268.521307 152.101612 
L 288.812216 155.561433 
L 309.103125 164.419943 
L 329.394034 163.127853 
L 349.684943 161.924489 
" clip-path="url(#peac4019a36)" style="fill: none; stroke: #7f7f7f; stroke-width: 1.5; stroke-linecap: square"/>
   </g>
   <g id="line2d_43">
    <path d="M 45.321307 215.755008 
L 65.612216 189.441431 
L 85.903125 155.198125 
L 106.194034 182.544399 
L 126.484943 190.339943 
L 146.775852 167.084328 
L 167.066761 142.019943 
L 187.35767 143.39267 
L 207.64858 123.131216 
L 227.939489 135.335358 
L 248.230398 115.901024 
L 268.521307 147.240808 
L 288.812216 160.020217 
L 309.103125 163.110852 
L 329.394034 154.142729 
L 349.684943 149.569943 
" clip-path="url(#peac4019a36)" style="fill: none; stroke: #bcbd22; stroke-width: 1.5; stroke-linecap: square"/>
   </g>
   <g id="line2d_44">
    <path d="M 45.321307 208.695268 
L 65.612216 229.874489 
L 85.903125 229.874489 
L 106.194034 229.874489 
L 126.484943 203.518125 
L 146.775852 208.944435 
L 167.066761 210.107216 
L 187.35767 229.874489 
L 207.64858 225.921034 
L 227.939489 222.998916 
L 248.230398 219.189476 
L 268.521307 229.874489 
L 288.812216 229.874489 
L 309.103125 229.874489 
L 329.394034 229.874489 
L 349.684943 229.874489 
" clip-path="url(#peac4019a36)" style="fill: none; stroke: #17becf; stroke-width: 1.5; stroke-linecap: square"/>
   </g>
   <g id="line2d_45">
    <path d="M 45.321307 95.739424 
L 65.612216 90.605067 
L 85.903125 71.736307 
L 106.194034 54.474745 
L 126.484943 32.201761 
L 146.775852 32.201761 
L 167.066761 32.201761 
L 187.35767 32.201761 
L 207.64858 48.01558 
L 227.939489 64.860734 
L 248.230398 57.133457 
L 268.521307 61.36659 
L 288.812216 70.84455 
L 309.103125 79.329034 
L 329.394034 71.993025 
L 349.684943 66.794489 
" clip-path="url(#peac4019a36)" style="fill: none; stroke: #1f77b4; stroke-width: 1.5; stroke-linecap: square"/>
   </g>
   <g id="line2d_46">
    <path d="M 45.321307 173.396567 
L 65.612216 193.933993 
L 85.903125 203.518125 
L 106.194034 210.385628 
L 126.484943 219.331943 
L 146.775852 222.897804 
L 167.066761 229.874489 
L 187.35767 198.988125 
L 207.64858 204.177034 
L 227.939489 195.496623 
L 248.230398 213.84697 
L 268.521307 207.190733 
L 288.812216 194.204222 
L 309.103125 194.529034 
L 329.394034 178.530923 
L 349.684943 156.98267 
" clip-path="url(#peac4019a36)" style="fill: none; stroke: #ff7f0e; stroke-width: 1.5; stroke-linecap: square"/>
   </g>
   <g id="patch_3">
    <path d="M 30.103125 239.758125 
L 30.103125 22.318125 
" style="fill: none; stroke: #000000; stroke-width: 0.8; stroke-linejoin: miter; stroke-linecap: square"/>
   </g>
   <g id="patch_4">
    <path d="M 364.903125 239.758125 
L 364.903125 22.318125 
" style="fill: none; stroke: #000000; stroke-width: 0.8; stroke-linejoin: miter; stroke-linecap: square"/>
   </g>
   <g id="patch_5">
    <path d="M 30.103125 239.758125 
L 364.903125 239.758125 
" style="fill: none; stroke: #000000; stroke-width: 0.8; stroke-linejoin: miter; stroke-linecap: square"/>
   </g>
   <g id="patch_6">
    <path d="M 30.103125 22.318125 
L 364.903125 22.318125 
" style="fill: none; stroke: #000000; stroke-width: 0.8; stroke-linejoin: miter; stroke-linecap: square"/>
   </g>
   <g id="text_15">
    <!-- 2015 -->
    <g transform="translate(182.233125 16.318125)scale(0.12 -0.12)">
     <defs>
      <path id="DejaVuSans-35" d="M 691 4666 
L 3169 4666 
L 3169 4134 
L 1269 4134 
L 1269 2991 
Q 1406 3038 1543 3061 
Q 1681 3084 1819 3084 
Q 2600 3084 3056 2656 
Q 3513 2228 3513 1497 
Q 3513 744 3044 326 
Q 2575 -91 1722 -91 
Q 1428 -91 1123 -41 
Q 819 9 494 109 
L 494 744 
Q 775 591 1075 516 
Q 1375 441 1709 441 
Q 2250 441 2565 725 
Q 2881 1009 2881 1497 
Q 2881 1984 2565 2268 
Q 2250 2553 1709 2553 
Q 1456 2553 1204 2497 
Q 953 2441 691 2322 
L 691 4666 
z
" transform="scale(0.015625)"/>
     </defs>
     <use xlink:href="#DejaVuSans-32"/>
     <use xlink:href="#DejaVuSans-30" x="63.623047"/>
     <use xlink:href="#DejaVuSans-31" x="127.246094"/>
     <use xlink:href="#DejaVuSans-35" x="190.869141"/>
    </g>
   </g>
   <g id="legend_1">
    <g id="patch_7">
     <path d="M 455.603125 249.963125 
L 763.246875 249.963125 
Q 765.246875 249.963125 765.246875 247.963125 
L 765.246875 14.113125 
Q 765.246875 12.113125 763.246875 12.113125 
L 455.603125 12.113125 
Q 453.603125 12.113125 453.603125 14.113125 
L 453.603125 247.963125 
Q 453.603125 249.963125 455.603125 249.963125 
z
" style="fill: #ffffff; opacity: 0.8; stroke: #cccccc; stroke-linejoin: miter"/>
    </g>
    <g id="line2d_47">
     <path d="M 457.603125 20.211563 
L 467.603125 20.211563 
L 477.603125 20.211563 
" style="fill: none; stroke: #1f77b4; stroke-width: 1.5; stroke-linecap: square"/>
    </g>
    <g id="text_16">
     <!-- Arizona Cardinals -->
     <g transform="translate(485.603125 23.711563)scale(0.1 -0.1)">
      <defs>
       <path id="DejaVuSans-41" d="M 2188 4044 
L 1331 1722 
L 3047 1722 
L 2188 4044 
z
M 1831 4666 
L 2547 4666 
L 4325 0 
L 3669 0 
L 3244 1197 
L 1141 1197 
L 716 0 
L 50 0 
L 1831 4666 
z
" transform="scale(0.015625)"/>
       <path id="DejaVuSans-72" d="M 2631 2963 
Q 2534 3019 2420 3045 
Q 2306 3072 2169 3072 
Q 1681 3072 1420 2755 
Q 1159 2438 1159 1844 
L 1159 0 
L 581 0 
L 581 3500 
L 1159 3500 
L 1159 2956 
Q 1341 3275 1631 3429 
Q 1922 3584 2338 3584 
Q 2397 3584 2469 3576 
Q 2541 3569 2628 3553 
L 2631 2963 
z
" transform="scale(0.015625)"/>
       <path id="DejaVuSans-69" d="M 603 3500 
L 1178 3500 
L 1178 0 
L 603 0 
L 603 3500 
z
M 603 4863 
L 1178 4863 
L 1178 4134 
L 603 4134 
L 603 4863 
z
" transform="scale(0.015625)"/>
       <path id="DejaVuSans-7a" d="M 353 3500 
L 3084 3500 
L 3084 2975 
L 922 459 
L 3084 459 
L 3084 0 
L 275 0 
L 275 525 
L 2438 3041 
L 353 3041 
L 353 3500 
z
" transform="scale(0.015625)"/>
       <path id="DejaVuSans-6f" d="M 1959 3097 
Q 1497 3097 1228 2736 
Q 959 2375 959 1747 
Q 959 1119 1226 758 
Q 1494 397 1959 397 
Q 2419 397 2687 759 
Q 2956 1122 2956 1747 
Q 2956 2369 2687 2733 
Q 2419 3097 1959 3097 
z
M 1959 3584 
Q 2709 3584 3137 3096 
Q 3566 2609 3566 1747 
Q 3566 888 3137 398 
Q 2709 -91 1959 -91 
Q 1206 -91 779 398 
Q 353 888 353 1747 
Q 353 2609 779 3096 
Q 1206 3584 1959 3584 
z
" transform="scale(0.015625)"/>
       <path id="DejaVuSans-6e" d="M 3513 2113 
L 3513 0 
L 2938 0 
L 2938 2094 
Q 2938 2591 2744 2837 
Q 2550 3084 2163 3084 
Q 1697 3084 1428 2787 
Q 1159 2491 1159 1978 
L 1159 0 
L 581 0 
L 581 3500 
L 1159 3500 
L 1159 2956 
Q 1366 3272 1645 3428 
Q 1925 3584 2291 3584 
Q 2894 3584 3203 3211 
Q 3513 2838 3513 2113 
z
" transform="scale(0.015625)"/>
       <path id="DejaVuSans-61" d="M 2194 1759 
Q 1497 1759 1228 1600 
Q 959 1441 959 1056 
Q 959 750 1161 570 
Q 1363 391 1709 391 
Q 2188 391 2477 730 
Q 2766 1069 2766 1631 
L 2766 1759 
L 2194 1759 
z
M 3341 1997 
L 3341 0 
L 2766 0 
L 2766 531 
Q 2569 213 2275 61 
Q 1981 -91 1556 -91 
Q 1019 -91 701 211 
Q 384 513 384 1019 
Q 384 1609 779 1909 
Q 1175 2209 1959 2209 
L 2766 2209 
L 2766 2266 
Q 2766 2663 2505 2880 
Q 2244 3097 1772 3097 
Q 1472 3097 1187 3025 
Q 903 2953 641 2809 
L 641 3341 
Q 956 3463 1253 3523 
Q 1550 3584 1831 3584 
Q 2591 3584 2966 3190 
Q 3341 2797 3341 1997 
z
" transform="scale(0.015625)"/>
       <path id="DejaVuSans-20" transform="scale(0.015625)"/>
       <path id="DejaVuSans-43" d="M 4122 4306 
L 4122 3641 
Q 3803 3938 3442 4084 
Q 3081 4231 2675 4231 
Q 1875 4231 1450 3742 
Q 1025 3253 1025 2328 
Q 1025 1406 1450 917 
Q 1875 428 2675 428 
Q 3081 428 3442 575 
Q 3803 722 4122 1019 
L 4122 359 
Q 3791 134 3420 21 
Q 3050 -91 2638 -91 
Q 1578 -91 968 557 
Q 359 1206 359 2328 
Q 359 3453 968 4101 
Q 1578 4750 2638 4750 
Q 3056 4750 3426 4639 
Q 3797 4528 4122 4306 
z
" transform="scale(0.015625)"/>
       <path id="DejaVuSans-64" d="M 2906 2969 
L 2906 4863 
L 3481 4863 
L 3481 0 
L 2906 0 
L 2906 525 
Q 2725 213 2448 61 
Q 2172 -91 1784 -91 
Q 1150 -91 751 415 
Q 353 922 353 1747 
Q 353 2572 751 3078 
Q 1150 3584 1784 3584 
Q 2172 3584 2448 3432 
Q 2725 3281 2906 2969 
z
M 947 1747 
Q 947 1113 1208 752 
Q 1469 391 1925 391 
Q 2381 391 2643 752 
Q 2906 1113 2906 1747 
Q 2906 2381 2643 2742 
Q 2381 3103 1925 3103 
Q 1469 3103 1208 2742 
Q 947 2381 947 1747 
z
" transform="scale(0.015625)"/>
       <path id="DejaVuSans-6c" d="M 603 4863 
L 1178 4863 
L 1178 0 
L 603 0 
L 603 4863 
z
" transform="scale(0.015625)"/>
       <path id="DejaVuSans-73" d="M 2834 3397 
L 2834 2853 
Q 2591 2978 2328 3040 
Q 2066 3103 1784 3103 
Q 1356 3103 1142 2972 
Q 928 2841 928 2578 
Q 928 2378 1081 2264 
Q 1234 2150 1697 2047 
L 1894 2003 
Q 2506 1872 2764 1633 
Q 3022 1394 3022 966 
Q 3022 478 2636 193 
Q 2250 -91 1575 -91 
Q 1294 -91 989 -36 
Q 684 19 347 128 
L 347 722 
Q 666 556 975 473 
Q 1284 391 1588 391 
Q 1994 391 2212 530 
Q 2431 669 2431 922 
Q 2431 1156 2273 1281 
Q 2116 1406 1581 1522 
L 1381 1569 
Q 847 1681 609 1914 
Q 372 2147 372 2553 
Q 372 3047 722 3315 
Q 1072 3584 1716 3584 
Q 2034 3584 2315 3537 
Q 2597 3491 2834 3397 
z
" transform="scale(0.015625)"/>
      </defs>
      <use xlink:href="#DejaVuSans-41"/>
      <use xlink:href="#DejaVuSans-72" x="68.408203"/>
      <use xlink:href="#DejaVuSans-69" x="109.521484"/>
      <use xlink:href="#DejaVuSans-7a" x="137.304688"/>
      <use xlink:href="#DejaVuSans-6f" x="189.794922"/>
      <use xlink:href="#DejaVuSans-6e" x="250.976562"/>
      <use xlink:href="#DejaVuSans-61" x="314.355469"/>
      <use xlink:href="#DejaVuSans-20" x="375.634766"/>
      <use xlink:href="#DejaVuSans-43" x="407.421875"/>
      <use xlink:href="#DejaVuSans-61" x="477.246094"/>
      <use xlink:href="#DejaVuSans-72" x="538.525391"/>
      <use xlink:href="#DejaVuSans-64" x="577.888672"/>
      <use xlink:href="#DejaVuSans-69" x="641.365234"/>
      <use xlink:href="#DejaVuSans-6e" x="669.148438"/>
      <use xlink:href="#DejaVuSans-61" x="732.527344"/>
      <use xlink:href="#DejaVuSans-6c" x="793.806641"/>
      <use xlink:href="#DejaVuSans-73" x="821.589844"/>
     </g>
    </g>
    <g id="line2d_48">
     <path d="M 457.603125 34.889688 
L 467.603125 34.889688 
L 477.603125 34.889688 
" style="fill: none; stroke: #ff7f0e; stroke-width: 1.5; stroke-linecap: square"/>
    </g>
    <g id="text_17">
     <!-- Atlanta Falcons -->
     <g transform="translate(485.603125 38.389688)scale(0.1 -0.1)">
      <defs>
       <path id="DejaVuSans-74" d="M 1172 4494 
L 1172 3500 
L 2356 3500 
L 2356 3053 
L 1172 3053 
L 1172 1153 
Q 1172 725 1289 603 
Q 1406 481 1766 481 
L 2356 481 
L 2356 0 
L 1766 0 
Q 1100 0 847 248 
Q 594 497 594 1153 
L 594 3053 
L 172 3053 
L 172 3500 
L 594 3500 
L 594 4494 
L 1172 4494 
z
" transform="scale(0.015625)"/>
       <path id="DejaVuSans-46" d="M 628 4666 
L 3309 4666 
L 3309 4134 
L 1259 4134 
L 1259 2759 
L 3109 2759 
L 3109 2228 
L 1259 2228 
L 1259 0 
L 628 0 
L 628 4666 
z
" transform="scale(0.015625)"/>
       <path id="DejaVuSans-63" d="M 3122 3366 
L 3122 2828 
Q 2878 2963 2633 3030 
Q 2388 3097 2138 3097 
Q 1578 3097 1268 2742 
Q 959 2388 959 1747 
Q 959 1106 1268 751 
Q 1578 397 2138 397 
Q 2388 397 2633 464 
Q 2878 531 3122 666 
L 3122 134 
Q 2881 22 2623 -34 
Q 2366 -91 2075 -91 
Q 1284 -91 818 406 
Q 353 903 353 1747 
Q 353 2603 823 3093 
Q 1294 3584 2113 3584 
Q 2378 3584 2631 3529 
Q 2884 3475 3122 3366 
z
" transform="scale(0.015625)"/>
      </defs>
      <use xlink:href="#DejaVuSans-41"/>
      <use xlink:href="#DejaVuSans-74" x="66.658203"/>
      <use xlink:href="#DejaVuSans-6c" x="105.867188"/>
      <use xlink:href="#DejaVuSans-61" x="133.650391"/>
      <use xlink:href="#DejaVuSans-6e" x="194.929688"/>
      <use xlink:href="#DejaVuSans-74" x="258.308594"/>
      <use xlink:href="#DejaVuSans-61" x="297.517578"/>
      <use xlink:href="#DejaVuSans-20" x="358.796875"/>
      <use xlink:href="#DejaVuSans-46" x="390.583984"/>
      <use xlink:href="#DejaVuSans-61" x="438.978516"/>
      <use xlink:href="#DejaVuSans-6c" x="500.257812"/>
      <use xlink:href="#DejaVuSans-63" x="528.041016"/>
      <use xlink:href="#DejaVuSans-6f" x="583.021484"/>
      <use xlink:href="#DejaVuSans-6e" x="644.203125"/>
      <use xlink:href="#DejaVuSans-73" x="707.582031"/>
     </g>
    </g>
    <g id="line2d_49">
     <path d="M 457.603125 49.567813 
L 467.603125 49.567813 
L 477.603125 49.567813 
" style="fill: none; stroke: #2ca02c; stroke-width: 1.5; stroke-linecap: square"/>
    </g>
    <g id="text_18">
     <!-- Baltimore Ravens -->
     <g transform="translate(485.603125 53.067813)scale(0.1 -0.1)">
      <defs>
       <path id="DejaVuSans-42" d="M 1259 2228 
L 1259 519 
L 2272 519 
Q 2781 519 3026 730 
Q 3272 941 3272 1375 
Q 3272 1813 3026 2020 
Q 2781 2228 2272 2228 
L 1259 2228 
z
M 1259 4147 
L 1259 2741 
L 2194 2741 
Q 2656 2741 2882 2914 
Q 3109 3088 3109 3444 
Q 3109 3797 2882 3972 
Q 2656 4147 2194 4147 
L 1259 4147 
z
M 628 4666 
L 2241 4666 
Q 2963 4666 3353 4366 
Q 3744 4066 3744 3513 
Q 3744 3084 3544 2831 
Q 3344 2578 2956 2516 
Q 3422 2416 3680 2098 
Q 3938 1781 3938 1306 
Q 3938 681 3513 340 
Q 3088 0 2303 0 
L 628 0 
L 628 4666 
z
" transform="scale(0.015625)"/>
       <path id="DejaVuSans-6d" d="M 3328 2828 
Q 3544 3216 3844 3400 
Q 4144 3584 4550 3584 
Q 5097 3584 5394 3201 
Q 5691 2819 5691 2113 
L 5691 0 
L 5113 0 
L 5113 2094 
Q 5113 2597 4934 2840 
Q 4756 3084 4391 3084 
Q 3944 3084 3684 2787 
Q 3425 2491 3425 1978 
L 3425 0 
L 2847 0 
L 2847 2094 
Q 2847 2600 2669 2842 
Q 2491 3084 2119 3084 
Q 1678 3084 1418 2786 
Q 1159 2488 1159 1978 
L 1159 0 
L 581 0 
L 581 3500 
L 1159 3500 
L 1159 2956 
Q 1356 3278 1631 3431 
Q 1906 3584 2284 3584 
Q 2666 3584 2933 3390 
Q 3200 3197 3328 2828 
z
" transform="scale(0.015625)"/>
       <path id="DejaVuSans-65" d="M 3597 1894 
L 3597 1613 
L 953 1613 
Q 991 1019 1311 708 
Q 1631 397 2203 397 
Q 2534 397 2845 478 
Q 3156 559 3463 722 
L 3463 178 
Q 3153 47 2828 -22 
Q 2503 -91 2169 -91 
Q 1331 -91 842 396 
Q 353 884 353 1716 
Q 353 2575 817 3079 
Q 1281 3584 2069 3584 
Q 2775 3584 3186 3129 
Q 3597 2675 3597 1894 
z
M 3022 2063 
Q 3016 2534 2758 2815 
Q 2500 3097 2075 3097 
Q 1594 3097 1305 2825 
Q 1016 2553 972 2059 
L 3022 2063 
z
" transform="scale(0.015625)"/>
       <path id="DejaVuSans-52" d="M 2841 2188 
Q 3044 2119 3236 1894 
Q 3428 1669 3622 1275 
L 4263 0 
L 3584 0 
L 2988 1197 
Q 2756 1666 2539 1819 
Q 2322 1972 1947 1972 
L 1259 1972 
L 1259 0 
L 628 0 
L 628 4666 
L 2053 4666 
Q 2853 4666 3247 4331 
Q 3641 3997 3641 3322 
Q 3641 2881 3436 2590 
Q 3231 2300 2841 2188 
z
M 1259 4147 
L 1259 2491 
L 2053 2491 
Q 2509 2491 2742 2702 
Q 2975 2913 2975 3322 
Q 2975 3731 2742 3939 
Q 2509 4147 2053 4147 
L 1259 4147 
z
" transform="scale(0.015625)"/>
       <path id="DejaVuSans-76" d="M 191 3500 
L 800 3500 
L 1894 563 
L 2988 3500 
L 3597 3500 
L 2284 0 
L 1503 0 
L 191 3500 
z
" transform="scale(0.015625)"/>
      </defs>
      <use xlink:href="#DejaVuSans-42"/>
      <use xlink:href="#DejaVuSans-61" x="68.603516"/>
      <use xlink:href="#DejaVuSans-6c" x="129.882812"/>
      <use xlink:href="#DejaVuSans-74" x="157.666016"/>
      <use xlink:href="#DejaVuSans-69" x="196.875"/>
      <use xlink:href="#DejaVuSans-6d" x="224.658203"/>
      <use xlink:href="#DejaVuSans-6f" x="322.070312"/>
      <use xlink:href="#DejaVuSans-72" x="383.251953"/>
      <use xlink:href="#DejaVuSans-65" x="422.115234"/>
      <use xlink:href="#DejaVuSans-20" x="483.638672"/>
      <use xlink:href="#DejaVuSans-52" x="515.425781"/>
      <use xlink:href="#DejaVuSans-61" x="582.658203"/>
      <use xlink:href="#DejaVuSans-76" x="643.9375"/>
      <use xlink:href="#DejaVuSans-65" x="703.117188"/>
      <use xlink:href="#DejaVuSans-6e" x="764.640625"/>
      <use xlink:href="#DejaVuSans-73" x="828.019531"/>
     </g>
    </g>
    <g id="line2d_50">
     <path d="M 457.603125 64.245938 
L 467.603125 64.245938 
L 477.603125 64.245938 
" style="fill: none; stroke: #d62728; stroke-width: 1.5; stroke-linecap: square"/>
    </g>
    <g id="text_19">
     <!-- Buffalo Bills -->
     <g transform="translate(485.603125 67.745938)scale(0.1 -0.1)">
      <defs>
       <path id="DejaVuSans-75" d="M 544 1381 
L 544 3500 
L 1119 3500 
L 1119 1403 
Q 1119 906 1312 657 
Q 1506 409 1894 409 
Q 2359 409 2629 706 
Q 2900 1003 2900 1516 
L 2900 3500 
L 3475 3500 
L 3475 0 
L 2900 0 
L 2900 538 
Q 2691 219 2414 64 
Q 2138 -91 1772 -91 
Q 1169 -91 856 284 
Q 544 659 544 1381 
z
M 1991 3584 
L 1991 3584 
z
" transform="scale(0.015625)"/>
       <path id="DejaVuSans-66" d="M 2375 4863 
L 2375 4384 
L 1825 4384 
Q 1516 4384 1395 4259 
Q 1275 4134 1275 3809 
L 1275 3500 
L 2222 3500 
L 2222 3053 
L 1275 3053 
L 1275 0 
L 697 0 
L 697 3053 
L 147 3053 
L 147 3500 
L 697 3500 
L 697 3744 
Q 697 4328 969 4595 
Q 1241 4863 1831 4863 
L 2375 4863 
z
" transform="scale(0.015625)"/>
      </defs>
      <use xlink:href="#DejaVuSans-42"/>
      <use xlink:href="#DejaVuSans-75" x="68.603516"/>
      <use xlink:href="#DejaVuSans-66" x="131.982422"/>
      <use xlink:href="#DejaVuSans-66" x="167.1875"/>
      <use xlink:href="#DejaVuSans-61" x="202.392578"/>
      <use xlink:href="#DejaVuSans-6c" x="263.671875"/>
      <use xlink:href="#DejaVuSans-6f" x="291.455078"/>
      <use xlink:href="#DejaVuSans-20" x="352.636719"/>
      <use xlink:href="#DejaVuSans-42" x="384.423828"/>
      <use xlink:href="#DejaVuSans-69" x="453.027344"/>
      <use xlink:href="#DejaVuSans-6c" x="480.810547"/>
      <use xlink:href="#DejaVuSans-6c" x="508.59375"/>
      <use xlink:href="#DejaVuSans-73" x="536.376953"/>
     </g>
    </g>
    <g id="line2d_51">
     <path d="M 457.603125 78.924063 
L 467.603125 78.924063 
L 477.603125 78.924063 
" style="fill: none; stroke: #9467bd; stroke-width: 1.5; stroke-linecap: square"/>
    </g>
    <g id="text_20">
     <!-- Carolina Panthers -->
     <g transform="translate(485.603125 82.424063)scale(0.1 -0.1)">
      <defs>
       <path id="DejaVuSans-50" d="M 1259 4147 
L 1259 2394 
L 2053 2394 
Q 2494 2394 2734 2622 
Q 2975 2850 2975 3272 
Q 2975 3691 2734 3919 
Q 2494 4147 2053 4147 
L 1259 4147 
z
M 628 4666 
L 2053 4666 
Q 2838 4666 3239 4311 
Q 3641 3956 3641 3272 
Q 3641 2581 3239 2228 
Q 2838 1875 2053 1875 
L 1259 1875 
L 1259 0 
L 628 0 
L 628 4666 
z
" transform="scale(0.015625)"/>
       <path id="DejaVuSans-68" d="M 3513 2113 
L 3513 0 
L 2938 0 
L 2938 2094 
Q 2938 2591 2744 2837 
Q 2550 3084 2163 3084 
Q 1697 3084 1428 2787 
Q 1159 2491 1159 1978 
L 1159 0 
L 581 0 
L 581 4863 
L 1159 4863 
L 1159 2956 
Q 1366 3272 1645 3428 
Q 1925 3584 2291 3584 
Q 2894 3584 3203 3211 
Q 3513 2838 3513 2113 
z
" transform="scale(0.015625)"/>
      </defs>
      <use xlink:href="#DejaVuSans-43"/>
      <use xlink:href="#DejaVuSans-61" x="69.824219"/>
      <use xlink:href="#DejaVuSans-72" x="131.103516"/>
      <use xlink:href="#DejaVuSans-6f" x="169.966797"/>
      <use xlink:href="#DejaVuSans-6c" x="231.148438"/>
      <use xlink:href="#DejaVuSans-69" x="258.931641"/>
      <use xlink:href="#DejaVuSans-6e" x="286.714844"/>
      <use xlink:href="#DejaVuSans-61" x="350.09375"/>
      <use xlink:href="#DejaVuSans-20" x="411.373047"/>
      <use xlink:href="#DejaVuSans-50" x="443.160156"/>
      <use xlink:href="#DejaVuSans-61" x="498.962891"/>
      <use xlink:href="#DejaVuSans-6e" x="560.242188"/>
      <use xlink:href="#DejaVuSans-74" x="623.621094"/>
      <use xlink:href="#DejaVuSans-68" x="662.830078"/>
      <use xlink:href="#DejaVuSans-65" x="726.208984"/>
      <use xlink:href="#DejaVuSans-72" x="787.732422"/>
      <use xlink:href="#DejaVuSans-73" x="828.845703"/>
     </g>
    </g>
    <g id="line2d_52">
     <path d="M 457.603125 93.602188 
L 467.603125 93.602188 
L 477.603125 93.602188 
" style="fill: none; stroke: #8c564b; stroke-width: 1.5; stroke-linecap: square"/>
    </g>
    <g id="text_21">
     <!-- Chicago Bears -->
     <g transform="translate(485.603125 97.102188)scale(0.1 -0.1)">
      <defs>
       <path id="DejaVuSans-67" d="M 2906 1791 
Q 2906 2416 2648 2759 
Q 2391 3103 1925 3103 
Q 1463 3103 1205 2759 
Q 947 2416 947 1791 
Q 947 1169 1205 825 
Q 1463 481 1925 481 
Q 2391 481 2648 825 
Q 2906 1169 2906 1791 
z
M 3481 434 
Q 3481 -459 3084 -895 
Q 2688 -1331 1869 -1331 
Q 1566 -1331 1297 -1286 
Q 1028 -1241 775 -1147 
L 775 -588 
Q 1028 -725 1275 -790 
Q 1522 -856 1778 -856 
Q 2344 -856 2625 -561 
Q 2906 -266 2906 331 
L 2906 616 
Q 2728 306 2450 153 
Q 2172 0 1784 0 
Q 1141 0 747 490 
Q 353 981 353 1791 
Q 353 2603 747 3093 
Q 1141 3584 1784 3584 
Q 2172 3584 2450 3431 
Q 2728 3278 2906 2969 
L 2906 3500 
L 3481 3500 
L 3481 434 
z
" transform="scale(0.015625)"/>
      </defs>
      <use xlink:href="#DejaVuSans-43"/>
      <use xlink:href="#DejaVuSans-68" x="69.824219"/>
      <use xlink:href="#DejaVuSans-69" x="133.203125"/>
      <use xlink:href="#DejaVuSans-63" x="160.986328"/>
      <use xlink:href="#DejaVuSans-61" x="215.966797"/>
      <use xlink:href="#DejaVuSans-67" x="277.246094"/>
      <use xlink:href="#DejaVuSans-6f" x="340.722656"/>
      <use xlink:href="#DejaVuSans-20" x="401.904297"/>
      <use xlink:href="#DejaVuSans-42" x="433.691406"/>
      <use xlink:href="#DejaVuSans-65" x="502.294922"/>
      <use xlink:href="#DejaVuSans-61" x="563.818359"/>
      <use xlink:href="#DejaVuSans-72" x="625.097656"/>
      <use xlink:href="#DejaVuSans-73" x="666.210938"/>
     </g>
    </g>
    <g id="line2d_53">
     <path d="M 457.603125 108.280313 
L 467.603125 108.280313 
L 477.603125 108.280313 
" style="fill: none; stroke: #e377c2; stroke-width: 1.5; stroke-linecap: square"/>
    </g>
    <g id="text_22">
     <!-- Cincinnati Bengals -->
     <g transform="translate(485.603125 111.780313)scale(0.1 -0.1)">
      <use xlink:href="#DejaVuSans-43"/>
      <use xlink:href="#DejaVuSans-69" x="69.824219"/>
      <use xlink:href="#DejaVuSans-6e" x="97.607422"/>
      <use xlink:href="#DejaVuSans-63" x="160.986328"/>
      <use xlink:href="#DejaVuSans-69" x="215.966797"/>
      <use xlink:href="#DejaVuSans-6e" x="243.75"/>
      <use xlink:href="#DejaVuSans-6e" x="307.128906"/>
      <use xlink:href="#DejaVuSans-61" x="370.507812"/>
      <use xlink:href="#DejaVuSans-74" x="431.787109"/>
      <use xlink:href="#DejaVuSans-69" x="470.996094"/>
      <use xlink:href="#DejaVuSans-20" x="498.779297"/>
      <use xlink:href="#DejaVuSans-42" x="530.566406"/>
      <use xlink:href="#DejaVuSans-65" x="599.169922"/>
      <use xlink:href="#DejaVuSans-6e" x="660.693359"/>
      <use xlink:href="#DejaVuSans-67" x="724.072266"/>
      <use xlink:href="#DejaVuSans-61" x="787.548828"/>
      <use xlink:href="#DejaVuSans-6c" x="848.828125"/>
      <use xlink:href="#DejaVuSans-73" x="876.611328"/>
     </g>
    </g>
    <g id="line2d_54">
     <path d="M 457.603125 122.958438 
L 467.603125 122.958438 
L 477.603125 122.958438 
" style="fill: none; stroke: #7f7f7f; stroke-width: 1.5; stroke-linecap: square"/>
    </g>
    <g id="text_23">
     <!-- Cleveland Browns -->
     <g transform="translate(485.603125 126.458438)scale(0.1 -0.1)">
      <defs>
       <path id="DejaVuSans-77" d="M 269 3500 
L 844 3500 
L 1563 769 
L 2278 3500 
L 2956 3500 
L 3675 769 
L 4391 3500 
L 4966 3500 
L 4050 0 
L 3372 0 
L 2619 2869 
L 1863 0 
L 1184 0 
L 269 3500 
z
" transform="scale(0.015625)"/>
      </defs>
      <use xlink:href="#DejaVuSans-43"/>
      <use xlink:href="#DejaVuSans-6c" x="69.824219"/>
      <use xlink:href="#DejaVuSans-65" x="97.607422"/>
      <use xlink:href="#DejaVuSans-76" x="159.130859"/>
      <use xlink:href="#DejaVuSans-65" x="218.310547"/>
      <use xlink:href="#DejaVuSans-6c" x="279.833984"/>
      <use xlink:href="#DejaVuSans-61" x="307.617188"/>
      <use xlink:href="#DejaVuSans-6e" x="368.896484"/>
      <use xlink:href="#DejaVuSans-64" x="432.275391"/>
      <use xlink:href="#DejaVuSans-20" x="495.751953"/>
      <use xlink:href="#DejaVuSans-42" x="527.539062"/>
      <use xlink:href="#DejaVuSans-72" x="596.142578"/>
      <use xlink:href="#DejaVuSans-6f" x="635.005859"/>
      <use xlink:href="#DejaVuSans-77" x="696.1875"/>
      <use xlink:href="#DejaVuSans-6e" x="777.974609"/>
      <use xlink:href="#DejaVuSans-73" x="841.353516"/>
     </g>
    </g>
    <g id="line2d_55">
     <path d="M 457.603125 137.636563 
L 467.603125 137.636563 
L 477.603125 137.636563 
" style="fill: none; stroke: #bcbd22; stroke-width: 1.5; stroke-linecap: square"/>
    </g>
    <g id="text_24">
     <!-- Dallas Cowboys -->
     <g transform="translate(485.603125 141.136563)scale(0.1 -0.1)">
      <defs>
       <path id="DejaVuSans-44" d="M 1259 4147 
L 1259 519 
L 2022 519 
Q 2988 519 3436 956 
Q 3884 1394 3884 2338 
Q 3884 3275 3436 3711 
Q 2988 4147 2022 4147 
L 1259 4147 
z
M 628 4666 
L 1925 4666 
Q 3281 4666 3915 4102 
Q 4550 3538 4550 2338 
Q 4550 1131 3912 565 
Q 3275 0 1925 0 
L 628 0 
L 628 4666 
z
" transform="scale(0.015625)"/>
       <path id="DejaVuSans-62" d="M 3116 1747 
Q 3116 2381 2855 2742 
Q 2594 3103 2138 3103 
Q 1681 3103 1420 2742 
Q 1159 2381 1159 1747 
Q 1159 1113 1420 752 
Q 1681 391 2138 391 
Q 2594 391 2855 752 
Q 3116 1113 3116 1747 
z
M 1159 2969 
Q 1341 3281 1617 3432 
Q 1894 3584 2278 3584 
Q 2916 3584 3314 3078 
Q 3713 2572 3713 1747 
Q 3713 922 3314 415 
Q 2916 -91 2278 -91 
Q 1894 -91 1617 61 
Q 1341 213 1159 525 
L 1159 0 
L 581 0 
L 581 4863 
L 1159 4863 
L 1159 2969 
z
" transform="scale(0.015625)"/>
       <path id="DejaVuSans-79" d="M 2059 -325 
Q 1816 -950 1584 -1140 
Q 1353 -1331 966 -1331 
L 506 -1331 
L 506 -850 
L 844 -850 
Q 1081 -850 1212 -737 
Q 1344 -625 1503 -206 
L 1606 56 
L 191 3500 
L 800 3500 
L 1894 763 
L 2988 3500 
L 3597 3500 
L 2059 -325 
z
" transform="scale(0.015625)"/>
      </defs>
      <use xlink:href="#DejaVuSans-44"/>
      <use xlink:href="#DejaVuSans-61" x="77.001953"/>
      <use xlink:href="#DejaVuSans-6c" x="138.28125"/>
      <use xlink:href="#DejaVuSans-6c" x="166.064453"/>
      <use xlink:href="#DejaVuSans-61" x="193.847656"/>
      <use xlink:href="#DejaVuSans-73" x="255.126953"/>
      <use xlink:href="#DejaVuSans-20" x="307.226562"/>
      <use xlink:href="#DejaVuSans-43" x="339.013672"/>
      <use xlink:href="#DejaVuSans-6f" x="408.837891"/>
      <use xlink:href="#DejaVuSans-77" x="470.019531"/>
      <use xlink:href="#DejaVuSans-62" x="551.806641"/>
      <use xlink:href="#DejaVuSans-6f" x="615.283203"/>
      <use xlink:href="#DejaVuSans-79" x="676.464844"/>
      <use xlink:href="#DejaVuSans-73" x="735.644531"/>
     </g>
    </g>
    <g id="line2d_56">
     <path d="M 457.603125 152.314687 
L 467.603125 152.314687 
L 477.603125 152.314687 
" style="fill: none; stroke: #17becf; stroke-width: 1.5; stroke-linecap: square"/>
    </g>
    <g id="text_25">
     <!-- Denver Broncos -->
     <g transform="translate(485.603125 155.814687)scale(0.1 -0.1)">
      <use xlink:href="#DejaVuSans-44"/>
      <use xlink:href="#DejaVuSans-65" x="77.001953"/>
      <use xlink:href="#DejaVuSans-6e" x="138.525391"/>
      <use xlink:href="#DejaVuSans-76" x="201.904297"/>
      <use xlink:href="#DejaVuSans-65" x="261.083984"/>
      <use xlink:href="#DejaVuSans-72" x="322.607422"/>
      <use xlink:href="#DejaVuSans-20" x="363.720703"/>
      <use xlink:href="#DejaVuSans-42" x="395.507812"/>
      <use xlink:href="#DejaVuSans-72" x="464.111328"/>
      <use xlink:href="#DejaVuSans-6f" x="502.974609"/>
      <use xlink:href="#DejaVuSans-6e" x="564.15625"/>
      <use xlink:href="#DejaVuSans-63" x="627.535156"/>
      <use xlink:href="#DejaVuSans-6f" x="682.515625"/>
      <use xlink:href="#DejaVuSans-73" x="743.697266"/>
     </g>
    </g>
    <g id="line2d_57">
     <path d="M 457.603125 166.992812 
L 467.603125 166.992812 
L 477.603125 166.992812 
" style="fill: none; stroke: #1f77b4; stroke-width: 1.5; stroke-linecap: square"/>
    </g>
    <g id="text_26">
     <!-- Detroit Lions -->
     <g transform="translate(485.603125 170.492812)scale(0.1 -0.1)">
      <defs>
       <path id="DejaVuSans-4c" d="M 628 4666 
L 1259 4666 
L 1259 531 
L 3531 531 
L 3531 0 
L 628 0 
L 628 4666 
z
" transform="scale(0.015625)"/>
      </defs>
      <use xlink:href="#DejaVuSans-44"/>
      <use xlink:href="#DejaVuSans-65" x="77.001953"/>
      <use xlink:href="#DejaVuSans-74" x="138.525391"/>
      <use xlink:href="#DejaVuSans-72" x="177.734375"/>
      <use xlink:href="#DejaVuSans-6f" x="216.597656"/>
      <use xlink:href="#DejaVuSans-69" x="277.779297"/>
      <use xlink:href="#DejaVuSans-74" x="305.5625"/>
      <use xlink:href="#DejaVuSans-20" x="344.771484"/>
      <use xlink:href="#DejaVuSans-4c" x="376.558594"/>
      <use xlink:href="#DejaVuSans-69" x="432.271484"/>
      <use xlink:href="#DejaVuSans-6f" x="460.054688"/>
      <use xlink:href="#DejaVuSans-6e" x="521.236328"/>
      <use xlink:href="#DejaVuSans-73" x="584.615234"/>
     </g>
    </g>
    <g id="line2d_58">
     <path d="M 457.603125 181.670937 
L 467.603125 181.670937 
L 477.603125 181.670937 
" style="fill: none; stroke: #ff7f0e; stroke-width: 1.5; stroke-linecap: square"/>
    </g>
    <g id="text_27">
     <!-- Green Bay Packers -->
     <g transform="translate(485.603125 185.170937)scale(0.1 -0.1)">
      <defs>
       <path id="DejaVuSans-47" d="M 3809 666 
L 3809 1919 
L 2778 1919 
L 2778 2438 
L 4434 2438 
L 4434 434 
Q 4069 175 3628 42 
Q 3188 -91 2688 -91 
Q 1594 -91 976 548 
Q 359 1188 359 2328 
Q 359 3472 976 4111 
Q 1594 4750 2688 4750 
Q 3144 4750 3555 4637 
Q 3966 4525 4313 4306 
L 4313 3634 
Q 3963 3931 3569 4081 
Q 3175 4231 2741 4231 
Q 1884 4231 1454 3753 
Q 1025 3275 1025 2328 
Q 1025 1384 1454 906 
Q 1884 428 2741 428 
Q 3075 428 3337 486 
Q 3600 544 3809 666 
z
" transform="scale(0.015625)"/>
       <path id="DejaVuSans-6b" d="M 581 4863 
L 1159 4863 
L 1159 1991 
L 2875 3500 
L 3609 3500 
L 1753 1863 
L 3688 0 
L 2938 0 
L 1159 1709 
L 1159 0 
L 581 0 
L 581 4863 
z
" transform="scale(0.015625)"/>
      </defs>
      <use xlink:href="#DejaVuSans-47"/>
      <use xlink:href="#DejaVuSans-72" x="77.490234"/>
      <use xlink:href="#DejaVuSans-65" x="116.353516"/>
      <use xlink:href="#DejaVuSans-65" x="177.876953"/>
      <use xlink:href="#DejaVuSans-6e" x="239.400391"/>
      <use xlink:href="#DejaVuSans-20" x="302.779297"/>
      <use xlink:href="#DejaVuSans-42" x="334.566406"/>
      <use xlink:href="#DejaVuSans-61" x="403.169922"/>
      <use xlink:href="#DejaVuSans-79" x="464.449219"/>
      <use xlink:href="#DejaVuSans-20" x="523.628906"/>
      <use xlink:href="#DejaVuSans-50" x="555.416016"/>
      <use xlink:href="#DejaVuSans-61" x="611.21875"/>
      <use xlink:href="#DejaVuSans-63" x="672.498047"/>
      <use xlink:href="#DejaVuSans-6b" x="727.478516"/>
      <use xlink:href="#DejaVuSans-65" x="781.763672"/>
      <use xlink:href="#DejaVuSans-72" x="843.287109"/>
      <use xlink:href="#DejaVuSans-73" x="884.400391"/>
     </g>
    </g>
    <g id="line2d_59">
     <path d="M 457.603125 196.349062 
L 467.603125 196.349062 
L 477.603125 196.349062 
" style="fill: none; stroke: #2ca02c; stroke-width: 1.5; stroke-linecap: square"/>
    </g>
    <g id="text_28">
     <!-- Houston Texans -->
     <g transform="translate(485.603125 199.849062)scale(0.1 -0.1)">
      <defs>
       <path id="DejaVuSans-48" d="M 628 4666 
L 1259 4666 
L 1259 2753 
L 3553 2753 
L 3553 4666 
L 4184 4666 
L 4184 0 
L 3553 0 
L 3553 2222 
L 1259 2222 
L 1259 0 
L 628 0 
L 628 4666 
z
" transform="scale(0.015625)"/>
       <path id="DejaVuSans-54" d="M -19 4666 
L 3928 4666 
L 3928 4134 
L 2272 4134 
L 2272 0 
L 1638 0 
L 1638 4134 
L -19 4134 
L -19 4666 
z
" transform="scale(0.015625)"/>
       <path id="DejaVuSans-78" d="M 3513 3500 
L 2247 1797 
L 3578 0 
L 2900 0 
L 1881 1375 
L 863 0 
L 184 0 
L 1544 1831 
L 300 3500 
L 978 3500 
L 1906 2253 
L 2834 3500 
L 3513 3500 
z
" transform="scale(0.015625)"/>
      </defs>
      <use xlink:href="#DejaVuSans-48"/>
      <use xlink:href="#DejaVuSans-6f" x="75.195312"/>
      <use xlink:href="#DejaVuSans-75" x="136.376953"/>
      <use xlink:href="#DejaVuSans-73" x="199.755859"/>
      <use xlink:href="#DejaVuSans-74" x="251.855469"/>
      <use xlink:href="#DejaVuSans-6f" x="291.064453"/>
      <use xlink:href="#DejaVuSans-6e" x="352.246094"/>
      <use xlink:href="#DejaVuSans-20" x="415.625"/>
      <use xlink:href="#DejaVuSans-54" x="447.412109"/>
      <use xlink:href="#DejaVuSans-65" x="491.496094"/>
      <use xlink:href="#DejaVuSans-78" x="551.269531"/>
      <use xlink:href="#DejaVuSans-61" x="610.449219"/>
      <use xlink:href="#DejaVuSans-6e" x="671.728516"/>
      <use xlink:href="#DejaVuSans-73" x="735.107422"/>
     </g>
    </g>
    <g id="line2d_60">
     <path d="M 457.603125 211.027187 
L 467.603125 211.027187 
L 477.603125 211.027187 
" style="fill: none; stroke: #d62728; stroke-width: 1.5; stroke-linecap: square"/>
    </g>
    <g id="text_29">
     <!-- Indianapolis Colts -->
     <g transform="translate(485.603125 214.527187)scale(0.1 -0.1)">
      <defs>
       <path id="DejaVuSans-49" d="M 628 4666 
L 1259 4666 
L 1259 0 
L 628 0 
L 628 4666 
z
" transform="scale(0.015625)"/>
       <path id="DejaVuSans-70" d="M 1159 525 
L 1159 -1331 
L 581 -1331 
L 581 3500 
L 1159 3500 
L 1159 2969 
Q 1341 3281 1617 3432 
Q 1894 3584 2278 3584 
Q 2916 3584 3314 3078 
Q 3713 2572 3713 1747 
Q 3713 922 3314 415 
Q 2916 -91 2278 -91 
Q 1894 -91 1617 61 
Q 1341 213 1159 525 
z
M 3116 1747 
Q 3116 2381 2855 2742 
Q 2594 3103 2138 3103 
Q 1681 3103 1420 2742 
Q 1159 2381 1159 1747 
Q 1159 1113 1420 752 
Q 1681 391 2138 391 
Q 2594 391 2855 752 
Q 3116 1113 3116 1747 
z
" transform="scale(0.015625)"/>
      </defs>
      <use xlink:href="#DejaVuSans-49"/>
      <use xlink:href="#DejaVuSans-6e" x="29.492188"/>
      <use xlink:href="#DejaVuSans-64" x="92.871094"/>
      <use xlink:href="#DejaVuSans-69" x="156.347656"/>
      <use xlink:href="#DejaVuSans-61" x="184.130859"/>
      <use xlink:href="#DejaVuSans-6e" x="245.410156"/>
      <use xlink:href="#DejaVuSans-61" x="308.789062"/>
      <use xlink:href="#DejaVuSans-70" x="370.068359"/>
      <use xlink:href="#DejaVuSans-6f" x="433.544922"/>
      <use xlink:href="#DejaVuSans-6c" x="494.726562"/>
      <use xlink:href="#DejaVuSans-69" x="522.509766"/>
      <use xlink:href="#DejaVuSans-73" x="550.292969"/>
      <use xlink:href="#DejaVuSans-20" x="602.392578"/>
      <use xlink:href="#DejaVuSans-43" x="634.179688"/>
      <use xlink:href="#DejaVuSans-6f" x="704.003906"/>
      <use xlink:href="#DejaVuSans-6c" x="765.185547"/>
      <use xlink:href="#DejaVuSans-74" x="792.96875"/>
      <use xlink:href="#DejaVuSans-73" x="832.177734"/>
     </g>
    </g>
    <g id="line2d_61">
     <path d="M 457.603125 225.705312 
L 467.603125 225.705312 
L 477.603125 225.705312 
" style="fill: none; stroke: #9467bd; stroke-width: 1.5; stroke-linecap: square"/>
    </g>
    <g id="text_30">
     <!-- Jacksonville Jaguars -->
     <g transform="translate(485.603125 229.205312)scale(0.1 -0.1)">
      <defs>
       <path id="DejaVuSans-4a" d="M 628 4666 
L 1259 4666 
L 1259 325 
Q 1259 -519 939 -900 
Q 619 -1281 -91 -1281 
L -331 -1281 
L -331 -750 
L -134 -750 
Q 284 -750 456 -515 
Q 628 -281 628 325 
L 628 4666 
z
" transform="scale(0.015625)"/>
      </defs>
      <use xlink:href="#DejaVuSans-4a"/>
      <use xlink:href="#DejaVuSans-61" x="29.492188"/>
      <use xlink:href="#DejaVuSans-63" x="90.771484"/>
      <use xlink:href="#DejaVuSans-6b" x="145.751953"/>
      <use xlink:href="#DejaVuSans-73" x="203.662109"/>
      <use xlink:href="#DejaVuSans-6f" x="255.761719"/>
      <use xlink:href="#DejaVuSans-6e" x="316.943359"/>
      <use xlink:href="#DejaVuSans-76" x="380.322266"/>
      <use xlink:href="#DejaVuSans-69" x="439.501953"/>
      <use xlink:href="#DejaVuSans-6c" x="467.285156"/>
      <use xlink:href="#DejaVuSans-6c" x="495.068359"/>
      <use xlink:href="#DejaVuSans-65" x="522.851562"/>
      <use xlink:href="#DejaVuSans-20" x="584.375"/>
      <use xlink:href="#DejaVuSans-4a" x="616.162109"/>
      <use xlink:href="#DejaVuSans-61" x="645.654297"/>
      <use xlink:href="#DejaVuSans-67" x="706.933594"/>
      <use xlink:href="#DejaVuSans-75" x="770.410156"/>
      <use xlink:href="#DejaVuSans-61" x="833.789062"/>
      <use xlink:href="#DejaVuSans-72" x="895.068359"/>
      <use xlink:href="#DejaVuSans-73" x="936.181641"/>
     </g>
    </g>
    <g id="line2d_62">
     <path d="M 457.603125 240.383437 
L 467.603125 240.383437 
L 477.603125 240.383437 
" style="fill: none; stroke: #8c564b; stroke-width: 1.5; stroke-linecap: square"/>
    </g>
    <g id="text_31">
     <!-- Kansas City Chiefs -->
     <g transform="translate(485.603125 243.883437)scale(0.1 -0.1)">
      <defs>
       <path id="DejaVuSans-4b" d="M 628 4666 
L 1259 4666 
L 1259 2694 
L 3353 4666 
L 4166 4666 
L 1850 2491 
L 4331 0 
L 3500 0 
L 1259 2247 
L 1259 0 
L 628 0 
L 628 4666 
z
" transform="scale(0.015625)"/>
      </defs>
      <use xlink:href="#DejaVuSans-4b"/>
      <use xlink:href="#DejaVuSans-61" x="63.826172"/>
      <use xlink:href="#DejaVuSans-6e" x="125.105469"/>
      <use xlink:href="#DejaVuSans-73" x="188.484375"/>
      <use xlink:href="#DejaVuSans-61" x="240.583984"/>
      <use xlink:href="#DejaVuSans-73" x="301.863281"/>
      <use xlink:href="#DejaVuSans-20" x="353.962891"/>
      <use xlink:href="#DejaVuSans-43" x="385.75"/>
      <use xlink:href="#DejaVuSans-69" x="455.574219"/>
      <use xlink:href="#DejaVuSans-74" x="483.357422"/>
      <use xlink:href="#DejaVuSans-79" x="522.566406"/>
      <use xlink:href="#DejaVuSans-20" x="581.746094"/>
      <use xlink:href="#DejaVuSans-43" x="613.533203"/>
      <use xlink:href="#DejaVuSans-68" x="683.357422"/>
      <use xlink:href="#DejaVuSans-69" x="746.736328"/>
      <use xlink:href="#DejaVuSans-65" x="774.519531"/>
      <use xlink:href="#DejaVuSans-66" x="836.042969"/>
      <use xlink:href="#DejaVuSans-73" x="871.248047"/>
     </g>
    </g>
    <g id="line2d_63">
     <path d="M 604.432813 20.211563 
L 614.432813 20.211563 
L 624.432813 20.211563 
" style="fill: none; stroke: #e377c2; stroke-width: 1.5; stroke-linecap: square"/>
    </g>
    <g id="text_32">
     <!-- Las Vegas Raiders -->
     <g transform="translate(632.432813 23.711563)scale(0.1 -0.1)">
      <defs>
       <path id="DejaVuSans-56" d="M 1831 0 
L 50 4666 
L 709 4666 
L 2188 738 
L 3669 4666 
L 4325 4666 
L 2547 0 
L 1831 0 
z
" transform="scale(0.015625)"/>
      </defs>
      <use xlink:href="#DejaVuSans-4c"/>
      <use xlink:href="#DejaVuSans-61" x="55.712891"/>
      <use xlink:href="#DejaVuSans-73" x="116.992188"/>
      <use xlink:href="#DejaVuSans-20" x="169.091797"/>
      <use xlink:href="#DejaVuSans-56" x="200.878906"/>
      <use xlink:href="#DejaVuSans-65" x="261.537109"/>
      <use xlink:href="#DejaVuSans-67" x="323.060547"/>
      <use xlink:href="#DejaVuSans-61" x="386.537109"/>
      <use xlink:href="#DejaVuSans-73" x="447.816406"/>
      <use xlink:href="#DejaVuSans-20" x="499.916016"/>
      <use xlink:href="#DejaVuSans-52" x="531.703125"/>
      <use xlink:href="#DejaVuSans-61" x="598.935547"/>
      <use xlink:href="#DejaVuSans-69" x="660.214844"/>
      <use xlink:href="#DejaVuSans-64" x="687.998047"/>
      <use xlink:href="#DejaVuSans-65" x="751.474609"/>
      <use xlink:href="#DejaVuSans-72" x="812.998047"/>
      <use xlink:href="#DejaVuSans-73" x="854.111328"/>
     </g>
    </g>
    <g id="line2d_64">
     <path d="M 604.432813 34.889688 
L 614.432813 34.889688 
L 624.432813 34.889688 
" style="fill: none; stroke: #7f7f7f; stroke-width: 1.5; stroke-linecap: square"/>
    </g>
    <g id="text_33">
     <!-- Los Angeles Chargers -->
     <g transform="translate(632.432813 38.389688)scale(0.1 -0.1)">
      <use xlink:href="#DejaVuSans-4c"/>
      <use xlink:href="#DejaVuSans-6f" x="53.962891"/>
      <use xlink:href="#DejaVuSans-73" x="115.144531"/>
      <use xlink:href="#DejaVuSans-20" x="167.244141"/>
      <use xlink:href="#DejaVuSans-41" x="199.03125"/>
      <use xlink:href="#DejaVuSans-6e" x="267.439453"/>
      <use xlink:href="#DejaVuSans-67" x="330.818359"/>
      <use xlink:href="#DejaVuSans-65" x="394.294922"/>
      <use xlink:href="#DejaVuSans-6c" x="455.818359"/>
      <use xlink:href="#DejaVuSans-65" x="483.601562"/>
      <use xlink:href="#DejaVuSans-73" x="545.125"/>
      <use xlink:href="#DejaVuSans-20" x="597.224609"/>
      <use xlink:href="#DejaVuSans-43" x="629.011719"/>
      <use xlink:href="#DejaVuSans-68" x="698.835938"/>
      <use xlink:href="#DejaVuSans-61" x="762.214844"/>
      <use xlink:href="#DejaVuSans-72" x="823.494141"/>
      <use xlink:href="#DejaVuSans-67" x="862.857422"/>
      <use xlink:href="#DejaVuSans-65" x="926.333984"/>
      <use xlink:href="#DejaVuSans-72" x="987.857422"/>
      <use xlink:href="#DejaVuSans-73" x="1028.970703"/>
     </g>
    </g>
    <g id="line2d_65">
     <path d="M 604.432813 49.567813 
L 614.432813 49.567813 
L 624.432813 49.567813 
" style="fill: none; stroke: #bcbd22; stroke-width: 1.5; stroke-linecap: square"/>
    </g>
    <g id="text_34">
     <!-- Los Angeles Rams -->
     <g transform="translate(632.432813 53.067813)scale(0.1 -0.1)">
      <use xlink:href="#DejaVuSans-4c"/>
      <use xlink:href="#DejaVuSans-6f" x="53.962891"/>
      <use xlink:href="#DejaVuSans-73" x="115.144531"/>
      <use xlink:href="#DejaVuSans-20" x="167.244141"/>
      <use xlink:href="#DejaVuSans-41" x="199.03125"/>
      <use xlink:href="#DejaVuSans-6e" x="267.439453"/>
      <use xlink:href="#DejaVuSans-67" x="330.818359"/>
      <use xlink:href="#DejaVuSans-65" x="394.294922"/>
      <use xlink:href="#DejaVuSans-6c" x="455.818359"/>
      <use xlink:href="#DejaVuSans-65" x="483.601562"/>
      <use xlink:href="#DejaVuSans-73" x="545.125"/>
      <use xlink:href="#DejaVuSans-20" x="597.224609"/>
      <use xlink:href="#DejaVuSans-52" x="629.011719"/>
      <use xlink:href="#DejaVuSans-61" x="696.244141"/>
      <use xlink:href="#DejaVuSans-6d" x="757.523438"/>
      <use xlink:href="#DejaVuSans-73" x="854.935547"/>
     </g>
    </g>
    <g id="line2d_66">
     <path d="M 604.432813 64.245938 
L 614.432813 64.245938 
L 624.432813 64.245938 
" style="fill: none; stroke: #17becf; stroke-width: 1.5; stroke-linecap: square"/>
    </g>
    <g id="text_35">
     <!-- Miami Dolphins -->
     <g transform="translate(632.432813 67.745938)scale(0.1 -0.1)">
      <defs>
       <path id="DejaVuSans-4d" d="M 628 4666 
L 1569 4666 
L 2759 1491 
L 3956 4666 
L 4897 4666 
L 4897 0 
L 4281 0 
L 4281 4097 
L 3078 897 
L 2444 897 
L 1241 4097 
L 1241 0 
L 628 0 
L 628 4666 
z
" transform="scale(0.015625)"/>
      </defs>
      <use xlink:href="#DejaVuSans-4d"/>
      <use xlink:href="#DejaVuSans-69" x="86.279297"/>
      <use xlink:href="#DejaVuSans-61" x="114.0625"/>
      <use xlink:href="#DejaVuSans-6d" x="175.341797"/>
      <use xlink:href="#DejaVuSans-69" x="272.753906"/>
      <use xlink:href="#DejaVuSans-20" x="300.537109"/>
      <use xlink:href="#DejaVuSans-44" x="332.324219"/>
      <use xlink:href="#DejaVuSans-6f" x="409.326172"/>
      <use xlink:href="#DejaVuSans-6c" x="470.507812"/>
      <use xlink:href="#DejaVuSans-70" x="498.291016"/>
      <use xlink:href="#DejaVuSans-68" x="561.767578"/>
      <use xlink:href="#DejaVuSans-69" x="625.146484"/>
      <use xlink:href="#DejaVuSans-6e" x="652.929688"/>
      <use xlink:href="#DejaVuSans-73" x="716.308594"/>
     </g>
    </g>
    <g id="line2d_67">
     <path d="M 604.432813 78.924063 
L 614.432813 78.924063 
L 624.432813 78.924063 
" style="fill: none; stroke: #1f77b4; stroke-width: 1.5; stroke-linecap: square"/>
    </g>
    <g id="text_36">
     <!-- Minnesota Vikings -->
     <g transform="translate(632.432813 82.424063)scale(0.1 -0.1)">
      <use xlink:href="#DejaVuSans-4d"/>
      <use xlink:href="#DejaVuSans-69" x="86.279297"/>
      <use xlink:href="#DejaVuSans-6e" x="114.0625"/>
      <use xlink:href="#DejaVuSans-6e" x="177.441406"/>
      <use xlink:href="#DejaVuSans-65" x="240.820312"/>
      <use xlink:href="#DejaVuSans-73" x="302.34375"/>
      <use xlink:href="#DejaVuSans-6f" x="354.443359"/>
      <use xlink:href="#DejaVuSans-74" x="415.625"/>
      <use xlink:href="#DejaVuSans-61" x="454.833984"/>
      <use xlink:href="#DejaVuSans-20" x="516.113281"/>
      <use xlink:href="#DejaVuSans-56" x="547.900391"/>
      <use xlink:href="#DejaVuSans-69" x="614.058594"/>
      <use xlink:href="#DejaVuSans-6b" x="641.841797"/>
      <use xlink:href="#DejaVuSans-69" x="699.751953"/>
      <use xlink:href="#DejaVuSans-6e" x="727.535156"/>
      <use xlink:href="#DejaVuSans-67" x="790.914062"/>
      <use xlink:href="#DejaVuSans-73" x="854.390625"/>
     </g>
    </g>
    <g id="line2d_68">
     <path d="M 604.432813 93.602188 
L 614.432813 93.602188 
L 624.432813 93.602188 
" style="fill: none; stroke: #ff7f0e; stroke-width: 1.5; stroke-linecap: square"/>
    </g>
    <g id="text_37">
     <!-- New England Patriots -->
     <g transform="translate(632.432813 97.102188)scale(0.1 -0.1)">
      <defs>
       <path id="DejaVuSans-4e" d="M 628 4666 
L 1478 4666 
L 3547 763 
L 3547 4666 
L 4159 4666 
L 4159 0 
L 3309 0 
L 1241 3903 
L 1241 0 
L 628 0 
L 628 4666 
z
" transform="scale(0.015625)"/>
       <path id="DejaVuSans-45" d="M 628 4666 
L 3578 4666 
L 3578 4134 
L 1259 4134 
L 1259 2753 
L 3481 2753 
L 3481 2222 
L 1259 2222 
L 1259 531 
L 3634 531 
L 3634 0 
L 628 0 
L 628 4666 
z
" transform="scale(0.015625)"/>
      </defs>
      <use xlink:href="#DejaVuSans-4e"/>
      <use xlink:href="#DejaVuSans-65" x="74.804688"/>
      <use xlink:href="#DejaVuSans-77" x="136.328125"/>
      <use xlink:href="#DejaVuSans-20" x="218.115234"/>
      <use xlink:href="#DejaVuSans-45" x="249.902344"/>
      <use xlink:href="#DejaVuSans-6e" x="313.085938"/>
      <use xlink:href="#DejaVuSans-67" x="376.464844"/>
      <use xlink:href="#DejaVuSans-6c" x="439.941406"/>
      <use xlink:href="#DejaVuSans-61" x="467.724609"/>
      <use xlink:href="#DejaVuSans-6e" x="529.003906"/>
      <use xlink:href="#DejaVuSans-64" x="592.382812"/>
      <use xlink:href="#DejaVuSans-20" x="655.859375"/>
      <use xlink:href="#DejaVuSans-50" x="687.646484"/>
      <use xlink:href="#DejaVuSans-61" x="743.449219"/>
      <use xlink:href="#DejaVuSans-74" x="804.728516"/>
      <use xlink:href="#DejaVuSans-72" x="843.9375"/>
      <use xlink:href="#DejaVuSans-69" x="885.050781"/>
      <use xlink:href="#DejaVuSans-6f" x="912.833984"/>
      <use xlink:href="#DejaVuSans-74" x="974.015625"/>
      <use xlink:href="#DejaVuSans-73" x="1013.224609"/>
     </g>
    </g>
    <g id="line2d_69">
     <path d="M 604.432813 108.280313 
L 614.432813 108.280313 
L 624.432813 108.280313 
" style="fill: none; stroke: #2ca02c; stroke-width: 1.5; stroke-linecap: square"/>
    </g>
    <g id="text_38">
     <!-- New Orleans Saints -->
     <g transform="translate(632.432813 111.780313)scale(0.1 -0.1)">
      <defs>
       <path id="DejaVuSans-4f" d="M 2522 4238 
Q 1834 4238 1429 3725 
Q 1025 3213 1025 2328 
Q 1025 1447 1429 934 
Q 1834 422 2522 422 
Q 3209 422 3611 934 
Q 4013 1447 4013 2328 
Q 4013 3213 3611 3725 
Q 3209 4238 2522 4238 
z
M 2522 4750 
Q 3503 4750 4090 4092 
Q 4678 3434 4678 2328 
Q 4678 1225 4090 567 
Q 3503 -91 2522 -91 
Q 1538 -91 948 565 
Q 359 1222 359 2328 
Q 359 3434 948 4092 
Q 1538 4750 2522 4750 
z
" transform="scale(0.015625)"/>
       <path id="DejaVuSans-53" d="M 3425 4513 
L 3425 3897 
Q 3066 4069 2747 4153 
Q 2428 4238 2131 4238 
Q 1616 4238 1336 4038 
Q 1056 3838 1056 3469 
Q 1056 3159 1242 3001 
Q 1428 2844 1947 2747 
L 2328 2669 
Q 3034 2534 3370 2195 
Q 3706 1856 3706 1288 
Q 3706 609 3251 259 
Q 2797 -91 1919 -91 
Q 1588 -91 1214 -16 
Q 841 59 441 206 
L 441 856 
Q 825 641 1194 531 
Q 1563 422 1919 422 
Q 2459 422 2753 634 
Q 3047 847 3047 1241 
Q 3047 1584 2836 1778 
Q 2625 1972 2144 2069 
L 1759 2144 
Q 1053 2284 737 2584 
Q 422 2884 422 3419 
Q 422 4038 858 4394 
Q 1294 4750 2059 4750 
Q 2388 4750 2728 4690 
Q 3069 4631 3425 4513 
z
" transform="scale(0.015625)"/>
      </defs>
      <use xlink:href="#DejaVuSans-4e"/>
      <use xlink:href="#DejaVuSans-65" x="74.804688"/>
      <use xlink:href="#DejaVuSans-77" x="136.328125"/>
      <use xlink:href="#DejaVuSans-20" x="218.115234"/>
      <use xlink:href="#DejaVuSans-4f" x="249.902344"/>
      <use xlink:href="#DejaVuSans-72" x="328.613281"/>
      <use xlink:href="#DejaVuSans-6c" x="369.726562"/>
      <use xlink:href="#DejaVuSans-65" x="397.509766"/>
      <use xlink:href="#DejaVuSans-61" x="459.033203"/>
      <use xlink:href="#DejaVuSans-6e" x="520.3125"/>
      <use xlink:href="#DejaVuSans-73" x="583.691406"/>
      <use xlink:href="#DejaVuSans-20" x="635.791016"/>
      <use xlink:href="#DejaVuSans-53" x="667.578125"/>
      <use xlink:href="#DejaVuSans-61" x="731.054688"/>
      <use xlink:href="#DejaVuSans-69" x="792.333984"/>
      <use xlink:href="#DejaVuSans-6e" x="820.117188"/>
      <use xlink:href="#DejaVuSans-74" x="883.496094"/>
      <use xlink:href="#DejaVuSans-73" x="922.705078"/>
     </g>
    </g>
    <g id="line2d_70">
     <path d="M 604.432813 122.958438 
L 614.432813 122.958438 
L 624.432813 122.958438 
" style="fill: none; stroke: #d62728; stroke-width: 1.5; stroke-linecap: square"/>
    </g>
    <g id="text_39">
     <!-- New York Giants -->
     <g transform="translate(632.432813 126.458438)scale(0.1 -0.1)">
      <defs>
       <path id="DejaVuSans-59" d="M -13 4666 
L 666 4666 
L 1959 2747 
L 3244 4666 
L 3922 4666 
L 2272 2222 
L 2272 0 
L 1638 0 
L 1638 2222 
L -13 4666 
z
" transform="scale(0.015625)"/>
      </defs>
      <use xlink:href="#DejaVuSans-4e"/>
      <use xlink:href="#DejaVuSans-65" x="74.804688"/>
      <use xlink:href="#DejaVuSans-77" x="136.328125"/>
      <use xlink:href="#DejaVuSans-20" x="218.115234"/>
      <use xlink:href="#DejaVuSans-59" x="249.902344"/>
      <use xlink:href="#DejaVuSans-6f" x="297.736328"/>
      <use xlink:href="#DejaVuSans-72" x="358.917969"/>
      <use xlink:href="#DejaVuSans-6b" x="400.03125"/>
      <use xlink:href="#DejaVuSans-20" x="457.941406"/>
      <use xlink:href="#DejaVuSans-47" x="489.728516"/>
      <use xlink:href="#DejaVuSans-69" x="567.21875"/>
      <use xlink:href="#DejaVuSans-61" x="595.001953"/>
      <use xlink:href="#DejaVuSans-6e" x="656.28125"/>
      <use xlink:href="#DejaVuSans-74" x="719.660156"/>
      <use xlink:href="#DejaVuSans-73" x="758.869141"/>
     </g>
    </g>
    <g id="line2d_71">
     <path d="M 604.432813 137.636563 
L 614.432813 137.636563 
L 624.432813 137.636563 
" style="fill: none; stroke: #9467bd; stroke-width: 1.5; stroke-linecap: square"/>
    </g>
    <g id="text_40">
     <!-- New York Jets -->
     <g transform="translate(632.432813 141.136563)scale(0.1 -0.1)">
      <use xlink:href="#DejaVuSans-4e"/>
      <use xlink:href="#DejaVuSans-65" x="74.804688"/>
      <use xlink:href="#DejaVuSans-77" x="136.328125"/>
      <use xlink:href="#DejaVuSans-20" x="218.115234"/>
      <use xlink:href="#DejaVuSans-59" x="249.902344"/>
      <use xlink:href="#DejaVuSans-6f" x="297.736328"/>
      <use xlink:href="#DejaVuSans-72" x="358.917969"/>
      <use xlink:href="#DejaVuSans-6b" x="400.03125"/>
      <use xlink:href="#DejaVuSans-20" x="457.941406"/>
      <use xlink:href="#DejaVuSans-4a" x="489.728516"/>
      <use xlink:href="#DejaVuSans-65" x="519.220703"/>
      <use xlink:href="#DejaVuSans-74" x="580.744141"/>
      <use xlink:href="#DejaVuSans-73" x="619.953125"/>
     </g>
    </g>
    <g id="line2d_72">
     <path d="M 604.432813 152.314687 
L 614.432813 152.314687 
L 624.432813 152.314687 
" style="fill: none; stroke: #8c564b; stroke-width: 1.5; stroke-linecap: square"/>
    </g>
    <g id="text_41">
     <!-- Philadelphia Eagles -->
     <g transform="translate(632.432813 155.814687)scale(0.1 -0.1)">
      <use xlink:href="#DejaVuSans-50"/>
      <use xlink:href="#DejaVuSans-68" x="60.302734"/>
      <use xlink:href="#DejaVuSans-69" x="123.681641"/>
      <use xlink:href="#DejaVuSans-6c" x="151.464844"/>
      <use xlink:href="#DejaVuSans-61" x="179.248047"/>
      <use xlink:href="#DejaVuSans-64" x="240.527344"/>
      <use xlink:href="#DejaVuSans-65" x="304.003906"/>
      <use xlink:href="#DejaVuSans-6c" x="365.527344"/>
      <use xlink:href="#DejaVuSans-70" x="393.310547"/>
      <use xlink:href="#DejaVuSans-68" x="456.787109"/>
      <use xlink:href="#DejaVuSans-69" x="520.166016"/>
      <use xlink:href="#DejaVuSans-61" x="547.949219"/>
      <use xlink:href="#DejaVuSans-20" x="609.228516"/>
      <use xlink:href="#DejaVuSans-45" x="641.015625"/>
      <use xlink:href="#DejaVuSans-61" x="704.199219"/>
      <use xlink:href="#DejaVuSans-67" x="765.478516"/>
      <use xlink:href="#DejaVuSans-6c" x="828.955078"/>
      <use xlink:href="#DejaVuSans-65" x="856.738281"/>
      <use xlink:href="#DejaVuSans-73" x="918.261719"/>
     </g>
    </g>
    <g id="line2d_73">
     <path d="M 604.432813 166.992812 
L 614.432813 166.992812 
L 624.432813 166.992812 
" style="fill: none; stroke: #e377c2; stroke-width: 1.5; stroke-linecap: square"/>
    </g>
    <g id="text_42">
     <!-- Pittsburgh Steelers -->
     <g transform="translate(632.432813 170.492812)scale(0.1 -0.1)">
      <use xlink:href="#DejaVuSans-50"/>
      <use xlink:href="#DejaVuSans-69" x="58.052734"/>
      <use xlink:href="#DejaVuSans-74" x="85.835938"/>
      <use xlink:href="#DejaVuSans-74" x="125.044922"/>
      <use xlink:href="#DejaVuSans-73" x="164.253906"/>
      <use xlink:href="#DejaVuSans-62" x="216.353516"/>
      <use xlink:href="#DejaVuSans-75" x="279.830078"/>
      <use xlink:href="#DejaVuSans-72" x="343.208984"/>
      <use xlink:href="#DejaVuSans-67" x="382.572266"/>
      <use xlink:href="#DejaVuSans-68" x="446.048828"/>
      <use xlink:href="#DejaVuSans-20" x="509.427734"/>
      <use xlink:href="#DejaVuSans-53" x="541.214844"/>
      <use xlink:href="#DejaVuSans-74" x="604.691406"/>
      <use xlink:href="#DejaVuSans-65" x="643.900391"/>
      <use xlink:href="#DejaVuSans-65" x="705.423828"/>
      <use xlink:href="#DejaVuSans-6c" x="766.947266"/>
      <use xlink:href="#DejaVuSans-65" x="794.730469"/>
      <use xlink:href="#DejaVuSans-72" x="856.253906"/>
      <use xlink:href="#DejaVuSans-73" x="897.367188"/>
     </g>
    </g>
    <g id="line2d_74">
     <path d="M 604.432813 181.670937 
L 614.432813 181.670937 
L 624.432813 181.670937 
" style="fill: none; stroke: #7f7f7f; stroke-width: 1.5; stroke-linecap: square"/>
    </g>
    <g id="text_43">
     <!-- San Francisco 49ers -->
     <g transform="translate(632.432813 185.170937)scale(0.1 -0.1)">
      <defs>
       <path id="DejaVuSans-39" d="M 703 97 
L 703 672 
Q 941 559 1184 500 
Q 1428 441 1663 441 
Q 2288 441 2617 861 
Q 2947 1281 2994 2138 
Q 2813 1869 2534 1725 
Q 2256 1581 1919 1581 
Q 1219 1581 811 2004 
Q 403 2428 403 3163 
Q 403 3881 828 4315 
Q 1253 4750 1959 4750 
Q 2769 4750 3195 4129 
Q 3622 3509 3622 2328 
Q 3622 1225 3098 567 
Q 2575 -91 1691 -91 
Q 1453 -91 1209 -44 
Q 966 3 703 97 
z
M 1959 2075 
Q 2384 2075 2632 2365 
Q 2881 2656 2881 3163 
Q 2881 3666 2632 3958 
Q 2384 4250 1959 4250 
Q 1534 4250 1286 3958 
Q 1038 3666 1038 3163 
Q 1038 2656 1286 2365 
Q 1534 2075 1959 2075 
z
" transform="scale(0.015625)"/>
      </defs>
      <use xlink:href="#DejaVuSans-53"/>
      <use xlink:href="#DejaVuSans-61" x="63.476562"/>
      <use xlink:href="#DejaVuSans-6e" x="124.755859"/>
      <use xlink:href="#DejaVuSans-20" x="188.134766"/>
      <use xlink:href="#DejaVuSans-46" x="219.921875"/>
      <use xlink:href="#DejaVuSans-72" x="270.191406"/>
      <use xlink:href="#DejaVuSans-61" x="311.304688"/>
      <use xlink:href="#DejaVuSans-6e" x="372.583984"/>
      <use xlink:href="#DejaVuSans-63" x="435.962891"/>
      <use xlink:href="#DejaVuSans-69" x="490.943359"/>
      <use xlink:href="#DejaVuSans-73" x="518.726562"/>
      <use xlink:href="#DejaVuSans-63" x="570.826172"/>
      <use xlink:href="#DejaVuSans-6f" x="625.806641"/>
      <use xlink:href="#DejaVuSans-20" x="686.988281"/>
      <use xlink:href="#DejaVuSans-34" x="718.775391"/>
      <use xlink:href="#DejaVuSans-39" x="782.398438"/>
      <use xlink:href="#DejaVuSans-65" x="846.021484"/>
      <use xlink:href="#DejaVuSans-72" x="907.544922"/>
      <use xlink:href="#DejaVuSans-73" x="948.658203"/>
     </g>
    </g>
    <g id="line2d_75">
     <path d="M 604.432813 196.349062 
L 614.432813 196.349062 
L 624.432813 196.349062 
" style="fill: none; stroke: #bcbd22; stroke-width: 1.5; stroke-linecap: square"/>
    </g>
    <g id="text_44">
     <!-- Seattle Seahawks -->
     <g transform="translate(632.432813 199.849062)scale(0.1 -0.1)">
      <use xlink:href="#DejaVuSans-53"/>
      <use xlink:href="#DejaVuSans-65" x="63.476562"/>
      <use xlink:href="#DejaVuSans-61" x="125"/>
      <use xlink:href="#DejaVuSans-74" x="186.279297"/>
      <use xlink:href="#DejaVuSans-74" x="225.488281"/>
      <use xlink:href="#DejaVuSans-6c" x="264.697266"/>
      <use xlink:href="#DejaVuSans-65" x="292.480469"/>
      <use xlink:href="#DejaVuSans-20" x="354.003906"/>
      <use xlink:href="#DejaVuSans-53" x="385.791016"/>
      <use xlink:href="#DejaVuSans-65" x="449.267578"/>
      <use xlink:href="#DejaVuSans-61" x="510.791016"/>
      <use xlink:href="#DejaVuSans-68" x="572.070312"/>
      <use xlink:href="#DejaVuSans-61" x="635.449219"/>
      <use xlink:href="#DejaVuSans-77" x="696.728516"/>
      <use xlink:href="#DejaVuSans-6b" x="778.515625"/>
      <use xlink:href="#DejaVuSans-73" x="836.425781"/>
     </g>
    </g>
    <g id="line2d_76">
     <path d="M 604.432813 211.027187 
L 614.432813 211.027187 
L 624.432813 211.027187 
" style="fill: none; stroke: #17becf; stroke-width: 1.5; stroke-linecap: square"/>
    </g>
    <g id="text_45">
     <!-- Tampa Bay Buccaneers -->
     <g transform="translate(632.432813 214.527187)scale(0.1 -0.1)">
      <use xlink:href="#DejaVuSans-54"/>
      <use xlink:href="#DejaVuSans-61" x="44.583984"/>
      <use xlink:href="#DejaVuSans-6d" x="105.863281"/>
      <use xlink:href="#DejaVuSans-70" x="203.275391"/>
      <use xlink:href="#DejaVuSans-61" x="266.751953"/>
      <use xlink:href="#DejaVuSans-20" x="328.03125"/>
      <use xlink:href="#DejaVuSans-42" x="359.818359"/>
      <use xlink:href="#DejaVuSans-61" x="428.421875"/>
      <use xlink:href="#DejaVuSans-79" x="489.701172"/>
      <use xlink:href="#DejaVuSans-20" x="548.880859"/>
      <use xlink:href="#DejaVuSans-42" x="580.667969"/>
      <use xlink:href="#DejaVuSans-75" x="649.271484"/>
      <use xlink:href="#DejaVuSans-63" x="712.650391"/>
      <use xlink:href="#DejaVuSans-63" x="767.630859"/>
      <use xlink:href="#DejaVuSans-61" x="822.611328"/>
      <use xlink:href="#DejaVuSans-6e" x="883.890625"/>
      <use xlink:href="#DejaVuSans-65" x="947.269531"/>
      <use xlink:href="#DejaVuSans-65" x="1008.792969"/>
      <use xlink:href="#DejaVuSans-72" x="1070.316406"/>
      <use xlink:href="#DejaVuSans-73" x="1111.429688"/>
     </g>
    </g>
    <g id="line2d_77">
     <path d="M 604.432813 225.705312 
L 614.432813 225.705312 
L 624.432813 225.705312 
" style="fill: none; stroke: #1f77b4; stroke-width: 1.5; stroke-linecap: square"/>
    </g>
    <g id="text_46">
     <!-- Tennessee Titans -->
     <g transform="translate(632.432813 229.205312)scale(0.1 -0.1)">
      <use xlink:href="#DejaVuSans-54"/>
      <use xlink:href="#DejaVuSans-65" x="44.083984"/>
      <use xlink:href="#DejaVuSans-6e" x="105.607422"/>
      <use xlink:href="#DejaVuSans-6e" x="168.986328"/>
      <use xlink:href="#DejaVuSans-65" x="232.365234"/>
      <use xlink:href="#DejaVuSans-73" x="293.888672"/>
      <use xlink:href="#DejaVuSans-73" x="345.988281"/>
      <use xlink:href="#DejaVuSans-65" x="398.087891"/>
      <use xlink:href="#DejaVuSans-65" x="459.611328"/>
      <use xlink:href="#DejaVuSans-20" x="521.134766"/>
      <use xlink:href="#DejaVuSans-54" x="552.921875"/>
      <use xlink:href="#DejaVuSans-69" x="610.880859"/>
      <use xlink:href="#DejaVuSans-74" x="638.664062"/>
      <use xlink:href="#DejaVuSans-61" x="677.873047"/>
      <use xlink:href="#DejaVuSans-6e" x="739.152344"/>
      <use xlink:href="#DejaVuSans-73" x="802.53125"/>
     </g>
    </g>
    <g id="line2d_78">
     <path d="M 604.432813 240.383437 
L 614.432813 240.383437 
L 624.432813 240.383437 
" style="fill: none; stroke: #ff7f0e; stroke-width: 1.5; stroke-linecap: square"/>
    </g>
    <g id="text_47">
     <!-- Washington Commanders -->
     <g transform="translate(632.432813 243.883437)scale(0.1 -0.1)">
      <defs>
       <path id="DejaVuSans-57" d="M 213 4666 
L 850 4666 
L 1831 722 
L 2809 4666 
L 3519 4666 
L 4500 722 
L 5478 4666 
L 6119 4666 
L 4947 0 
L 4153 0 
L 3169 4050 
L 2175 0 
L 1381 0 
L 213 4666 
z
" transform="scale(0.015625)"/>
      </defs>
      <use xlink:href="#DejaVuSans-57"/>
      <use xlink:href="#DejaVuSans-61" x="92.501953"/>
      <use xlink:href="#DejaVuSans-73" x="153.78125"/>
      <use xlink:href="#DejaVuSans-68" x="205.880859"/>
      <use xlink:href="#DejaVuSans-69" x="269.259766"/>
      <use xlink:href="#DejaVuSans-6e" x="297.042969"/>
      <use xlink:href="#DejaVuSans-67" x="360.421875"/>
      <use xlink:href="#DejaVuSans-74" x="423.898438"/>
      <use xlink:href="#DejaVuSans-6f" x="463.107422"/>
      <use xlink:href="#DejaVuSans-6e" x="524.289062"/>
      <use xlink:href="#DejaVuSans-20" x="587.667969"/>
      <use xlink:href="#DejaVuSans-43" x="619.455078"/>
      <use xlink:href="#DejaVuSans-6f" x="689.279297"/>
      <use xlink:href="#DejaVuSans-6d" x="750.460938"/>
      <use xlink:href="#DejaVuSans-6d" x="847.873047"/>
      <use xlink:href="#DejaVuSans-61" x="945.285156"/>
      <use xlink:href="#DejaVuSans-6e" x="1006.564453"/>
      <use xlink:href="#DejaVuSans-64" x="1069.943359"/>
      <use xlink:href="#DejaVuSans-65" x="1133.419922"/>
      <use xlink:href="#DejaVuSans-72" x="1194.943359"/>
      <use xlink:href="#DejaVuSans-73" x="1236.056641"/>
     </g>
    </g>
   </g>
  </g>
 </g>
 <defs>
  <clipPath id="peac4019a36">
   <rect x="30.103125" y="22.318125" width="334.8" height="217.44"/>
  </clipPath>
 </defs>
</svg>
