<?xml version="1.0" encoding="utf-8" standalone="no"?>
<!DOCTYPE svg PUBLIC "-//W3C//DTD SVG 1.1//EN"
  "http://www.w3.org/Graphics/SVG/1.1/DTD/svg11.dtd">
<svg xmlns:xlink="http://www.w3.org/1999/xlink" width="382.704688pt" height="262.19625pt" viewBox="0 0 382.704688 262.19625" xmlns="http://www.w3.org/2000/svg" version="1.1">
 <metadata>
  <rdf:RDF xmlns:dc="http://purl.org/dc/elements/1.1/" xmlns:cc="http://creativecommons.org/ns#" xmlns:rdf="http://www.w3.org/1999/02/22-rdf-syntax-ns#">
   <cc:Work>
    <dc:type rdf:resource="http://purl.org/dc/dcmitype/StillImage"/>
    <dc:date>2022-12-04T16:15:23.059499</dc:date>
    <dc:format>image/svg+xml</dc:format>
    <dc:creator>
     <cc:Agent>
      <dc:title>Matplotlib v3.5.3, https://matplotlib.org/</dc:title>
     </cc:Agent>
    </dc:creator>
   </cc:Work>
  </rdf:RDF>
 </metadata>
 <defs>
  <style type="text/css">*{stroke-linejoin: round; stroke-linecap: butt}</style>
 </defs>
 <g id="figure_1">
  <g id="patch_1">
   <path d="M 0 262.19625 
L 382.704688 262.19625 
L 382.704688 0 
L 0 0 
L 0 262.19625 
z
" style="fill: none"/>
  </g>
  <g id="axes_1">
   <g id="patch_2">
    <path d="M 40.704688 224.64 
L 375.504688 224.64 
L 375.504688 7.2 
L 40.704688 7.2 
z
" style="fill: #ffffff"/>
   </g>
   <g id="matplotlib.axis_1">
    <g id="xtick_1">
     <g id="line2d_1">
      <defs>
       <path id="m37e8d3ce89" d="M 0 0 
L 0 3.5 
" style="stroke: #000000; stroke-width: 0.8"/>
      </defs>
      <g>
       <use xlink:href="#m37e8d3ce89" x="55.922869" y="224.64" style="stroke: #000000; stroke-width: 0.8"/>
      </g>
     </g>
     <g id="text_1">
      <!-- 0 -->
      <g transform="translate(52.741619 239.238437)scale(0.1 -0.1)">
       <defs>
        <path id="DejaVuSans-30" d="M 2034 4250 
Q 1547 4250 1301 3770 
Q 1056 3291 1056 2328 
Q 1056 1369 1301 889 
Q 1547 409 2034 409 
Q 2525 409 2770 889 
Q 3016 1369 3016 2328 
Q 3016 3291 2770 3770 
Q 2525 4250 2034 4250 
z
M 2034 4750 
Q 2819 4750 3233 4129 
Q 3647 3509 3647 2328 
Q 3647 1150 3233 529 
Q 2819 -91 2034 -91 
Q 1250 -91 836 529 
Q 422 1150 422 2328 
Q 422 3509 836 4129 
Q 1250 4750 2034 4750 
z
" transform="scale(0.015625)"/>
       </defs>
       <use xlink:href="#DejaVuSans-30"/>
      </g>
     </g>
    </g>
    <g id="xtick_2">
     <g id="line2d_2">
      <g>
       <use xlink:href="#m37e8d3ce89" x="115.485225" y="224.64" style="stroke: #000000; stroke-width: 0.8"/>
      </g>
     </g>
     <g id="text_2">
      <!-- 100 -->
      <g transform="translate(105.941475 239.238437)scale(0.1 -0.1)">
       <defs>
        <path id="DejaVuSans-31" d="M 794 531 
L 1825 531 
L 1825 4091 
L 703 3866 
L 703 4441 
L 1819 4666 
L 2450 4666 
L 2450 531 
L 3481 531 
L 3481 0 
L 794 0 
L 794 531 
z
" transform="scale(0.015625)"/>
       </defs>
       <use xlink:href="#DejaVuSans-31"/>
       <use xlink:href="#DejaVuSans-30" x="63.623047"/>
       <use xlink:href="#DejaVuSans-30" x="127.246094"/>
      </g>
     </g>
    </g>
    <g id="xtick_3">
     <g id="line2d_3">
      <g>
       <use xlink:href="#m37e8d3ce89" x="175.04758" y="224.64" style="stroke: #000000; stroke-width: 0.8"/>
      </g>
     </g>
     <g id="text_3">
      <!-- 200 -->
      <g transform="translate(165.50383 239.238437)scale(0.1 -0.1)">
       <defs>
        <path id="DejaVuSans-32" d="M 1228 531 
L 3431 531 
L 3431 0 
L 469 0 
L 469 531 
Q 828 903 1448 1529 
Q 2069 2156 2228 2338 
Q 2531 2678 2651 2914 
Q 2772 3150 2772 3378 
Q 2772 3750 2511 3984 
Q 2250 4219 1831 4219 
Q 1534 4219 1204 4116 
Q 875 4013 500 3803 
L 500 4441 
Q 881 4594 1212 4672 
Q 1544 4750 1819 4750 
Q 2544 4750 2975 4387 
Q 3406 4025 3406 3419 
Q 3406 3131 3298 2873 
Q 3191 2616 2906 2266 
Q 2828 2175 2409 1742 
Q 1991 1309 1228 531 
z
" transform="scale(0.015625)"/>
       </defs>
       <use xlink:href="#DejaVuSans-32"/>
       <use xlink:href="#DejaVuSans-30" x="63.623047"/>
       <use xlink:href="#DejaVuSans-30" x="127.246094"/>
      </g>
     </g>
    </g>
    <g id="xtick_4">
     <g id="line2d_4">
      <g>
       <use xlink:href="#m37e8d3ce89" x="234.609936" y="224.64" style="stroke: #000000; stroke-width: 0.8"/>
      </g>
     </g>
     <g id="text_4">
      <!-- 300 -->
      <g transform="translate(225.066186 239.238437)scale(0.1 -0.1)">
       <defs>
        <path id="DejaVuSans-33" d="M 2597 2516 
Q 3050 2419 3304 2112 
Q 3559 1806 3559 1356 
Q 3559 666 3084 287 
Q 2609 -91 1734 -91 
Q 1441 -91 1130 -33 
Q 819 25 488 141 
L 488 750 
Q 750 597 1062 519 
Q 1375 441 1716 441 
Q 2309 441 2620 675 
Q 2931 909 2931 1356 
Q 2931 1769 2642 2001 
Q 2353 2234 1838 2234 
L 1294 2234 
L 1294 2753 
L 1863 2753 
Q 2328 2753 2575 2939 
Q 2822 3125 2822 3475 
Q 2822 3834 2567 4026 
Q 2313 4219 1838 4219 
Q 1578 4219 1281 4162 
Q 984 4106 628 3988 
L 628 4550 
Q 988 4650 1302 4700 
Q 1616 4750 1894 4750 
Q 2613 4750 3031 4423 
Q 3450 4097 3450 3541 
Q 3450 3153 3228 2886 
Q 3006 2619 2597 2516 
z
" transform="scale(0.015625)"/>
       </defs>
       <use xlink:href="#DejaVuSans-33"/>
       <use xlink:href="#DejaVuSans-30" x="63.623047"/>
       <use xlink:href="#DejaVuSans-30" x="127.246094"/>
      </g>
     </g>
    </g>
    <g id="xtick_5">
     <g id="line2d_5">
      <g>
       <use xlink:href="#m37e8d3ce89" x="294.172291" y="224.64" style="stroke: #000000; stroke-width: 0.8"/>
      </g>
     </g>
     <g id="text_5">
      <!-- 400 -->
      <g transform="translate(284.628541 239.238437)scale(0.1 -0.1)">
       <defs>
        <path id="DejaVuSans-34" d="M 2419 4116 
L 825 1625 
L 2419 1625 
L 2419 4116 
z
M 2253 4666 
L 3047 4666 
L 3047 1625 
L 3713 1625 
L 3713 1100 
L 3047 1100 
L 3047 0 
L 2419 0 
L 2419 1100 
L 313 1100 
L 313 1709 
L 2253 4666 
z
" transform="scale(0.015625)"/>
       </defs>
       <use xlink:href="#DejaVuSans-34"/>
       <use xlink:href="#DejaVuSans-30" x="63.623047"/>
       <use xlink:href="#DejaVuSans-30" x="127.246094"/>
      </g>
     </g>
    </g>
    <g id="xtick_6">
     <g id="line2d_6">
      <g>
       <use xlink:href="#m37e8d3ce89" x="353.734647" y="224.64" style="stroke: #000000; stroke-width: 0.8"/>
      </g>
     </g>
     <g id="text_6">
      <!-- 500 -->
      <g transform="translate(344.190897 239.238437)scale(0.1 -0.1)">
       <defs>
        <path id="DejaVuSans-35" d="M 691 4666 
L 3169 4666 
L 3169 4134 
L 1269 4134 
L 1269 2991 
Q 1406 3038 1543 3061 
Q 1681 3084 1819 3084 
Q 2600 3084 3056 2656 
Q 3513 2228 3513 1497 
Q 3513 744 3044 326 
Q 2575 -91 1722 -91 
Q 1428 -91 1123 -41 
Q 819 9 494 109 
L 494 744 
Q 775 591 1075 516 
Q 1375 441 1709 441 
Q 2250 441 2565 725 
Q 2881 1009 2881 1497 
Q 2881 1984 2565 2268 
Q 2250 2553 1709 2553 
Q 1456 2553 1204 2497 
Q 953 2441 691 2322 
L 691 4666 
z
" transform="scale(0.015625)"/>
       </defs>
       <use xlink:href="#DejaVuSans-35"/>
       <use xlink:href="#DejaVuSans-30" x="63.623047"/>
       <use xlink:href="#DejaVuSans-30" x="127.246094"/>
      </g>
     </g>
    </g>
    <g id="text_7">
     <!-- Games -->
     <g transform="translate(190.614844 252.916562)scale(0.1 -0.1)">
      <defs>
       <path id="DejaVuSans-47" d="M 3809 666 
L 3809 1919 
L 2778 1919 
L 2778 2438 
L 4434 2438 
L 4434 434 
Q 4069 175 3628 42 
Q 3188 -91 2688 -91 
Q 1594 -91 976 548 
Q 359 1188 359 2328 
Q 359 3472 976 4111 
Q 1594 4750 2688 4750 
Q 3144 4750 3555 4637 
Q 3966 4525 4313 4306 
L 4313 3634 
Q 3963 3931 3569 4081 
Q 3175 4231 2741 4231 
Q 1884 4231 1454 3753 
Q 1025 3275 1025 2328 
Q 1025 1384 1454 906 
Q 1884 428 2741 428 
Q 3075 428 3337 486 
Q 3600 544 3809 666 
z
" transform="scale(0.015625)"/>
       <path id="DejaVuSans-61" d="M 2194 1759 
Q 1497 1759 1228 1600 
Q 959 1441 959 1056 
Q 959 750 1161 570 
Q 1363 391 1709 391 
Q 2188 391 2477 730 
Q 2766 1069 2766 1631 
L 2766 1759 
L 2194 1759 
z
M 3341 1997 
L 3341 0 
L 2766 0 
L 2766 531 
Q 2569 213 2275 61 
Q 1981 -91 1556 -91 
Q 1019 -91 701 211 
Q 384 513 384 1019 
Q 384 1609 779 1909 
Q 1175 2209 1959 2209 
L 2766 2209 
L 2766 2266 
Q 2766 2663 2505 2880 
Q 2244 3097 1772 3097 
Q 1472 3097 1187 3025 
Q 903 2953 641 2809 
L 641 3341 
Q 956 3463 1253 3523 
Q 1550 3584 1831 3584 
Q 2591 3584 2966 3190 
Q 3341 2797 3341 1997 
z
" transform="scale(0.015625)"/>
       <path id="DejaVuSans-6d" d="M 3328 2828 
Q 3544 3216 3844 3400 
Q 4144 3584 4550 3584 
Q 5097 3584 5394 3201 
Q 5691 2819 5691 2113 
L 5691 0 
L 5113 0 
L 5113 2094 
Q 5113 2597 4934 2840 
Q 4756 3084 4391 3084 
Q 3944 3084 3684 2787 
Q 3425 2491 3425 1978 
L 3425 0 
L 2847 0 
L 2847 2094 
Q 2847 2600 2669 2842 
Q 2491 3084 2119 3084 
Q 1678 3084 1418 2786 
Q 1159 2488 1159 1978 
L 1159 0 
L 581 0 
L 581 3500 
L 1159 3500 
L 1159 2956 
Q 1356 3278 1631 3431 
Q 1906 3584 2284 3584 
Q 2666 3584 2933 3390 
Q 3200 3197 3328 2828 
z
" transform="scale(0.015625)"/>
       <path id="DejaVuSans-65" d="M 3597 1894 
L 3597 1613 
L 953 1613 
Q 991 1019 1311 708 
Q 1631 397 2203 397 
Q 2534 397 2845 478 
Q 3156 559 3463 722 
L 3463 178 
Q 3153 47 2828 -22 
Q 2503 -91 2169 -91 
Q 1331 -91 842 396 
Q 353 884 353 1716 
Q 353 2575 817 3079 
Q 1281 3584 2069 3584 
Q 2775 3584 3186 3129 
Q 3597 2675 3597 1894 
z
M 3022 2063 
Q 3016 2534 2758 2815 
Q 2500 3097 2075 3097 
Q 1594 3097 1305 2825 
Q 1016 2553 972 2059 
L 3022 2063 
z
" transform="scale(0.015625)"/>
       <path id="DejaVuSans-73" d="M 2834 3397 
L 2834 2853 
Q 2591 2978 2328 3040 
Q 2066 3103 1784 3103 
Q 1356 3103 1142 2972 
Q 928 2841 928 2578 
Q 928 2378 1081 2264 
Q 1234 2150 1697 2047 
L 1894 2003 
Q 2506 1872 2764 1633 
Q 3022 1394 3022 966 
Q 3022 478 2636 193 
Q 2250 -91 1575 -91 
Q 1294 -91 989 -36 
Q 684 19 347 128 
L 347 722 
Q 666 556 975 473 
Q 1284 391 1588 391 
Q 1994 391 2212 530 
Q 2431 669 2431 922 
Q 2431 1156 2273 1281 
Q 2116 1406 1581 1522 
L 1381 1569 
Q 847 1681 609 1914 
Q 372 2147 372 2553 
Q 372 3047 722 3315 
Q 1072 3584 1716 3584 
Q 2034 3584 2315 3537 
Q 2597 3491 2834 3397 
z
" transform="scale(0.015625)"/>
      </defs>
      <use xlink:href="#DejaVuSans-47"/>
      <use xlink:href="#DejaVuSans-61" x="77.490234"/>
      <use xlink:href="#DejaVuSans-6d" x="138.769531"/>
      <use xlink:href="#DejaVuSans-65" x="236.181641"/>
      <use xlink:href="#DejaVuSans-73" x="297.705078"/>
     </g>
    </g>
   </g>
   <g id="matplotlib.axis_2">
    <g id="ytick_1">
     <g id="line2d_7">
      <defs>
       <path id="m7e89817e6b" d="M 0 0 
L -3.5 0 
" style="stroke: #000000; stroke-width: 0.8"/>
      </defs>
      <g>
       <use xlink:href="#m7e89817e6b" x="40.704688" y="193.72735" style="stroke: #000000; stroke-width: 0.8"/>
      </g>
     </g>
     <g id="text_8">
      <!-- 0 -->
      <g transform="translate(27.342188 197.526569)scale(0.1 -0.1)">
       <use xlink:href="#DejaVuSans-30"/>
      </g>
     </g>
    </g>
    <g id="ytick_2">
     <g id="line2d_8">
      <g>
       <use xlink:href="#m7e89817e6b" x="40.704688" y="151.669323" style="stroke: #000000; stroke-width: 0.8"/>
      </g>
     </g>
     <g id="text_9">
      <!-- 10 -->
      <g transform="translate(20.979688 155.468542)scale(0.1 -0.1)">
       <use xlink:href="#DejaVuSans-31"/>
       <use xlink:href="#DejaVuSans-30" x="63.623047"/>
      </g>
     </g>
    </g>
    <g id="ytick_3">
     <g id="line2d_9">
      <g>
       <use xlink:href="#m7e89817e6b" x="40.704688" y="109.611296" style="stroke: #000000; stroke-width: 0.8"/>
      </g>
     </g>
     <g id="text_10">
      <!-- 20 -->
      <g transform="translate(20.979688 113.410515)scale(0.1 -0.1)">
       <use xlink:href="#DejaVuSans-32"/>
       <use xlink:href="#DejaVuSans-30" x="63.623047"/>
      </g>
     </g>
    </g>
    <g id="ytick_4">
     <g id="line2d_10">
      <g>
       <use xlink:href="#m7e89817e6b" x="40.704688" y="67.553269" style="stroke: #000000; stroke-width: 0.8"/>
      </g>
     </g>
     <g id="text_11">
      <!-- 30 -->
      <g transform="translate(20.979688 71.352488)scale(0.1 -0.1)">
       <use xlink:href="#DejaVuSans-33"/>
       <use xlink:href="#DejaVuSans-30" x="63.623047"/>
      </g>
     </g>
    </g>
    <g id="ytick_5">
     <g id="line2d_11">
      <g>
       <use xlink:href="#m7e89817e6b" x="40.704688" y="25.495242" style="stroke: #000000; stroke-width: 0.8"/>
      </g>
     </g>
     <g id="text_12">
      <!-- 40 -->
      <g transform="translate(20.979688 29.294461)scale(0.1 -0.1)">
       <use xlink:href="#DejaVuSans-34"/>
       <use xlink:href="#DejaVuSans-30" x="63.623047"/>
      </g>
     </g>
    </g>
    <g id="text_13">
     <!-- P_TOT_PTS -->
     <g transform="translate(14.621875 143.221562)rotate(-90)scale(0.1 -0.1)">
      <defs>
       <path id="DejaVuSans-50" d="M 1259 4147 
L 1259 2394 
L 2053 2394 
Q 2494 2394 2734 2622 
Q 2975 2850 2975 3272 
Q 2975 3691 2734 3919 
Q 2494 4147 2053 4147 
L 1259 4147 
z
M 628 4666 
L 2053 4666 
Q 2838 4666 3239 4311 
Q 3641 3956 3641 3272 
Q 3641 2581 3239 2228 
Q 2838 1875 2053 1875 
L 1259 1875 
L 1259 0 
L 628 0 
L 628 4666 
z
" transform="scale(0.015625)"/>
       <path id="DejaVuSans-5f" d="M 3263 -1063 
L 3263 -1509 
L -63 -1509 
L -63 -1063 
L 3263 -1063 
z
" transform="scale(0.015625)"/>
       <path id="DejaVuSans-54" d="M -19 4666 
L 3928 4666 
L 3928 4134 
L 2272 4134 
L 2272 0 
L 1638 0 
L 1638 4134 
L -19 4134 
L -19 4666 
z
" transform="scale(0.015625)"/>
       <path id="DejaVuSans-4f" d="M 2522 4238 
Q 1834 4238 1429 3725 
Q 1025 3213 1025 2328 
Q 1025 1447 1429 934 
Q 1834 422 2522 422 
Q 3209 422 3611 934 
Q 4013 1447 4013 2328 
Q 4013 3213 3611 3725 
Q 3209 4238 2522 4238 
z
M 2522 4750 
Q 3503 4750 4090 4092 
Q 4678 3434 4678 2328 
Q 4678 1225 4090 567 
Q 3503 -91 2522 -91 
Q 1538 -91 948 565 
Q 359 1222 359 2328 
Q 359 3434 948 4092 
Q 1538 4750 2522 4750 
z
" transform="scale(0.015625)"/>
       <path id="DejaVuSans-53" d="M 3425 4513 
L 3425 3897 
Q 3066 4069 2747 4153 
Q 2428 4238 2131 4238 
Q 1616 4238 1336 4038 
Q 1056 3838 1056 3469 
Q 1056 3159 1242 3001 
Q 1428 2844 1947 2747 
L 2328 2669 
Q 3034 2534 3370 2195 
Q 3706 1856 3706 1288 
Q 3706 609 3251 259 
Q 2797 -91 1919 -91 
Q 1588 -91 1214 -16 
Q 841 59 441 206 
L 441 856 
Q 825 641 1194 531 
Q 1563 422 1919 422 
Q 2459 422 2753 634 
Q 3047 847 3047 1241 
Q 3047 1584 2836 1778 
Q 2625 1972 2144 2069 
L 1759 2144 
Q 1053 2284 737 2584 
Q 422 2884 422 3419 
Q 422 4038 858 4394 
Q 1294 4750 2059 4750 
Q 2388 4750 2728 4690 
Q 3069 4631 3425 4513 
z
" transform="scale(0.015625)"/>
      </defs>
      <use xlink:href="#DejaVuSans-50"/>
      <use xlink:href="#DejaVuSans-5f" x="60.302734"/>
      <use xlink:href="#DejaVuSans-54" x="110.302734"/>
      <use xlink:href="#DejaVuSans-4f" x="171.386719"/>
      <use xlink:href="#DejaVuSans-54" x="250.097656"/>
      <use xlink:href="#DejaVuSans-5f" x="311.181641"/>
      <use xlink:href="#DejaVuSans-50" x="361.181641"/>
      <use xlink:href="#DejaVuSans-54" x="421.484375"/>
      <use xlink:href="#DejaVuSans-53" x="482.568359"/>
     </g>
    </g>
   </g>
   <g id="line2d_12">
    <path d="M 55.922869 137.143 
L 56.518493 149.399338 
L 57.114116 159.334365 
L 57.70974 143.300906 
L 58.305364 138.646018 
L 58.900987 137.725261 
L 59.496611 126.592494 
L 60.092234 144.743934 
L 61.283481 131.01867 
L 61.879105 134.043022 
L 62.474728 130.168831 
L 63.070352 123.677723 
L 63.665976 133.695289 
L 64.261599 149.656584 
L 64.857223 138.524596 
L 65.452846 146.184012 
L 66.04847 145.762409 
L 66.644093 138.687409 
L 67.239717 139.80268 
L 67.83534 127.791379 
L 68.430964 132.21835 
L 69.026588 167.751061 
L 69.622211 127.725977 
L 70.217835 141.479829 
L 70.813458 135.350568 
L 72.004705 145.645243 
L 72.600329 136.870277 
L 73.195952 147.94605 
L 73.791576 148.509458 
L 74.3872 122.984578 
L 74.982823 145.737625 
L 75.578447 149.257248 
L 76.17407 148.062482 
L 77.365317 129.941372 
L 77.960941 132.305267 
L 78.556564 135.451155 
L 79.152188 141.052691 
L 79.747811 157.901403 
L 80.343435 129.667675 
L 80.939059 131.226463 
L 81.534682 145.832299 
L 82.130306 147.643936 
L 82.725929 131.923265 
L 83.917176 160.360374 
L 84.5128 139.195231 
L 85.108423 156.436997 
L 85.704047 135.124611 
L 86.299671 123.111074 
L 86.895294 122.914015 
L 87.490918 149.442114 
L 88.086541 141.878575 
L 88.682165 132.131815 
L 89.277788 135.421993 
L 89.873412 157.330259 
L 90.469035 132.30832 
L 91.064659 136.865096 
L 91.660283 137.663292 
L 92.255906 157.084346 
L 92.85153 131.580965 
L 93.447153 150.692843 
L 94.042777 154.170241 
L 94.6384 156.118608 
L 95.234024 156.05757 
L 95.829647 148.143096 
L 96.425271 134.162335 
L 97.020895 134.576349 
L 97.616518 137.232278 
L 98.212142 127.691731 
L 98.807765 149.3634 
L 99.403389 131.038422 
L 99.999012 125.404625 
L 100.594636 128.850691 
L 101.190259 123.064055 
L 101.785883 152.39883 
L 102.381507 150.296753 
L 102.97713 150.009079 
L 103.572754 139.129474 
L 104.168377 142.288256 
L 104.764001 159.889248 
L 105.359624 127.467361 
L 106.550871 147.025216 
L 107.146495 132.014439 
L 107.742119 155.414445 
L 108.337742 144.020527 
L 108.933366 128.413973 
L 109.528989 137.64312 
L 110.124613 137.478196 
L 110.720236 135.543786 
L 111.31586 146.679621 
L 111.911483 126.894953 
L 112.507107 138.794347 
L 113.102731 135.676027 
L 113.698354 143.259144 
L 114.293978 133.01396 
L 114.889601 142.394298 
L 115.485225 158.432423 
L 116.080848 150.964575 
L 116.676472 155.277208 
L 117.272095 134.379857 
L 117.867719 135.087943 
L 118.463343 121.906721 
L 119.058966 146.00947 
L 119.65459 132.653001 
L 120.250213 141.305013 
L 120.845837 159.382108 
L 121.44146 131.059779 
L 122.037084 134.243698 
L 122.632707 135.986716 
L 123.228331 146.030168 
L 123.823955 145.45036 
L 124.419578 143.275415 
L 125.015202 128.078482 
L 125.610825 133.982329 
L 126.206449 132.044667 
L 126.802072 137.66109 
L 127.397696 131.474686 
L 127.993319 133.953258 
L 128.588943 135.552946 
L 129.184567 159.720396 
L 129.78019 140.773061 
L 130.375814 136.966114 
L 130.971437 140.065436 
L 131.567061 128.679909 
L 132.162684 147.92386 
L 132.758308 162.735641 
L 133.353931 142.467426 
L 133.949555 139.561226 
L 134.545179 139.371488 
L 135.140802 144.445446 
L 135.736426 131.950592 
L 136.332049 135.593853 
L 136.927673 145.739412 
L 137.523296 161.357784 
L 138.11892 134.351645 
L 138.714543 140.531023 
L 139.310167 145.498889 
L 139.905791 130.272782 
L 140.501414 152.639877 
L 141.097038 150.023403 
L 142.288285 127.098889 
L 142.883908 140.840889 
L 143.479532 130.604376 
L 144.075155 142.558709 
L 144.670779 138.79579 
L 145.266402 149.604974 
L 145.862026 125.478978 
L 146.45765 126.497441 
L 147.053273 136.485557 
L 147.648897 127.36656 
L 148.24452 161.806319 
L 148.840144 151.611991 
L 149.435767 139.485635 
L 150.031391 131.580965 
L 150.627014 150.692843 
L 151.222638 160.054493 
L 151.818262 138.356485 
L 152.413885 147.516333 
L 153.009509 122.412861 
L 153.605132 122.317458 
L 154.200756 146.513037 
L 154.796379 136.506861 
L 155.392003 157.097427 
L 155.987626 134.390424 
L 156.58325 137.655023 
L 157.178874 146.176811 
L 157.774497 129.160517 
L 158.370121 126.830678 
L 158.965744 140.056916 
L 159.561368 147.59914 
L 160.156991 136.477135 
L 160.752615 139.052859 
L 161.348238 146.346749 
L 161.943862 142.402045 
L 162.539486 146.59674 
L 163.135109 128.088552 
L 163.730733 131.678832 
L 164.326356 144.104593 
L 164.92198 139.534894 
L 165.517603 143.612538 
L 166.113227 134.361664 
L 166.70885 144.282019 
L 167.304474 143.556627 
L 167.900098 151.241734 
L 168.495721 139.561779 
L 169.091345 132.940652 
L 169.686968 133.530565 
L 170.282592 145.089971 
L 170.878215 129.274145 
L 171.473839 145.244541 
L 172.665086 132.675039 
L 173.26071 155.933589 
L 173.856333 150.282705 
L 174.451957 133.767551 
L 175.643204 132.607662 
L 176.238827 144.020527 
L 176.834451 128.413973 
L 177.430074 136.669952 
L 178.025698 138.768234 
L 178.621322 140.403973 
L 179.216945 125.146977 
L 179.812569 147.585735 
L 180.408192 138.551946 
L 181.003816 151.841682 
L 181.599439 133.226587 
L 182.195063 146.115985 
L 182.790686 137.174483 
L 183.38631 137.313517 
L 183.981934 151.013474 
L 184.577557 122.414983 
L 185.173181 139.195307 
L 185.768804 146.092599 
L 186.364428 155.429171 
L 186.960051 135.91007 
L 187.555675 139.922612 
L 188.151298 149.877121 
L 188.746922 127.320963 
L 189.342546 130.405787 
L 189.938169 148.529685 
L 190.533793 135.477104 
L 191.129416 140.975965 
L 191.72504 143.13466 
L 192.320663 132.043133 
L 192.916287 127.805582 
L 193.51191 133.43536 
L 194.107534 149.257196 
L 194.703158 140.854133 
L 195.298781 136.939752 
L 195.894405 142.676923 
L 196.490028 138.6532 
L 197.085652 157.648115 
L 197.681275 129.249364 
L 198.276899 135.949183 
L 198.872522 128.877201 
L 199.468146 140.905535 
L 200.06377 128.531993 
L 200.659393 141.778699 
L 201.255017 135.033071 
L 201.85064 137.379055 
L 202.446264 167.751061 
L 203.041887 127.725977 
L 203.637511 141.150713 
L 204.233134 144.502772 
L 204.828758 140.815285 
L 205.424382 140.491658 
L 206.020005 147.643936 
L 206.615629 131.923265 
L 207.211252 137.54673 
L 207.806876 145.122117 
L 208.402499 133.32942 
L 208.998123 146.475729 
L 209.593746 143.199993 
L 210.18937 138.481451 
L 210.784993 126.716255 
L 211.380617 140.904104 
L 211.976241 137.95021 
L 212.571864 149.110093 
L 213.167488 133.944529 
L 213.763111 155.242023 
L 214.358735 125.258888 
L 214.954358 142.262791 
L 215.549982 144.542924 
L 216.145605 131.395466 
L 216.741229 128.540086 
L 217.336853 143.540932 
L 217.932476 151.812024 
L 218.5281 153.06057 
L 219.123723 160.054493 
L 219.719347 138.356485 
L 220.31497 152.202458 
L 220.910594 148.645951 
L 221.506217 126.079548 
L 222.101841 134.319661 
L 222.697465 139.81281 
L 223.293088 135.021031 
L 223.888712 128.252071 
L 224.484335 156.075694 
L 225.079959 156.245048 
L 225.675582 145.370206 
L 226.271206 131.277794 
L 226.866829 133.089801 
L 227.462453 144.542465 
L 228.058077 151.382844 
L 228.6537 155.865533 
L 229.249324 129.621661 
L 229.844947 126.605405 
L 230.440571 139.482491 
L 231.036194 141.695622 
L 231.631818 156.145464 
L 232.227441 137.95021 
L 232.823065 149.110093 
L 233.418689 131.33717 
L 234.014312 151.114805 
L 234.609936 150.282705 
L 235.205559 133.767551 
L 235.801183 131.459517 
L 236.396806 133.244996 
L 236.99243 140.975859 
L 237.588053 144.247441 
L 238.183677 157.789954 
L 238.779301 123.104543 
L 239.374924 131.152606 
L 239.970548 126.423952 
L 240.566171 152.594319 
L 241.161795 147.50563 
L 241.757418 143.691258 
L 242.353042 137.136961 
L 242.948665 144.500419 
L 243.544289 157.411244 
L 244.139913 140.148059 
L 244.735536 134.584902 
L 245.33116 127.366546 
L 245.926783 161.806327 
L 246.522407 146.56936 
L 247.11803 121.615889 
L 247.713654 141.406539 
L 248.309277 144.785267 
L 248.904901 142.885008 
L 249.500525 143.538172 
L 250.096148 139.24255 
L 250.691772 128.199453 
L 251.287395 148.316322 
L 251.883019 140.596284 
L 252.478642 139.918125 
L 253.074266 133.938769 
L 253.669889 139.420661 
L 254.265513 125.222726 
L 254.861137 139.987133 
L 255.45676 146.656988 
L 256.052384 151.241734 
L 257.243631 126.894947 
L 258.434878 150.862472 
L 259.030501 142.476486 
L 259.626125 136.499992 
L 260.221749 138.948672 
L 260.817372 123.521568 
L 261.412996 135.392368 
L 262.008619 133.01396 
L 262.604243 142.394298 
L 263.199866 141.243202 
L 263.79549 132.727944 
L 264.391113 135.975466 
L 264.986737 168.786426 
L 265.582361 138.087288 
L 266.177984 162.35108 
L 266.773608 139.81281 
L 267.369231 135.021031 
L 267.964855 141.406539 
L 268.560478 144.785267 
L 269.156102 144.850689 
L 269.751725 121.951921 
L 270.347349 134.351645 
L 270.942973 140.531023 
L 271.538596 130.43412 
L 272.13422 140.459322 
L 272.729843 132.554955 
L 273.325467 139.473103 
L 273.92109 136.652885 
L 274.516714 147.629677 
L 275.112337 151.812024 
L 275.707961 153.06057 
L 276.303584 129.816606 
L 276.899208 142.548759 
L 277.494832 145.673118 
L 278.090455 160.360374 
L 278.686079 128.982189 
L 279.281702 154.105875 
L 279.877326 142.723123 
L 280.472949 149.250383 
L 281.068573 126.513312 
L 281.664196 152.30843 
L 282.25982 131.226463 
L 282.855444 145.832299 
L 283.451067 140.851093 
L 284.046691 128.905919 
L 284.642314 151.872375 
L 285.237938 142.750238 
L 285.833561 131.33717 
L 286.429185 151.114805 
L 287.024808 140.511688 
L 287.620432 155.310149 
L 288.216056 125.535035 
L 288.811679 158.585431 
L 289.407303 133.467615 
L 290.002926 133.518497 
L 290.59855 133.211343 
L 291.194173 132.607662 
L 291.789797 134.889312 
L 292.38542 160.870925 
L 292.981044 135.871557 
L 293.576668 153.664229 
L 294.172291 133.123512 
L 294.767915 155.160069 
L 295.363538 126.716255 
L 295.959162 140.904104 
L 296.554785 130.062568 
L 297.150409 148.968785 
L 298.341656 133.442826 
L 298.93728 140.840889 
L 299.532903 130.604376 
L 300.128527 141.077842 
L 300.72415 148.499374 
L 301.319774 134.295556 
L 301.915397 142.408552 
L 302.511021 145.86974 
L 303.106644 120.00815 
L 303.702268 148.689675 
L 304.297892 167.931977 
L 304.893515 145.295881 
L 305.489139 137.434993 
L 306.084762 123.677723 
L 306.680386 133.695289 
L 307.276009 140.165214 
L 307.871633 140.853398 
L 308.467256 145.089971 
L 309.06288 129.274145 
L 309.658504 132.795094 
L 310.254127 145.915739 
L 310.849751 146.760711 
L 312.040998 138.615328 
L 312.636621 142.083918 
L 313.232245 149.381854 
L 313.827868 136.956017 
L 314.423492 149.689545 
L 315.019116 142.737362 
L 315.614739 139.021263 
L 316.210363 134.346635 
L 316.805986 120.283275 
L 317.40161 148.687464 
L 318.592857 137.199764 
L 319.18848 148.509463 
L 319.784104 122.984563 
L 320.975351 137.423763 
L 321.570975 125.755311 
L 322.166598 143.166114 
L 322.762222 132.044667 
L 323.357845 137.66109 
L 323.953469 158.432423 
L 324.549092 150.964575 
L 325.144716 135.986716 
L 325.74034 146.030168 
L 326.335963 142.316613 
L 326.931587 135.260434 
L 327.52721 141.601708 
L 328.122834 142.244733 
L 328.718457 147.585735 
L 329.314081 138.551946 
L 329.909704 137.65885 
L 330.505328 123.999071 
L 331.100952 135.124611 
L 331.696575 123.111074 
L 332.292199 135.472474 
L 332.887822 151.454548 
L 333.483446 140.359769 
L 334.079069 144.736391 
L 334.674693 146.648915 
L 335.270316 138.16258 
L 336.461564 146.59674 
L 337.057187 134.308212 
L 337.652811 151.543056 
L 338.248434 140.773061 
L 338.844058 136.966114 
L 339.439681 156.245048 
L 340.035305 145.370206 
L 340.630928 144.131735 
L 341.226552 133.795544 
L 341.822175 130.43412 
L 342.417799 140.459322 
L 343.013423 135.975477 
L 343.609046 168.786429 
L 344.20467 131.059779 
L 344.800293 134.243698 
L 345.395917 140.511688 
L 345.99154 155.310149 
L 346.587164 122.317458 
L 347.182787 146.513037 
L 347.778411 143.691258 
L 348.374035 137.136961 
L 348.969658 144.500419 
L 349.565282 157.411244 
L 350.160905 122.914015 
L 350.756529 149.442114 
L 351.947776 128.199453 
L 352.543399 138.646018 
L 353.139023 137.725261 
L 353.734647 137.700737 
L 354.33027 131.01867 
L 354.925894 130.062568 
L 355.521517 148.968785 
L 356.117141 142.467426 
L 356.712764 139.561226 
L 357.308388 141.695622 
L 357.904011 156.145464 
L 358.499635 132.795094 
L 359.690882 157.901413 
L 360.286506 129.667681 
L 360.286506 129.667681 
" clip-path="url(#p98d1c39d1c)" style="fill: none; stroke: #1f77b4; stroke-opacity: 0.9; stroke-width: 1.5; stroke-linecap: square"/>
   </g>
   <g id="line2d_13">
    <path d="M 55.922869 147.46352 
L 56.518493 147.46352 
L 57.114116 160.080928 
L 57.70974 130.640309 
L 58.305364 185.315745 
L 58.900987 38.11265 
L 59.496611 134.846112 
L 60.092234 122.228704 
L 60.687858 139.051915 
L 61.283481 147.46352 
L 62.474728 96.993888 
L 63.070352 84.37648 
L 63.665976 63.347466 
L 64.261599 164.286731 
L 64.857223 118.022901 
L 65.452846 189.521547 
L 66.04847 139.051915 
L 66.644093 164.286731 
L 67.239717 210.550561 
L 67.83534 139.051915 
L 68.430964 206.344758 
L 69.026588 118.022901 
L 69.622211 96.993888 
L 70.217835 151.669323 
L 70.813458 122.228704 
L 71.409082 160.080928 
L 72.004705 160.080928 
L 72.600329 80.170677 
L 73.195952 84.37648 
L 73.791576 143.257718 
L 74.3872 160.080928 
L 74.982823 130.640309 
L 75.578447 113.817099 
L 76.17407 160.080928 
L 76.769694 118.022901 
L 77.365317 151.669323 
L 77.960941 130.640309 
L 78.556564 88.582282 
L 79.152188 172.698337 
L 79.747811 164.286731 
L 80.343435 92.788085 
L 80.939059 168.492534 
L 81.534682 139.051915 
L 82.130306 139.051915 
L 82.725929 71.759072 
L 83.321553 155.875126 
L 83.917176 147.46352 
L 84.5128 118.022901 
L 85.108423 172.698337 
L 85.704047 151.669323 
L 86.299671 113.817099 
L 86.895294 126.434507 
L 87.490918 113.817099 
L 88.086541 172.698337 
L 88.682165 88.582282 
L 89.277788 168.492534 
L 89.873412 113.817099 
L 90.469035 130.640309 
L 91.064659 155.875126 
L 91.660283 143.257718 
L 92.255906 155.875126 
L 92.85153 96.993888 
L 94.042777 151.669323 
L 94.6384 172.698337 
L 95.234024 134.846112 
L 95.829647 189.521547 
L 96.425271 134.846112 
L 97.020895 139.051915 
L 97.616518 181.109942 
L 98.212142 172.698337 
L 98.807765 139.051915 
L 99.403389 126.434507 
L 99.999012 160.080928 
L 100.594636 84.37648 
L 101.190259 164.286731 
L 101.785883 130.640309 
L 102.381507 118.022901 
L 102.97713 109.611296 
L 103.572754 134.846112 
L 104.168377 143.257718 
L 104.764001 160.080928 
L 105.955248 71.759072 
L 106.550871 160.080928 
L 107.146495 160.080928 
L 107.742119 155.875126 
L 108.337742 25.495242 
L 108.933366 105.405493 
L 109.528989 118.022901 
L 110.124613 139.051915 
L 110.720236 181.109942 
L 111.31586 160.080928 
L 111.911483 147.46352 
L 112.507107 96.993888 
L 113.102731 130.640309 
L 113.698354 105.405493 
L 114.293978 160.080928 
L 114.889601 176.904139 
L 115.485225 92.788085 
L 116.080848 168.492534 
L 116.676472 160.080928 
L 117.272095 143.257718 
L 117.867719 71.759072 
L 118.463343 113.817099 
L 119.058966 176.904139 
L 119.65459 160.080928 
L 120.250213 139.051915 
L 120.845837 202.138956 
L 121.44146 126.434507 
L 122.037084 80.170677 
L 122.632707 139.051915 
L 123.228331 151.669323 
L 123.823955 130.640309 
L 124.419578 96.993888 
L 125.015202 160.080928 
L 125.610825 118.022901 
L 126.206449 139.051915 
L 126.802072 101.199691 
L 127.397696 147.46352 
L 127.993319 176.904139 
L 128.588943 160.080928 
L 129.184567 67.553269 
L 129.78019 113.817099 
L 130.375814 105.405493 
L 130.971437 168.492534 
L 131.567061 164.286731 
L 132.162684 147.46352 
L 132.758308 202.138956 
L 133.353931 172.698337 
L 133.949555 122.228704 
L 134.545179 122.228704 
L 135.140802 160.080928 
L 135.736426 113.817099 
L 136.332049 168.492534 
L 136.927673 109.611296 
L 137.523296 130.640309 
L 138.11892 181.109942 
L 138.714543 84.37648 
L 139.310167 168.492534 
L 139.905791 130.640309 
L 140.501414 139.051915 
L 141.097038 134.846112 
L 141.692661 105.405493 
L 142.288285 96.993888 
L 142.883908 151.669323 
L 143.479532 105.405493 
L 144.075155 172.698337 
L 144.670779 160.080928 
L 145.266402 130.640309 
L 145.862026 67.553269 
L 146.45765 134.846112 
L 147.053273 75.964874 
L 147.648897 151.669323 
L 148.24452 122.228704 
L 148.840144 147.46352 
L 149.435767 147.46352 
L 150.031391 139.051915 
L 150.627014 113.817099 
L 151.222638 151.669323 
L 151.818262 67.553269 
L 152.413885 139.051915 
L 153.009509 160.080928 
L 153.605132 109.611296 
L 154.200756 151.669323 
L 154.796379 139.051915 
L 155.392003 202.138956 
L 155.987626 130.640309 
L 156.58325 42.318453 
L 157.178874 151.669323 
L 157.774497 185.315745 
L 158.370121 147.46352 
L 158.965744 147.46352 
L 159.561368 155.875126 
L 160.156991 88.582282 
L 160.752615 206.344758 
L 161.348238 168.492534 
L 161.943862 143.257718 
L 162.539486 185.315745 
L 163.135109 139.051915 
L 163.730733 17.083636 
L 164.92198 122.228704 
L 165.517603 214.756364 
L 166.113227 176.904139 
L 166.70885 160.080928 
L 167.304474 168.492534 
L 167.900098 147.46352 
L 168.495721 113.817099 
L 169.091345 63.347466 
L 170.282592 168.492534 
L 170.878215 118.022901 
L 171.473839 160.080928 
L 172.069462 101.199691 
L 172.665086 155.875126 
L 173.26071 168.492534 
L 173.856333 126.434507 
L 174.451957 181.109942 
L 175.04758 105.405493 
L 175.643204 164.286731 
L 176.238827 109.611296 
L 176.834451 118.022901 
L 177.430074 206.344758 
L 178.025698 143.257718 
L 178.621322 151.669323 
L 179.216945 130.640309 
L 179.812569 134.846112 
L 180.408192 164.286731 
L 181.003816 147.46352 
L 181.599439 172.698337 
L 182.195063 143.257718 
L 182.790686 164.286731 
L 183.38631 139.051915 
L 183.981934 101.199691 
L 184.577557 75.964874 
L 185.173181 126.434507 
L 185.768804 151.669323 
L 186.364428 160.080928 
L 186.960051 17.083636 
L 187.555675 139.051915 
L 188.151298 189.521547 
L 188.746922 96.993888 
L 189.342546 139.051915 
L 189.938169 160.080928 
L 190.533793 126.434507 
L 191.129416 172.698337 
L 191.72504 164.286731 
L 192.320663 143.257718 
L 193.51191 126.434507 
L 194.107534 160.080928 
L 194.703158 126.434507 
L 195.894405 189.521547 
L 196.490028 181.109942 
L 197.681275 92.788085 
L 198.276899 151.669323 
L 198.872522 130.640309 
L 199.468146 202.138956 
L 200.06377 92.788085 
L 200.659393 130.640309 
L 201.255017 160.080928 
L 201.85064 164.286731 
L 202.446264 160.080928 
L 203.041887 160.080928 
L 203.637511 181.109942 
L 204.233134 164.286731 
L 204.828758 134.846112 
L 205.424382 172.698337 
L 206.020005 139.051915 
L 206.615629 130.640309 
L 207.211252 130.640309 
L 207.806876 151.669323 
L 208.402499 160.080928 
L 208.998123 96.993888 
L 209.593746 160.080928 
L 210.18937 92.788085 
L 210.784993 75.964874 
L 211.380617 160.080928 
L 211.976241 181.109942 
L 212.571864 75.964874 
L 213.167488 172.698337 
L 213.763111 151.669323 
L 214.358735 101.199691 
L 214.954358 172.698337 
L 215.549982 168.492534 
L 216.145605 151.669323 
L 216.741229 151.669323 
L 217.336853 96.993888 
L 217.932476 164.286731 
L 218.5281 147.46352 
L 219.123723 202.138956 
L 219.719347 172.698337 
L 220.31497 96.993888 
L 220.910594 151.669323 
L 221.506217 176.904139 
L 222.697465 88.582282 
L 223.293088 92.788085 
L 223.888712 202.138956 
L 224.484335 88.582282 
L 225.079959 176.904139 
L 225.675582 155.875126 
L 226.271206 118.022901 
L 226.866829 92.788085 
L 227.462453 143.257718 
L 228.058077 172.698337 
L 228.6537 134.846112 
L 229.249324 122.228704 
L 229.844947 139.051915 
L 231.036194 122.228704 
L 231.631818 176.904139 
L 232.823065 143.257718 
L 233.418689 147.46352 
L 234.014312 172.698337 
L 234.609936 109.611296 
L 235.205559 139.051915 
L 235.801183 118.022901 
L 236.396806 185.315745 
L 236.99243 80.170677 
L 237.588053 160.080928 
L 238.183677 160.080928 
L 238.779301 96.993888 
L 239.374924 202.138956 
L 239.970548 80.170677 
L 240.566171 168.492534 
L 241.161795 202.138956 
L 241.757418 168.492534 
L 242.948665 38.11265 
L 243.544289 172.698337 
L 244.139913 38.11265 
L 244.735536 126.434507 
L 245.33116 143.257718 
L 245.926783 164.286731 
L 246.522407 176.904139 
L 247.11803 118.022901 
L 247.713654 113.817099 
L 248.904901 160.080928 
L 250.096148 168.492534 
L 250.691772 181.109942 
L 251.287395 210.550561 
L 251.883019 181.109942 
L 252.478642 118.022901 
L 253.074266 134.846112 
L 253.669889 139.051915 
L 254.265513 139.051915 
L 254.861137 189.521547 
L 255.45676 143.257718 
L 256.648007 118.022901 
L 257.243631 122.228704 
L 257.839254 139.051915 
L 258.434878 189.521547 
L 259.030501 164.286731 
L 259.626125 113.817099 
L 260.221749 42.318453 
L 260.817372 92.788085 
L 261.412996 172.698337 
L 262.008619 84.37648 
L 262.604243 105.405493 
L 263.199866 172.698337 
L 263.79549 75.964874 
L 264.391113 118.022901 
L 264.986737 130.640309 
L 265.582361 130.640309 
L 266.177984 126.434507 
L 266.773608 172.698337 
L 267.369231 118.022901 
L 267.964855 126.434507 
L 268.560478 181.109942 
L 269.156102 118.022901 
L 269.751725 172.698337 
L 270.347349 122.228704 
L 270.942973 172.698337 
L 271.538596 46.524255 
L 272.13422 168.492534 
L 272.729843 126.434507 
L 273.325467 122.228704 
L 273.92109 67.553269 
L 275.112337 168.492534 
L 275.707961 139.051915 
L 276.303584 92.788085 
L 276.899208 139.051915 
L 277.494832 172.698337 
L 278.090455 143.257718 
L 278.686079 193.72735 
L 279.281702 122.228704 
L 279.877326 126.434507 
L 280.472949 160.080928 
L 281.068573 172.698337 
L 281.664196 172.698337 
L 282.25982 151.669323 
L 282.855444 84.37648 
L 283.451067 143.257718 
L 284.046691 134.846112 
L 284.642314 134.846112 
L 285.237938 160.080928 
L 285.833561 147.46352 
L 286.429185 139.051915 
L 287.024808 147.46352 
L 287.620432 181.109942 
L 288.216056 84.37648 
L 288.811679 172.698337 
L 289.407303 168.492534 
L 290.002926 147.46352 
L 290.59855 96.993888 
L 291.194173 105.405493 
L 291.789797 130.640309 
L 292.981044 210.550561 
L 293.576668 155.875126 
L 294.172291 151.669323 
L 294.767915 160.080928 
L 295.363538 172.698337 
L 295.959162 155.875126 
L 296.554785 109.611296 
L 297.150409 96.993888 
L 297.746032 164.286731 
L 298.341656 151.669323 
L 298.93728 164.286731 
L 299.532903 109.611296 
L 300.128527 172.698337 
L 300.72415 164.286731 
L 301.319774 71.759072 
L 301.915397 164.286731 
L 302.511021 139.051915 
L 303.106644 130.640309 
L 303.702268 130.640309 
L 304.297892 147.46352 
L 304.893515 118.022901 
L 305.489139 160.080928 
L 306.084762 176.904139 
L 306.680386 139.051915 
L 307.276009 164.286731 
L 307.871633 181.109942 
L 308.467256 130.640309 
L 309.06288 172.698337 
L 309.658504 126.434507 
L 310.254127 130.640309 
L 310.849751 164.286731 
L 311.445374 147.46352 
L 312.040998 109.611296 
L 312.636621 113.817099 
L 313.232245 160.080928 
L 313.827868 92.788085 
L 314.423492 130.640309 
L 315.019116 126.434507 
L 315.614739 202.138956 
L 316.210363 105.405493 
L 316.805986 172.698337 
L 317.40161 172.698337 
L 317.997233 193.72735 
L 318.592857 109.611296 
L 319.18848 118.022901 
L 319.784104 105.405493 
L 320.379728 113.817099 
L 320.975351 105.405493 
L 321.570975 109.611296 
L 322.166598 139.051915 
L 322.762222 113.817099 
L 323.357845 130.640309 
L 323.953469 139.051915 
L 324.549092 122.228704 
L 325.144716 118.022901 
L 325.74034 164.286731 
L 326.335963 172.698337 
L 326.931587 139.051915 
L 327.52721 96.993888 
L 328.122834 118.022901 
L 328.718457 160.080928 
L 329.314081 160.080928 
L 329.909704 151.669323 
L 330.505328 172.698337 
L 331.100952 92.788085 
L 331.696575 92.788085 
L 332.292199 84.37648 
L 332.887822 168.492534 
L 333.483446 113.817099 
L 334.079069 139.051915 
L 334.674693 126.434507 
L 335.270316 160.080928 
L 335.86594 84.37648 
L 336.461564 67.553269 
L 337.057187 109.611296 
L 337.652811 143.257718 
L 338.248434 164.286731 
L 338.844058 126.434507 
L 340.035305 134.846112 
L 340.630928 147.46352 
L 341.226552 105.405493 
L 341.822175 139.051915 
L 342.417799 113.817099 
L 343.013423 160.080928 
L 343.609046 181.109942 
L 344.20467 139.051915 
L 344.800293 172.698337 
L 345.395917 160.080928 
L 346.587164 109.611296 
L 347.182787 130.640309 
L 347.778411 118.022901 
L 348.374035 160.080928 
L 348.969658 168.492534 
L 349.565282 147.46352 
L 350.160905 134.846112 
L 350.756529 113.817099 
L 351.352152 101.199691 
L 351.947776 118.022901 
L 352.543399 143.257718 
L 353.139023 122.228704 
L 353.734647 122.228704 
L 354.33027 139.051915 
L 354.925894 113.817099 
L 355.521517 109.611296 
L 356.117141 134.846112 
L 356.712764 134.846112 
L 357.308388 139.051915 
L 357.904011 164.286731 
L 358.499635 109.611296 
L 359.095259 109.611296 
L 359.690882 193.72735 
L 360.286506 168.492534 
L 360.286506 168.492534 
" clip-path="url(#p98d1c39d1c)" style="fill: none; stroke: #ff7f0e; stroke-opacity: 0.5; stroke-width: 1.5; stroke-linecap: square"/>
   </g>
   <g id="patch_3">
    <path d="M 40.704688 224.64 
L 40.704688 7.2 
" style="fill: none; stroke: #000000; stroke-width: 0.8; stroke-linejoin: miter; stroke-linecap: square"/>
   </g>
   <g id="patch_4">
    <path d="M 375.504688 224.64 
L 375.504688 7.2 
" style="fill: none; stroke: #000000; stroke-width: 0.8; stroke-linejoin: miter; stroke-linecap: square"/>
   </g>
   <g id="patch_5">
    <path d="M 40.704688 224.64 
L 375.504688 224.64 
" style="fill: none; stroke: #000000; stroke-width: 0.8; stroke-linejoin: miter; stroke-linecap: square"/>
   </g>
   <g id="patch_6">
    <path d="M 40.704688 7.2 
L 375.504688 7.2 
" style="fill: none; stroke: #000000; stroke-width: 0.8; stroke-linejoin: miter; stroke-linecap: square"/>
   </g>
   <g id="legend_1">
    <g id="patch_7">
     <path d="M 282.30625 44.55625 
L 368.504688 44.55625 
Q 370.504688 44.55625 370.504688 42.55625 
L 370.504688 14.2 
Q 370.504688 12.2 368.504688 12.2 
L 282.30625 12.2 
Q 280.30625 12.2 280.30625 14.2 
L 280.30625 42.55625 
Q 280.30625 44.55625 282.30625 44.55625 
z
" style="fill: #ffffff; opacity: 0.8; stroke: #cccccc; stroke-linejoin: miter"/>
    </g>
    <g id="line2d_14">
     <path d="M 284.30625 20.298437 
L 294.30625 20.298437 
L 304.30625 20.298437 
" style="fill: none; stroke: #1f77b4; stroke-opacity: 0.9; stroke-width: 1.5; stroke-linecap: square"/>
    </g>
    <g id="text_14">
     <!-- prediction -->
     <g transform="translate(312.30625 23.798437)scale(0.1 -0.1)">
      <defs>
       <path id="DejaVuSans-70" d="M 1159 525 
L 1159 -1331 
L 581 -1331 
L 581 3500 
L 1159 3500 
L 1159 2969 
Q 1341 3281 1617 3432 
Q 1894 3584 2278 3584 
Q 2916 3584 3314 3078 
Q 3713 2572 3713 1747 
Q 3713 922 3314 415 
Q 2916 -91 2278 -91 
Q 1894 -91 1617 61 
Q 1341 213 1159 525 
z
M 3116 1747 
Q 3116 2381 2855 2742 
Q 2594 3103 2138 3103 
Q 1681 3103 1420 2742 
Q 1159 2381 1159 1747 
Q 1159 1113 1420 752 
Q 1681 391 2138 391 
Q 2594 391 2855 752 
Q 3116 1113 3116 1747 
z
" transform="scale(0.015625)"/>
       <path id="DejaVuSans-72" d="M 2631 2963 
Q 2534 3019 2420 3045 
Q 2306 3072 2169 3072 
Q 1681 3072 1420 2755 
Q 1159 2438 1159 1844 
L 1159 0 
L 581 0 
L 581 3500 
L 1159 3500 
L 1159 2956 
Q 1341 3275 1631 3429 
Q 1922 3584 2338 3584 
Q 2397 3584 2469 3576 
Q 2541 3569 2628 3553 
L 2631 2963 
z
" transform="scale(0.015625)"/>
       <path id="DejaVuSans-64" d="M 2906 2969 
L 2906 4863 
L 3481 4863 
L 3481 0 
L 2906 0 
L 2906 525 
Q 2725 213 2448 61 
Q 2172 -91 1784 -91 
Q 1150 -91 751 415 
Q 353 922 353 1747 
Q 353 2572 751 3078 
Q 1150 3584 1784 3584 
Q 2172 3584 2448 3432 
Q 2725 3281 2906 2969 
z
M 947 1747 
Q 947 1113 1208 752 
Q 1469 391 1925 391 
Q 2381 391 2643 752 
Q 2906 1113 2906 1747 
Q 2906 2381 2643 2742 
Q 2381 3103 1925 3103 
Q 1469 3103 1208 2742 
Q 947 2381 947 1747 
z
" transform="scale(0.015625)"/>
       <path id="DejaVuSans-69" d="M 603 3500 
L 1178 3500 
L 1178 0 
L 603 0 
L 603 3500 
z
M 603 4863 
L 1178 4863 
L 1178 4134 
L 603 4134 
L 603 4863 
z
" transform="scale(0.015625)"/>
       <path id="DejaVuSans-63" d="M 3122 3366 
L 3122 2828 
Q 2878 2963 2633 3030 
Q 2388 3097 2138 3097 
Q 1578 3097 1268 2742 
Q 959 2388 959 1747 
Q 959 1106 1268 751 
Q 1578 397 2138 397 
Q 2388 397 2633 464 
Q 2878 531 3122 666 
L 3122 134 
Q 2881 22 2623 -34 
Q 2366 -91 2075 -91 
Q 1284 -91 818 406 
Q 353 903 353 1747 
Q 353 2603 823 3093 
Q 1294 3584 2113 3584 
Q 2378 3584 2631 3529 
Q 2884 3475 3122 3366 
z
" transform="scale(0.015625)"/>
       <path id="DejaVuSans-74" d="M 1172 4494 
L 1172 3500 
L 2356 3500 
L 2356 3053 
L 1172 3053 
L 1172 1153 
Q 1172 725 1289 603 
Q 1406 481 1766 481 
L 2356 481 
L 2356 0 
L 1766 0 
Q 1100 0 847 248 
Q 594 497 594 1153 
L 594 3053 
L 172 3053 
L 172 3500 
L 594 3500 
L 594 4494 
L 1172 4494 
z
" transform="scale(0.015625)"/>
       <path id="DejaVuSans-6f" d="M 1959 3097 
Q 1497 3097 1228 2736 
Q 959 2375 959 1747 
Q 959 1119 1226 758 
Q 1494 397 1959 397 
Q 2419 397 2687 759 
Q 2956 1122 2956 1747 
Q 2956 2369 2687 2733 
Q 2419 3097 1959 3097 
z
M 1959 3584 
Q 2709 3584 3137 3096 
Q 3566 2609 3566 1747 
Q 3566 888 3137 398 
Q 2709 -91 1959 -91 
Q 1206 -91 779 398 
Q 353 888 353 1747 
Q 353 2609 779 3096 
Q 1206 3584 1959 3584 
z
" transform="scale(0.015625)"/>
       <path id="DejaVuSans-6e" d="M 3513 2113 
L 3513 0 
L 2938 0 
L 2938 2094 
Q 2938 2591 2744 2837 
Q 2550 3084 2163 3084 
Q 1697 3084 1428 2787 
Q 1159 2491 1159 1978 
L 1159 0 
L 581 0 
L 581 3500 
L 1159 3500 
L 1159 2956 
Q 1366 3272 1645 3428 
Q 1925 3584 2291 3584 
Q 2894 3584 3203 3211 
Q 3513 2838 3513 2113 
z
" transform="scale(0.015625)"/>
      </defs>
      <use xlink:href="#DejaVuSans-70"/>
      <use xlink:href="#DejaVuSans-72" x="63.476562"/>
      <use xlink:href="#DejaVuSans-65" x="102.339844"/>
      <use xlink:href="#DejaVuSans-64" x="163.863281"/>
      <use xlink:href="#DejaVuSans-69" x="227.339844"/>
      <use xlink:href="#DejaVuSans-63" x="255.123047"/>
      <use xlink:href="#DejaVuSans-74" x="310.103516"/>
      <use xlink:href="#DejaVuSans-69" x="349.3125"/>
      <use xlink:href="#DejaVuSans-6f" x="377.095703"/>
      <use xlink:href="#DejaVuSans-6e" x="438.277344"/>
     </g>
    </g>
    <g id="line2d_15">
     <path d="M 284.30625 34.976562 
L 294.30625 34.976562 
L 304.30625 34.976562 
" style="fill: none; stroke: #ff7f0e; stroke-opacity: 0.5; stroke-width: 1.5; stroke-linecap: square"/>
    </g>
    <g id="text_15">
     <!-- real scores -->
     <g transform="translate(312.30625 38.476562)scale(0.1 -0.1)">
      <defs>
       <path id="DejaVuSans-6c" d="M 603 4863 
L 1178 4863 
L 1178 0 
L 603 0 
L 603 4863 
z
" transform="scale(0.015625)"/>
       <path id="DejaVuSans-20" transform="scale(0.015625)"/>
      </defs>
      <use xlink:href="#DejaVuSans-72"/>
      <use xlink:href="#DejaVuSans-65" x="38.863281"/>
      <use xlink:href="#DejaVuSans-61" x="100.386719"/>
      <use xlink:href="#DejaVuSans-6c" x="161.666016"/>
      <use xlink:href="#DejaVuSans-20" x="189.449219"/>
      <use xlink:href="#DejaVuSans-73" x="221.236328"/>
      <use xlink:href="#DejaVuSans-63" x="273.335938"/>
      <use xlink:href="#DejaVuSans-6f" x="328.316406"/>
      <use xlink:href="#DejaVuSans-72" x="389.498047"/>
      <use xlink:href="#DejaVuSans-65" x="428.361328"/>
      <use xlink:href="#DejaVuSans-73" x="489.884766"/>
     </g>
    </g>
   </g>
  </g>
 </g>
 <defs>
  <clipPath id="p98d1c39d1c">
   <rect x="40.704688" y="7.2" width="334.8" height="217.44"/>
  </clipPath>
 </defs>
</svg>
